<svg xmlns="http://www.w3.org/2000/svg" viewBox="0 0 360 420"><ellipse cx="180" cy="385" rx="105" ry="20" fill="#000" opacity=".12"/><circle cx="112" cy="93" r="48" fill="#1f2937"/><circle cx="248" cy="93" r="48" fill="#1f2937"/><circle cx="180" cy="175" r="120" fill="#fff"/><ellipse cx="132" cy="170" rx="34" ry="43" fill="#1f2937" transform="rotate(-18 132 170)"/><ellipse cx="228" cy="170" rx="34" ry="43" fill="#1f2937" transform="rotate(18 228 170)"/><circle cx="140" cy="164" r="10" fill="#fff"/><circle cx="220" cy="164" r="10" fill="#fff"/><ellipse cx="180" cy="204" rx="26" ry="19" fill="#111827"/><path d="M155 230c18 20 34 20 50 0" fill="none" stroke="#111827" stroke-width="8" stroke-linecap="round"/><path d="M95 285c-32 20-47 52-33 73 14 21 51 16 83-4zM265 285c32 20 47 52 33 73-14 21-51 16-83-4z" fill="#1f2937"/><rect x="93" y="265" width="174" height="108" rx="48" fill="#22c55e"/><path d="M135 265h90c-13 32-71 32-90 0z" fill="#fff"/><circle cx="135" cy="320" r="16" fill="#facc15"/><circle cx="225" cy="320" r="16" fill="#facc15"/><path d="M132 371c-18 21-10 42 17 42h22v-42zM228 371c18 21 10 42-17 42h-22v-42z" fill="#1f2937"/></svg>