<svg xmlns="http://www.w3.org/2000/svg" xmlns:xlink="http://www.w3.org/1999/xlink" id="Layer_1" version="1.1" width="288" height="288" viewBox="0 0 288 288">
  <defs>
    <style>
      .st0,.st1,.st2,.st4,.st5,.st6{stroke:#fff}.st0,.st1,.st2,.st4,.st5,.st6,.st8{fill:none}.st0,.st6{stroke-miterlimit:11.34;stroke-width:1.3px}.st1{stroke-width:2.2px}.st1,.st2,.st4,.st5,.st8{stroke-miterlimit:10}.st2{stroke-width:2.4px}.st4{stroke-width:3px}.st5{stroke-width:2px}.st6{stroke-linecap:round}.st8{stroke:#ffec00;stroke-width:1.3px}.st11{fill:#ffec00}
    </style>
  </defs>
  <path d="M288 143.99c0 79.53-64.47 144-144 144S0 223.52 0 143.99 64.47 0 144 0s144 64.47 144 144Z" class="st11"/>
  <g id="Layer_8">
    <path d="M141.87 58.89v120.85M136.04 58.89v120.85" class="st5"/>
    <path d="M129.64 59.06v120.85" class="st4"/>
    <path d="M123.33 58.89v120.85M117.69 58.89v120.85" class="st5"/>
    <path d="M111.77 58.89v120.85" class="st2"/>
    <path d="M105.75 58.93v120.85" class="st5"/>
    <path d="M99.64 58.93v120.85" class="st4"/>
    <path d="M147.7 58.89v120.85" class="st1"/>
    <path d="M154 58.89v120.85" class="st4"/>
    <path d="M160.17 58.89v120.85" class="st5"/>
    <path d="M165.88 58.89v120.85" class="st1"/>
    <path fill="none" stroke="#fff" stroke-miterlimit="10" stroke-width="5.8" d="M185.57 58.93v120.85"/>
    <path d="M171.92 58.89v120.85" class="st2"/>
    <path fill="none" stroke="#fff" stroke-miterlimit="10" stroke-width="2.3" d="M177.99 58.89v120.85"/>
  </g>
  <path id="Layer_9" fill="#fff" d="m105.25 119.49 9.23 22.52 73.08-42.11 1.37-29.34z"/>
  <g id="Layer_7">
    <path d="m104.91 119.14 84.73-49.38M114.09 142.71l73.56-42.55" class="st8"/>
  </g>
  <path id="Layer_6" d="M144.64 58.8c7.18 3.64 14.56 5.48 21.98 5.48 7 0 13.85-1.62 20.41-4.83 2.51 18.14.21 40.99-6.37 62.23-7.71 24.9-20.47 45.22-36.07 57.56-15.91-12.89-29.72-33.95-38.11-58.25-7.5-21.72-9.98-44.05-6.91-61.01 6.2 3.96 13.03 5.96 20.36 5.96 7.99 0 16.29-2.4 24.71-7.15m45-4.7c-7.14 4.36-14.93 6.75-23.02 6.75-7.2 0-14.64-1.89-22.06-5.98-8.55 5.13-16.86 7.65-24.63 7.65-8.27 0-15.92-2.85-22.58-8.42-9.87 37.07 9.79 101.18 47.21 129.52 37.58-27.58 52.46-91.65 45.08-129.52" class="st11"/>
  <path fill="#e20010" d="M144 0C64.47 0 0 64.47 0 144s64.47 144 144 144 144-64.47 144-144S223.53 0 144 0m.56 183.6c-37.42-28.34-57.09-92.44-47.21-129.52 12.93 10.8 29.56 11.36 47.21.77 15.76 8.67 31.58 7.47 45.08-.77 7.38 37.87-7.5 101.94-45.08 129.52"/>
  <g id="Layer_10">
    <path d="M178.31 85.03c-2.08-.08-3.85 1.26-5.48 2.37-1 .67-5.74 4.15-5.13 5.34.23.46 2 2.35 2.49 2.77 1.98 1.7 6.21 3.14 8.14.69 1.07-1.37.04-4.53.99-4.8 1.23-.35 3.92 1.72 3.41-2.22.62-.73 2.35 2.64-.54 4.29-.39.23-1.14.3-1.33.46-.28.24-.6 1.92-.93 2.51-1.11 1.98-3.11 2.9-5.36 2.9-.62 0-2.62-.61-2.87-.41-.29.23-.32 1.16-.57 1.64-.94 1.75-3.36 1.57-3.7 2.09-.24.38-.23 2.48-.54 3.32-.56 1.54-3.42 4.55-5.11 3.45-1.08-.7 1.16-1.25 1.53-1.52 1.51-1.11 3.54-3.91 2.85-5.88-.11-.31-1.7-1.07-1.06-1.83.21-.25 5.06 1.64 5.46-1.59.16-1.32-.89-1.26-1.74-2-.57-.5-3.05-2.66-3.29-3.04-.97-1.57.23-3.03 1.36-4.1 2.91-2.75 7.05-4.84 10.03-7.61 1.41-.9 1.56 3.02 1.39 3.19ZM157.37 99.35c-1.42.06-3.11-.49-3.52 1.3-.99 4.39 3.88.82 5.46 2.41.73.74.12 3.14-.43 3.99-1.54 2.35-8.9 7.55-10.98 3.85-.68-1.22-1-6.16 1.21-6.03-.5 1.63-1.63 5.92 1.44 5.72 2-.13 7.39-3.74 7.11-5.85-.23-1.68-2.22-.67-3.16-.69-3.35-.07-3.57-5.33.02-5.77.85-.1 2.79-.1 2.86 1.08ZM134.78 106.24h1.66v1.66h-1.66zM136.71 104.58h1.66v1.66h-1.66zM138.24 109.01c-2.51.48-2.34 4.71-.78 5.16 1.65.48 2.61-.93 3.21-.75 2.56.75-2.35 4.54-3.21 5-2.67 1.43-5.24.74-7.78-.6-.44-.23-3.27-2.4-3.44-2.21-.56 2.39 4.18 3.16 4.41 4.83.26 1.86-4.17 5.94-6.03 2.97-.13-.21-.55-2.02-1.01-1.2-.73 1.31.46 2.98 1.54 3.7.72.49 1.51.04 1.35 1.1-.58 3.96-8.91 6.68-9.1.84-.05-1.56 1.89-6.57 2.81-7.93 1.09-1.62 2.44-1.98 2.46-4.46.02-3.42-3.65 1.03-4.45 1.64-2.7 2.05-7.48 3.51-6.87 7.59.28.38 5.18-5.09 6.33-4.68.47 3.29-2.75 8.57-1.8 11.58.41 1.29 3.15 2.26 4.41 2.19 3.65-.2 6.24-3.33 7.64-6.42.27-.6.31-1.7.64-2.11.34-.41 1.85-.81 2.45-1.41.64-.63 1.3-2.74 1.52-2.88.56-.38 3.29.04 4.43-.26 1.8-.46 4.8-2.91 5.55-4.64 1.35-3.1-.32-7.82-4.31-7.06Zm1.34 2.99c-1.5.49-1.51-1.69-.79-1.9 1.03-.3 1.78 1.57.79 1.9M154.19 112.33h1.66v1.66h-1.66zM156.12 110.68h1.66v1.66h-1.66zM162.47 89.86h1.66v1.66h-1.66z" class="st11"/>
    <path d="M179.24 87.23h1.66v1.66h-1.66z" class="st11"/>
  </g>
  <path id="Layer_4" fill="#369d27" d="M198.86 158.64c0 29.76-24.71 53.89-55.18 53.89s-55.19-24.13-55.19-53.89c0-12.43 4.31-23.88 11.57-33a45.5 45.5 0 0 0-1.18 10.31c0 25.15 20.39 45.54 45.54 45.54s45.54-20.39 45.54-45.54c0-2.59-.22-5.13-.63-7.6 6.01 8.63 9.53 19.06 9.53 30.29"/>
  <path id="Layer_5" d="M58.05 88.69c.64.61 3.49-2.46 3.96-3 1.66-1.88 2.79-3.88 4.77-5.61 3.44-3 10.94-6.34 15.46-6.94 4.27-.57 3.94 1.22 2.35 4.26-4.9 9.34-12.92 12.86-23.12 13.49-1.05.06-4.39-.29-4.93.26-3.06 5.92-5.8 12.11-7.7 18.52-.48 1.62-1.24 4.05-1.44 5.67-.16 1.3 1.69-1.13 1.86-1.42 1.58-2.56 2.32-6.02 3.86-8.71 2.52-4.4 8.36-9.46 12.94-11.65 2.52-1.21 4.56-1.79 3.94 2.03-.68 4.2-2.77 9.25-5.53 12.5-4.56 5.36-10.92 8-17.57 9.88-1.3 4.78-1.69 9.64-1.96 14.57-.03.53-.26 1.04-.29 1.63-.15 3.76-.1 7.65.42 11.35 2.1-2.87 1.38-7.11 2.12-10.45 1.1-4.94 5.53-11.9 9.24-15.34 1.76-1.63 4.1-3.19 4.55.32 1.58 12.27-3.98 19.48-13.06 26.41-.91.69-2.58 1.16-2.73 2.46-.13 1.19.14 3.12.32 4.36.65 4.59 1.95 10.27 3.33 14.71.19.6 1.38 4.03 1.7 4.03 1.9-2.97.96-7.13 1.23-10.51.41-5.13 4.64-14.02 8.33-17.62 1.3-1.27 3.1-2.41 3.83 0 .34 1.11.6 3.57.68 4.79.61 9.92-3.08 16.18-10.1 22.68-.64.6-3.24 2.37-3.29 3.01-.05.56 2.07 5.34 2.5 6.25 2.59 5.53 5.92 10.73 9.41 15.72l1.48 1.39c.39-4.5-2.54-8.44-3.25-12.73-.8-4.84.06-11.6 1.75-16.22.8-2.18 1.97-4.57 4.08-1.9 1.85 2.35 4.16 8.39 4.5 11.35.91 8.13-2.32 14.61-5.94 21.52l5.55 6.47c2.63 2.27 5 4.84 7.67 7.09.57.48 3.46 2.9 3.82 3.01.41.12.45-.03.4-.4-.37-2.87-4.57-7.31-5.94-10.18-2.03-4.28-3.17-12.19-2.5-16.84.73-5.09 2.48-4.06 5.3-.99s5.33 7.26 6.29 11.47c1.45 6.4.06 12.21-1.46 18.42 5.37 4.22 11.34 7.84 17.42 10.96 1.24.64 2.53 1.26 3.83 1.77.77-.83-2.99-4.51-3.68-5.2-.92-.92-2.09-1.65-3.02-2.72-3.66-4.23-6.56-11.76-6.97-17.34-.15-2.06-.47-4.22 2.22-3.58.72.17 2.72 1.56 3.4 2.06 9.28 7.01 10.96 16.28 10.22 27.47l.19.42c6.42 2.78 12.98 5.37 19.76 7.08.39-.37-1.31-2.03-1.63-2.33-2.17-1.96-5.05-3.32-7.25-5.32-3.48-3.16-6.74-8.97-8.13-13.45-2.03-6.51-.28-6.68 5.01-3.91 8.03 4.2 12.13 11.22 13.58 20.02.24 1.46.12 5.24 1.17 5.93.41.27 5.24 1.43 5.45 1.24-.73-3.07-4.88-4.88-3.95-8.18l4.51-5.33c.8-.5 1.64-.7 2.58-.71 1.78-.03 4.35.69 6.01.58 1.21-.08 2.77-1.13 4.37-1.13 3.16 0 6.56 4.83 6.43 7.8-.03.8-.22 2.42-.35 3.22-.18 1.08-.63 2.07-1.03 3.07 0 .46 3.41-.5 3.7-.95.42-1.91.43-3.88.75-5.8 1.5-8.82 5.36-15.45 13.4-19.66 5.24-2.74 7.18-3.02 5.11 3.75-1.61 5.25-5.26 11.34-9.59 14.72-1.73 1.35-3.79 2.38-5.45 3.84-.4.36-2.37 2.13-1.91 2.6 6.84-1.75 13.41-4.4 19.9-7.14-1.1-10.33.78-20.3 9.2-27 .73-.58 3.34-2.57 4.03-2.8 2.16-.74 2.64.04 2.68 2.11.07 4.83-3 13.46-5.91 17.33-1.82 2.42-4.8 4.35-6.66 6.72-.59.74-1.23 1.59-1.1 2.59 5.17-2.45 10.26-5.17 15.06-8.3 1.01-.66 5.69-3.69 5.92-4.46.3-1.02-1.01-4.67-1.25-6.02-1.55-8.64-.29-16.3 5.53-23.02.51-.59 2.68-2.83 3.22-3.07 2.23-.96 2.34.71 2.63 2.42.85 5.09-.13 13.09-2.37 17.78-.73 1.52-6.7 9.44-5.79 10.46l2.86-1.92c5.21-4.44 10.03-9.3 14.5-14.48l.09-.36c-3.4-5.91-6.57-12.41-6.25-19.44.16-3.54 1.74-7.94 3.41-11.07 1.55-2.91 3.12-5.35 5.06-.96 1.88 4.24 2.78 11.77 2.15 16.37-.47 3.44-2.34 6.66-3.06 10.05-.24 1.12-.65 2.13-.18 3.23.47-.23.88-.71 1.2-1.11 4.18-5.18 9.5-14.77 11.76-21.02.81-2.24-.61-2.06-2.05-3.4-6.08-5.69-10.64-11.13-11.19-19.95-.11-1.7.37-7.09.95-8.61 1.26-3.31 4.79 1.5 5.83 2.92 3.3 4.5 5.93 10.48 6.34 16.08.14 1.95-.18 4.24.02 6.24.11 1.06.54 2.14.79 3.17.46.09.56-.12.78-.45.45-.66 1.57-4.69 1.87-5.78 1.57-5.6 2.7-11.56 3.04-17.37-3.82-2.97-8.1-5.51-10.99-9.49-4.09-5.63-5.55-11.74-4.81-18.68.38-3.53 2.11-2.5 4.1-.83 3.24 2.72 7.53 8.97 8.87 12.98 1.23 3.68 1.02 7.55 1.91 11.21.2.84.35 1.78 1.24 2.18.76-9.31-.13-18.7-1.95-27.82-3.88-1.07-8.14-2.56-11.61-4.64-2.94-1.76-6.99-5.85-8.61-8.88-.91-1.7-3.24-8.14-3.2-9.86.04-1.83.88-2.31 2.51-1.74 5.09 1.78 12 7.72 14.62 12.42 1.16 2.07 3.63 9.59 5.38 10.46.55.27.35-.3.29-.57-1.81-8.41-5.31-16.53-9.16-24.17-5.21-.21-10.48-.16-15.38-2.1-5.61-2.22-10.14-6.62-12.91-11.95-1.41-2.72-1.42-4.16 2.19-3.83 5.06.46 13.52 4.39 17.08 8.05 1.66 1.7 4.78 6.59 6.8 7.4.22.09.75.3.83-.01-1.56-2.52-3.09-5.08-4.8-7.49-1.73-2.44-6-8.31-8.39-9.64-2.09-1.16-4.84-1.82-7.02-2.82-4.4-2.02-8.56-6.38-11.21-10.37-.76-1.14-3.02-4.84-2.99-6.03.07-2.25 5.5-.63 6.82-.26 6.47 1.84 11.63 6.05 14.8 11.97 1.14 2.12 1.87 5.16 3.05 7.06.79 1.27 2.25 2.46 3.17 3.66 2.98 3.85 5.85 7.88 8.21 12.15l.54-.13c-.92-3.68-3.59-6.73-4.72-10.3-1.57-4.96-1.69-13.31-.06-18.25.93-2.8 2.21-2.14 3.83-.28 8.27 9.53 7.15 21.21 2.32 32.08 3.99 7.69 7.09 15.81 9.29 24.2l.27-2.05c-2.33-8.5-1.65-16.8 2.41-24.64 1.66-3.21 3.43-5.11 5.18-.7 4.71 11.85.73 21.66-7.04 30.82.11 2.15.77 4.19 1.06 6.31.99 7.19.9 14.44.85 21.68.73.12.48-.12.62-.6 1.19-4.09.59-8.54 2.03-12.73 1.25-3.63 4.43-8.71 7.04-11.54 2.32-2.52 5.15-4.84 5.6.42.51 5.94-.44 11.34-3.5 16.44-2.95 4.91-7.6 8.02-12.01 11.48-.87 8.04-2.62 15.94-5.24 23.58.85-.2 1.1-.94 1.51-1.63 1.61-2.75 2.3-6.06 4-8.84 2.29-3.72 7.12-7.95 10.9-10.13 1.16-.67 5.31-3.14 5.71-.84.3 1.73-.96 5.91-1.62 7.66-3.58 9.43-12.23 14.11-21.52 16.58-3.18 8.4-7.83 16.07-12.9 23.43.51.12.65-.28.96-.54 3.11-2.61 4.95-6.52 8.35-9.13 2.58-1.98 6.7-3.97 9.81-4.94 2.68-.83 9.36-3.05 6.98 2.06-1.62 3.48-4.69 7.69-7.82 9.94-6.28 4.52-13.21 5.08-20.74 5.48-5.06 6.37-11.07 11.94-17.48 16.94.93.35 2.27-.53 3.09-1.01 1.96-1.14 3.59-2.93 5.4-4.16 4.48-3.06 12.48-4.87 17.84-4.49 2.8.2 5.56.64 3.04 3.8-4.78 5.98-12.75 9.98-20.49 9.56-3.65-.2-7.5-1.39-11.14-1.87-6.79 4.84-14.06 8.91-21.5 12.66 3.89.39 7.13-2.66 10.66-3.82 5.35-1.75 11.84-1.47 17.26-.07 3.3.85 4.98 1.93 1.72 4.57-9.91 8.01-21.82 6.17-32.23.28-6.4 2.85-13.01 5.35-19.81 7.1-.02.58-.12.52.41.54 3.76.19 7.15-1.76 10.73-2.39 4.96-.88 12.06.54 16.64 2.61.67.3 2.75 1.32 3.11 1.8 1.46 2-3.27 3.83-4.67 4.39-10.9 4.32-20.07.68-28.85-6.09-1.12.55-5.43 1.08-6.11 1.73-2.21 2.1 2.28 6.77 3.68 8.34 2.95 3.3 6.36 6.47 9.44 9.68l.28.83c-.09.92-2.49 1.47-3.29 1.66-2.12.5-7.69 1.58-9.4.37-.56-.39-1.39-2.39-1.77-3.15-1.31-2.61-2.38-5.42-3.76-7.99-.55-1.03-1.5-3.49-2.85-2.09-2.18 3.79-4.6 7.81-7.37 11.2-.87 1.07-1.53 2.33-3.1 2.31l-11.37-2.44c-.4-.37 1.32-2.03 1.63-2.33 4.2-4.06 9.11-7.72 13.4-11.74.83-.89 1.21-3.61.26-4.37s-6.33-1.16-7.74-2c-5.1 3.6-10.61 7.17-16.97 7.87-5.29.58-10.4-.71-15.07-3.23-3.24-1.75-1.85-3.21.82-4.47 4.65-2.21 12.41-3.78 17.47-2.88 3.65.65 7.3 2.75 11.13 2.39-.03-.31-.37-.49-.62-.6-2.34-1.06-6.13-1.8-8.74-2.74-3.54-1.27-7.04-2.76-10.49-4.24-9.14 4.67-18.13 7.42-27.86 2.44-1.21-.62-5.63-3.31-5.98-4.4-.61-1.9 1.47-2.4 2.94-2.82 5.21-1.51 12.53-1.81 17.7-.06 3.38 1.15 6.88 4.26 10.65 3.83-7.49-3.67-14.74-7.78-21.51-12.66-3.61.42-7.54 1.65-11.13 1.87-7.44.45-16.64-3.79-20.9-9.97-1-1.45-.83-2.72 1.02-3.08 5.63-1.11 14.89.78 19.72 3.92 2.1 1.36 6.09 5.27 8.36 5.58.53.07.43-.1.4-.54-.56-.1-1.06-.48-1.5-.83-5.83-4.7-11.06-10.07-15.99-15.7-7.95-.46-15.84-1.16-21.99-6.69-1.84-1.65-6.99-8.21-6.98-10.53 0-1.33 1.52-1.59 2.61-1.5 4.65.39 13.43 4.51 16.77 7.82 2.58 2.55 4.21 6.37 7.4 8.31.18-.21-.82-1.53-1.03-1.84-4.66-6.84-8.95-13.67-11.8-21.53-2.6-1.35-5.56-1.98-8.27-3.21-7.86-3.56-13.36-10.07-14.89-18.71-.38-2.18-.89-4.14 2.12-3.49 3.67.8 11.1 7.31 13.37 10.39 2.38 3.23 3.09 7.2 5.08 10.49.16.27 1.05 1.8 1.47 1.39-2.84-7.55-4.46-15.55-5.23-23.59-6.23-4.44-12.03-9.06-14.51-16.63-1.11-3.39-1.44-8.78-.95-12.3.67-4.81 4.54-.36 6.08 1.43 3.69 4.26 6.72 9.83 7.48 15.47.35 2.61.14 5.44 1 8.03.16.47.02.65.67.54-.86-9.25.14-18.64 1.92-27.73-5.61-7.31-10.41-14.56-8.99-24.28.28-1.9 1.43-6.42 2.37-8.01 2.15-3.65 4.31 1.17 5.3 3.29 2.1 4.52 3.63 10.63 3.23 15.62-.23 2.84-1.45 5.41-1.36 8.47 0 .33-.2 1.02.27.95 2.28-8.17 5-16.31 9.25-23.69-1.47-4.02-3.06-8.04-3.7-12.31-.96-6.34.71-12.25 4.18-17.52 1.28-1.95 4.01-6.45 5.59-2.36s1.42 13.76.07 18.13c-.91 2.93-2.89 5.44-4.04 8.25-.1.26-1.23 3.41-.14 2.46 2.21-4.26 5.21-8.36 8.2-12.15.82-1.04 2.3-2.31 2.96-3.33.78-1.21 1.32-3.41 1.99-4.84 3.99-8.43 10.43-14.36 20.06-15.45 3.08-.35 2.95.95 1.98 3.35C89.8 58.96 84.18 65.26 80 67.69c-2.81 1.63-6.01 2.28-8.73 3.83-3.5 2-10.65 12.41-12.76 16.19-.2.35-.53.6-.44 1.06Zm92.33 139.33v4.23c0 .57 1.53 2.73 2.08 2.85.61.14 1.22-1.23 1.22-1.76-.01-1-.85-1.05-1.06-1.69s.02-1.57-.49-2.25c-.29-.39-1.34-.94-1.76-1.38Zm-8.41 4.58c.86.88 1.81-.55 2.22-.46.47.1.9 1.38 2.36.66.61-.3.9-2.48.62-3.07-.71-1.5-2.04-.54-2.89-.66-.69-.1-1.11-1.18-2.11-.65s-.83 3.55-.21 4.18Zm-1.7 6.07c-.14-.86.41-1.68.23-2.53-.2-.98-1.47-1.5-1.75-2.37s.3-4.65-.8-4.39c-1.91 3.3-3.97 3.45-1.07 7.08.8 1 2.01 2.39 3.39 2.21m5.46-.55c.13-.75-.17-2.46-1.23-2.18-.5.13-.28.46-.21.75.19.76.46 1.64 1.44 1.44Zm2.23 4.43c-.62.43-1.08 3.22.08 3.23 2.48.03 1.56-4.37-.08-3.23m-4.41 1.31c1.07 0 1.09-1.08 0-1.09z" class="st11"/>
</svg>
