<?xml version="1.0" encoding="UTF-8" standalone="no"?>
<svg
   xmlns:dc="http://purl.org/dc/elements/1.1/"
   xmlns:cc="http://creativecommons.org/ns#"
   xmlns:rdf="http://www.w3.org/1999/02/22-rdf-syntax-ns#"
   xmlns:svg="http://www.w3.org/2000/svg"
   xmlns="http://www.w3.org/2000/svg"
   xmlns:sodipodi="http://sodipodi.sourceforge.net/DTD/sodipodi-0.dtd"
   xmlns:inkscape="http://www.inkscape.org/namespaces/inkscape"
   width="290pt"
   version="1.1"
   height="350.302pt"
   viewBox="0 0 290 350.302"
   id="svg3058"
   inkscape:version="0.48.4 r9939"
   sodipodi:docname="Emblem of the state of Pahang.svg">
  <metadata
     id="metadata3129">
    <rdf:RDF>
      <cc:Work
         rdf:about="">
        <dc:format>image/svg+xml</dc:format>
        <dc:type
           rdf:resource="http://purl.org/dc/dcmitype/StillImage" />
        <dc:title>State of Pahang Emblem</dc:title>
      </cc:Work>
    </rdf:RDF>
  </metadata>
  <sodipodi:namedview
     pagecolor="#ffffff"
     bordercolor="#666666"
     borderopacity="1"
     objecttolerance="10"
     gridtolerance="10"
     guidetolerance="10"
     inkscape:pageopacity="0"
     inkscape:pageshadow="2"
     inkscape:window-width="1024"
     inkscape:window-height="538"
     id="namedview3127"
     showgrid="false"
     inkscape:zoom="1.077927"
     inkscape:cx="168.45319"
     inkscape:cy="135.5817"
     inkscape:window-x="-8"
     inkscape:window-y="-8"
     inkscape:window-maximized="1"
     inkscape:current-layer="svg3058" />
  <title
     id="title3060">State of Pahang Emblem</title>
  <defs
     id="defs3062">
    <clipPath
       id="Clip0">
      <path
         d="M0 0 L298.782 0 L298.782 349.172 L0 349.172 L0 0 Z"
         transform="translate(-4.3906, 1.6245)"
         id="path3065" />
    </clipPath>
    <clipPath
       id="Clip1">
      <path
         d="M0 0 L298.782 0 L298.782 80.6963 L0 80.6963 L0 0 Z"
         transform="translate(-4.3906, 270.101)"
         id="path3068" />
    </clipPath>
  </defs>
  <g
     id="1">
    <g
       id="Group2"
       clip-path="url(#Clip0)">
      <path
         style="fill:#ffffff;fill-rule:nonzero;stroke:#161413;stroke-width:2;stroke-linecap:butt;stroke-linejoin:miter;stroke-dasharray:none"
         d="M8.8013 7.0782 L11.4985 0 L14.521 7.0782 C14.521 7.0782 12.1392 16.3267 15.4185 18.4351 C15.4185 18.4351 19.9077 19.2574 19.9077 23.2393 C19.9077 23.2393 19.9087 26.0498 17.0972 26.0498 L17.0972 29.7549 C17.0972 29.7549 22.8355 33.9673 17.0933 37.0586 L17.0933 45.7246 C17.0933 45.7246 23.3218 50.1841 17.0972 54.1568 L16.8921 148.782 C16.8921 148.782 22.3843 152.198 17.5659 156.512 C17.5659 156.512 18.0308 159.835 14.7544 160.729 L8.5674 160.729 C5.2915 159.835 5.7564 156.512 5.7564 156.512 C0.9375 152.198 6.4302 148.782 6.4302 148.782 L6.2246 54.1568 C0 50.1841 6.229 45.7246 6.229 45.7246 L6.229 37.0586 C0.4868 33.9673 6.2246 29.7549 6.2246 29.7549 L6.2246 26.0498 C3.4136 26.0498 3.4141 23.2393 3.4141 23.2393 C3.4141 19.2574 7.9038 18.4351 7.9038 18.4351 C11.1831 16.3267 8.8013 7.0782 8.8013 7.0782 "
         transform="translate(133.52, 117.099)"
         id="path3072" />
      <path
         style="fill:#ffec00; fill-rule:nonzero;stroke:#161413; stroke-width:2; stroke-linecap:butt; stroke-linejoin:miter; stroke-dasharray:none;"
         d="M0 2.6929 C0 2.6929 5.8413 0 11.6284 2.9062 "
         transform="translate(139.489, 144.334)"
         id="path3074" />
      <path
         style="fill:#ffec00; fill-rule:nonzero;stroke:#161413; stroke-width:2; stroke-linecap:butt; stroke-linejoin:miter; stroke-dasharray:none;"
         d="M0 2.1289 C0 2.1289 4.7255 0 11.6284 2.3423 "
         transform="translate(139.489, 152.118)"
         id="path3076" />
      <path
         style="fill:#ffec00; fill-rule:nonzero;stroke:#161413; stroke-width:2; stroke-linecap:butt; stroke-linejoin:miter; stroke-dasharray:none;"
         d="M0 1.2944 C0 1.2944 5.6768 0 10.5596 1.2944 "
         transform="translate(139.859, 142.03)"
         id="path3078" />
      <path
         style="fill:#ffec00; fill-rule:nonzero;stroke:#161413; stroke-width:2; stroke-linecap:butt; stroke-linejoin:miter; stroke-dasharray:none;"
         d="M0 0 C0 0 4.8764 2.3257 12.7045 0.1928 "
         transform="translate(138.719, 170.539)"
         id="path3080" />
      <path
         style="fill:none;stroke:#161413; stroke-width:2; stroke-linecap:butt; stroke-linejoin:miter; stroke-dasharray:none;"
         d="M0 3.0361 C0 3.0361 6.8526 0 12.9874 3.3735 "
         transform="translate(138.815, 160.575)"
         id="path3082" />
      <path
         style="fill:none;stroke:#161413; stroke-width:2; stroke-linecap:butt; stroke-linejoin:miter; stroke-dasharray:none;"
         d="M0 3.0576 C0 3.0576 5.4712 0 10.3071 3.2461 "
         transform="translate(140.18, 262.671)"
         id="path3084" />
      <path
         style="fill:none;stroke:#161413; stroke-width:2; stroke-linecap:butt; stroke-linejoin:miter; stroke-dasharray:none;"
         d="M0 5.9092 C0 5.9092 5.228 0 11.7128 5.836 "
         transform="translate(139.302, 267.221)"
         id="path3086" />
      <g
         id="Group1"
         clip-path="url(#Clip1)">
        <path
           style="fill:#ffffff;fill-rule:nonzero;stroke:#161413;stroke-width:2;stroke-linecap:butt;stroke-linejoin:miter;stroke-dasharray:none"
           d="M148.372 70.2725 C133.718 70.1846 124.96 78.1816 124.96 78.1816 C74.7104 75.8682 40.0205 58.9893 40.0205 58.9893 C41.5898 43.6182 30.3725 40.0391 30.3725 40.0391 C14.6821 34.3066 9.8262 48.6455 9.8262 48.6455 C0 39.5049 6.4975 29.459 6.4975 29.459 L14.0776 16.8828 C14.0776 16.8828 14.0776 16.8828 19.7627 8.4414 C25.4482 0 39.9189 6.8916 39.9189 6.8916 C63.6992 16.5957 51.2895 33.4219 51.2895 33.4219 C89.7466 51.1934 131.129 52.0928 131.129 52.0928 C119.387 27.9336 148.372 29.7168 148.372 29.7168 L148.41 29.7178 C148.41 29.7178 177.99 27.291 165.653 52.0937 C165.653 52.0937 207.035 51.1953 245.492 33.4228 C245.492 33.4228 233.083 16.5977 256.863 6.8926 C256.863 6.8926 271.334 0.0019 277.018 8.4434 C282.704 16.8848 282.704 16.8848 282.704 16.8848 L290.284 29.4609 C290.284 29.4609 296.782 39.5059 286.955 48.6465 C286.955 48.6465 282.099 34.3076 266.409 40.041 C266.409 40.041 255.192 43.6201 256.761 58.9912 C256.761 58.9912 222.071 75.8701 171.821 78.1836 C171.821 78.1836 163.064 70.1865 148.41 70.2734 L148.372 70.2725 Z"
           transform="translate(-3.3906, 271.101)"
           id="path3089" />
        <path
           style="fill:#ffffff;fill-rule:nonzero;stroke:#161413;stroke-width:2;stroke-linecap:butt;stroke-linejoin:miter;stroke-dasharray:none"
           d="M9.731 0 C9.731 0 6.5659 5.2969 14.438 11.4971 L0 39.2041 "
           transform="translate(7.1787, 278.828)"
           id="path3091" />
        <path
           style="fill:#ffffff; fill-rule:nonzero;stroke:#161413; stroke-width:2; stroke-linecap:butt; stroke-linejoin:miter; stroke-dasharray:none;"
           d="M10.8462 0 L0 25.0332 "
           transform="translate(36.6299, 305.057)"
           id="path3093" />
        <path
           style="fill:#ffffff;fill-rule:nonzero;stroke:#161413;stroke-width:2;stroke-linecap:butt;stroke-linejoin:miter;stroke-dasharray:none"
           d="M0 27.1846 L8.4282 1.9659 L6.7754 0 "
           transform="translate(120.541, 322.611)"
           id="path3095" />
        <path
           style="fill:#ffffff; fill-rule:nonzero;stroke:#161413; stroke-width:2; stroke-linecap:butt; stroke-linejoin:miter; stroke-dasharray:none;"
           d="M0 0 L10.8467 25.0332 "
           transform="translate(242.524, 305.059)"
           id="path3097" />
        <path
           style="fill:#ffffff;fill-rule:nonzero;stroke:#161413;stroke-width:2;stroke-linecap:butt;stroke-linejoin:miter;stroke-dasharray:none"
           d="M8.4287 27.1846 L0 1.9668 L1.6523 0 "
           transform="translate(161.031, 322.612)"
           id="path3099" />
        <path
           style="fill:#ffffff;fill-rule:nonzero;stroke:#161413;stroke-width:2;stroke-linecap:butt;stroke-linejoin:miter;stroke-dasharray:none"
           d="M4.707 0 C4.707 0 7.8721 5.2979 0 11.4981 L14.4385 39.2041 "
           transform="translate(268.383, 278.829)"
           id="path3101" />
      </g>
      <path
         style="fill:#161413; fill-rule:nonzero;stroke:none;"
         d="M207.381 6.9687 C207.381 6.9687 203.132 6.8388 203.132 11.6509 C203.132 11.6509 203.014 13.2807 204.086 14.9458 C204.086 14.9458 209.814 22.6504 200.965 23.6596 C200.965 23.6596 193.508 24.9165 194.245 20.2778 C194.245 20.2778 194.462 18.3701 194.982 17.1133 C194.982 17.1133 195.458 15.6826 194.635 16.2026 C194.635 16.2026 192.772 17.4165 192.555 20.7549 C192.555 20.7549 191.947 25.5234 196.803 26.5205 C196.803 26.5205 207.814 28.3847 208.725 19.4975 C208.725 19.4975 208.808 16.5805 206.817 14.0351 C206.817 14.0351 204.299 10.4853 207.901 10.1333 C207.901 10.1333 209.311 10.0571 210.198 11.5644 C210.198 11.5644 210.772 12.8779 211.239 12.1709 C211.239 12.1709 212.28 6.9687 207.381 6.9687 Z M174.763 5.9238 C174.763 5.9238 173.67 5.5385 173.863 10.4863 C174.056 15.4341 174.056 15.4341 174.056 15.4341 L174.249 20.125 C174.249 20.125 174.601 23.145 169.991 22.9682 C169.991 22.9682 163.261 23.3056 163.71 18.5825 C163.71 18.5825 163.647 16.5903 166.216 14.9839 C166.216 14.9839 164.891 13.7954 163.324 15.3696 C163.324 15.3696 159.084 19.9399 162.811 23.5947 C162.811 23.5947 165.012 25.9883 170.2 25.8437 C170.2 25.8437 176.843 25.9643 176.69 20.4463 C176.518 14.2138 176.561 14.2129 176.561 14.2129 C176.561 14.2129 176.434 12.1084 177.525 12.0283 C177.525 12.0283 179.967 12.0923 177.782 8.8799 C177.782 8.8799 176.134 5.9853 174.763 5.9238 Z M186.818 2.5903 C186.818 2.5903 184.65 0 184.786 4.2529 C184.786 4.2529 184.98 23.6587 186.136 24.8154 C186.136 24.8154 187.678 27.1289 188.063 9.9717 C188.063 9.9717 187.987 8.1567 189.027 8.1084 C189.027 8.1084 191.47 8.2368 190.12 6.5664 L186.818 2.5903 Z M199.822 29.4419 L198.666 28.0927 L196.546 30.2773 L198.601 32.3335 L200.851 30.2129 L202.008 31.4341 L204.128 29.5063 L202.136 27.3857 L199.822 29.4419 Z M11.4673 18.9033 C8.6093 18.937 8.6338 21.5019 8.6338 21.5019 C8.6338 24.3974 11.0703 24.8071 11.0703 24.8071 C7.9077 29.2456 1.5327 24.1831 1.5327 24.1831 C0 22.8774 0.7378 24.8642 0.7378 24.8642 C2.7817 28.6108 6.4717 28.8379 6.4717 28.8379 C14.0781 29.7051 14.2495 22.1958 14.2495 22.1958 C14.2495 18.7324 11.4673 18.9033 11.4673 18.9033 Z M11.5244 15.7236 L13.2275 18.0512 L15.5551 16.4619 L13.7949 14.0205 L11.5244 15.7236 Z M46.0952 18.3789 C43.5449 11.5322 45.9536 9.0293 45.9536 9.0293 C47.2539 7.8393 45.1982 6.7627 45.1982 6.7627 C45.1982 6.7627 45.1982 6.7627 44.5844 6.3847 C43.9702 6.0068 44.1123 6.7153 44.1123 6.7153 C41.0429 11.626 42.9316 17.4345 42.9316 17.4345 C44.0649 21.165 43.5454 25.3203 43.5454 25.3203 L43.4843 25.7343 C42.4458 25.3091 40.3799 25.1416 40.3799 25.1416 C38.3965 24.9995 38.3037 25.9814 38.3037 25.9814 C38.3037 26.7842 39.9848 27.2055 39.9848 27.2055 C41.3066 27.6303 42.1289 28.1533 42.1289 28.1533 C45.4809 30.2309 47.4648 29.9956 47.4648 29.9956 C53.7509 29.8442 54.2173 24.5176 54.2173 24.5176 C54.9726 17.3398 46.0952 18.3789 46.0952 18.3789 Z M51.8091 23.7617 C51.7226 27.1338 47.8896 27.5869 47.8896 27.5869 C45.6743 27.8701 45.812 25.7456 45.812 25.7456 L45.812 22.8178 C45.7998 20.8701 48.4565 21.2593 48.4565 21.2593 C51.9975 21.7783 51.8091 23.7617 51.8091 23.7617 Z M28.5766 31.6748 L27.4199 30.1328 L25.0586 31.8677 L26.7451 34.2773 L29.2031 32.5425 L30.3598 33.9883 L32.625 32.1572 L30.938 29.7954 L28.5766 31.6748 Z M33.7763 10.5595 C33.7763 10.5595 29.7724 10.3608 29.5278 15.2417 C29.5278 15.2417 29.2524 17.6772 30.3886 19.3271 C30.3886 19.3271 36.6059 26.8877 27.5532 26.4516 C27.5532 26.4516 20.0986 26.6885 21.3681 21.4199 C21.3681 21.4199 21.8174 19.7446 22.3379 18.4873 C22.3379 18.4873 23.2744 16.6767 21.9907 17.5771 C21.9907 17.5771 20.2988 19.0947 19.6938 22.2568 C19.6938 22.2568 18.5952 27.6006 23.3847 28.8559 C23.3847 28.8559 35.7827 32.0215 35.1201 23.0884 C35.1201 23.0884 35.0835 21.874 34.0434 20.2026 C33.6924 19.6382 33.3008 19.2002 32.7436 18.4941 C32.7436 18.4941 31.7783 17.1572 32.0268 15.709 C32.1914 14.7514 32.6216 13.8047 34.2949 13.6079 C34.2949 13.6079 36.1933 13.5434 36.8984 14.7236 C36.8984 14.7236 37.3174 15.6538 37.7822 15.2817 C37.7822 15.2817 38.2007 10.6318 33.7763 10.5595 Z"
         transform="translate(40.1265, 71.7432)"
         id="path3103" />
      <path
         style="fill:none;stroke:#161413; stroke-width:2; stroke-linecap:butt; stroke-linejoin:miter; stroke-dasharray:none;"
         d="M0 0.6196 C0 0.6196 4.8843 0 7.5405 0.7295 "
         transform="translate(141.583, 134.855)"
         id="path3105" />
      <path
         style="fill:#161413; fill-rule:nonzero;stroke:none;"
         d="M250.594 8.7149 L249.486 10.1915 C249.486 10.1915 251.211 10.7989 249.265 12.4073 C249.265 12.4073 247.856 13.9463 246.829 11.9874 C246.829 11.9874 246.053 10.8252 244.833 10.2657 C244.833 10.2657 243.8 9.7481 244.612 8.419 C245.425 7.0899 245.425 7.0899 245.425 7.0899 C245.425 7.0899 247.616 3.6016 248.6 2.7325 C248.6 2.7325 248.304 0.8125 248.083 0 C248.083 0 244.537 5.17 243.06 8.5674 C243.06 8.5674 242.347 10.1075 243.356 11.004 C244.178 11.7325 244.169 11.7422 244.169 11.7422 C244.169 11.7422 245.672 12.71 244.242 14.1797 C244.242 14.1797 242.914 16.1739 240.402 14.8448 L240.402 16.7627 C240.402 16.7627 240.59 16.7852 241.033 16.8584 C241.477 16.9327 241.477 16.9327 241.477 16.9327 C241.477 16.9327 244.908 17.5772 238.408 22.5987 L240.846 22.6729 C240.846 22.6729 246.015 21.1211 243.06 16.9122 C243.06 16.9122 245.202 16.2481 245.941 13.294 C245.941 13.294 247.841 15.3282 249.634 13.8838 L251.118 12.3409 C251.118 12.3409 252.572 10.7725 250.594 8.7149 Z M235.107 22.504 L234.165 21.9278 L233.092 23.4854 L234.531 24.5723 L235.602 23.042 L236.71 23.7071 L237.744 22.3038 L236.119 21.1221 L235.107 22.504 Z M239.073 16.1739 C239.073 16.1739 238.818 15.5284 237.227 15.9532 C237.227 15.9532 234.984 16.503 236.267 14.6231 C236.267 14.6231 237.079 13.294 237.596 14.254 C237.596 14.254 238.412 16.0704 238.557 13.7364 C238.557 13.7364 237.448 10.4883 235.75 12.9991 C235.75 12.9991 232.279 18.2422 236.488 17.3555 C236.488 17.3555 238.261 17.1348 236.636 18.168 C236.636 18.168 228.364 23.1905 231.614 15.0665 C231.614 15.0665 228.836 16.8018 229.694 19.5713 C229.694 19.5713 230.656 23.1319 235.233 20.9747 C235.233 20.9747 240.188 18.419 239.073 16.1739 Z M242.695 7.7266 L241.142 6.5733 L240.15 7.9727 L241.436 9.1583 L242.695 7.7266 Z M246.31 8.2725 L247.784 9.4502 L248.895 8.0508 L247.414 6.7833 L246.31 8.2725 Z M15.9355 2.7823 L15.8711 1.0479 L14.0078 1.1114 L14.1362 2.8467 L15.9355 2.7823 Z M14.0722 4.3887 L14.1045 5.3047 L15.9355 5.2237 L15.8071 3.3604 L13.8149 3.4004 L13.7505 2.461 L11.8227 2.5899 L11.9355 4.3887 L14.0722 4.3887 Z M27.9687 8.667 L27.9424 6.8311 L26.1069 6.8838 L26.164 8.628 L27.9687 8.667 Z M25.7924 10.9483 L27.7329 10.9747 L27.7065 9.0606 L25.6352 9.0342 L25.5708 8.0948 L23.7456 8.1368 L23.7212 9.8995 L25.7924 9.8995 L25.7924 10.9483 Z M24.1606 11.9073 C20.0478 14.3487 23.6465 16.084 23.6465 16.084 C20.8193 18.0762 18.5698 14.4131 18.5698 14.4131 C21.3974 9.2081 18.3774 8.9512 18.3774 8.9512 C16.3852 9.0801 16.5136 12.9991 16.5136 12.9991 C11.6948 13.0645 12.9155 9.1436 12.9155 9.1436 C13.2246 8.2686 15.1001 9.2725 15.1001 9.2725 C15.9233 9.8467 16.2568 9.2725 16.2568 9.2725 C16.7788 8.6299 16.1928 7.9874 16.1928 7.9874 C14.3296 5.4815 9.6386 6.252 9.6386 6.252 C8.2851 6.5088 8.7387 7.4727 8.7387 7.4727 C8.9316 8.1153 9.3169 8.1153 9.3169 8.1153 C11.1801 7.7295 10.4096 8.501 10.4096 8.501 C0 10.5567 5.3974 17.4336 5.3974 17.4336 C8.0508 20.4249 12.0156 16.4698 12.0156 16.4698 C8.8027 18.2041 7.2607 16.1475 7.2607 16.1475 C3.5981 10.879 11.5019 9.4649 11.5019 9.4649 C10.3452 15.4405 16.0639 14.2198 16.0639 14.2198 C12.6582 17.9473 14.2007 18.5254 14.2007 18.5254 C18.1845 18.7823 17.542 15.377 17.542 15.377 C19.5341 18.5899 23.7749 17.9473 23.7749 17.9473 C27.7588 17.1758 26.0883 12.9991 26.0883 12.9991 C25.4057 11.2081 24.1606 11.9073 24.1606 11.9073 Z M11.6303 7.1514 C11.6303 7.1514 13.9956 6.8829 13.5581 7.8584 C13.5581 7.8584 11.8755 8.377 11.6303 7.1514 Z M15.4218 17.4336 C14.7822 16.4629 16.7065 15.1202 16.7065 15.1202 C17.2851 17.8838 15.4218 17.4336 15.4218 17.4336 Z M17.7343 13.0811 C17.7343 13.0811 16.9653 11.0518 18.249 10.9434 C18.249 10.9434 20.0092 11.4512 17.7343 13.0811 Z M23.6255 14.5938 C23.6255 14.5938 23.1303 14.1895 23.791 13.6543 C23.791 13.6543 25.1333 12.3399 25.2436 14.8819 C25.2436 14.8819 24.3437 15.3116 23.6255 14.5938 Z M44.7885 30.251 L44.937 29.8877 L40.5752 28.1084 L40.4272 28.4708 C41.6499 29.0821 42.1074 29.4473 41.2104 31.6456 L38.6045 38.0303 L38.5674 38.0157 L35.2114 25.919 L32.0376 24.6241 L31.8891 24.9864 C32.6313 25.2901 32.8896 25.5069 33.2602 26.7725 L29.8198 35.2041 C28.9775 37.2686 28.4707 37.3965 27.021 36.9161 L26.873 37.2793 L31.2348 39.0596 L31.3828 38.6963 C30.0512 38.086 29.833 37.5069 30.6367 35.5372 L33.6792 28.0821 L33.7163 28.0967 L37.6079 41.9053 L37.9233 42.0342 L42.0268 31.9786 C42.9394 29.7422 43.5649 29.9083 44.7885 30.251 Z M45.5146 30.3887 C46.6948 30.8497 47.1201 31.1065 46.6528 32.669 L44.0244 41.4522 C43.5683 42.9747 43.0732 43.0206 41.8208 42.7325 L41.708 43.1084 L52.0791 46.211 L53.9433 43.127 L53.4057 42.9668 C51.9629 44.711 50.8252 45.0176 48.4243 44.2989 C45.5625 43.4424 45.5688 43.4229 45.8115 42.6124 L47.2798 37.7061 L50.2256 38.6309 C51.8134 39.128 52.0185 39.4903 51.7754 41.1416 L52.2173 41.2745 L53.5908 36.6846 L53.1489 36.5528 C52.5171 37.8946 52.1831 38.3116 50.4736 37.7999 L47.5166 36.9141 L48.8305 32.5235 C49.0317 31.8516 49.2622 31.92 49.6655 32.0401 L52.2583 32.8165 C54.3901 33.4541 54.7949 33.9209 54.5561 35.7666 L55.0361 35.9112 L55.8247 33.0655 L45.6269 30.0127 L45.5146 30.3887 Z M69.8603 42.9209 L64.8774 41.7793 L64.7944 42.1416 C66.1001 42.5459 66.4863 42.6563 66.104 44.3262 L65.3574 47.587 C65.1914 48.3125 63.7373 48.4659 62.4087 48.1622 C59.3799 47.4688 57.8681 44.7286 58.7021 41.086 C59.8676 35.9932 63.0307 35.3838 64.8872 35.8086 C67.6225 36.4346 68.1831 38.6602 68.3789 40.2305 L68.8281 40.3321 L69.644 36.0499 L69.2143 35.9512 C68.9677 36.4883 68.3003 36.4415 68.144 36.4053 C67.5185 36.2627 66.7715 35.3926 64.7978 34.9405 C60.6552 33.9922 57.3452 36.7725 56.5713 40.1534 C55.9677 42.7901 56.2817 44.1124 57.0503 45.5166 C58.083 47.3838 60.1137 48.4844 62.0483 48.9268 C64.1982 49.419 67.0639 48.8467 67.1289 48.5645 L68.0551 44.5196 C68.3818 43.0899 68.8989 43.1661 69.7773 43.2833 L69.8603 42.9209 Z M72.02 37.2295 C73.2461 37.5489 73.6987 37.753 73.4174 39.3604 L71.8369 48.3907 C71.5634 49.9571 71.0766 50.0606 69.7988 49.9209 L69.7309 50.3067 L80.3945 52.1729 L81.8842 48.8916 L81.332 48.795 C80.103 50.6973 79.0092 51.1348 76.5405 50.7022 C73.5986 50.1875 73.602 50.167 73.748 49.3331 L74.6308 44.2891 L77.6645 44.8624 C79.3003 45.169 79.5464 45.5059 79.4985 47.1749 L79.9526 47.254 L80.7788 42.5352 L80.3242 42.4561 C79.8545 43.8624 79.5717 44.3155 77.8139 44.0079 L74.7734 43.4756 L75.5634 38.961 C75.6845 38.2686 75.9214 38.3106 76.3359 38.3829 L79.0019 38.8487 C81.1938 39.2334 81.6504 39.6485 81.6294 41.5098 L82.123 41.5967 L82.5732 38.6778 L72.0879 36.8428 L72.02 37.2295 Z M94.0014 52.6719 L90.5918 46.9522 C91.6323 46.8819 94.2807 46.7315 94.643 43.9883 C95.06 40.836 91.8374 39.9737 90.0688 39.7393 L84.5835 39.0137 L84.5322 39.4034 C85.9043 39.7305 86.1782 39.9541 85.978 41.4688 L84.8066 50.3321 C84.6035 51.8672 84.4673 52.2872 82.8437 52.1758 L82.7924 52.5655 L88.2973 53.293 L88.3491 52.9043 C86.77 52.6124 86.6225 52.1973 86.8042 50.8252 L87.3369 46.793 L88.4555 46.8985 L92.352 53.8291 L95.5517 54.251 L95.603 53.8624 C94.7934 53.7149 94.3652 53.2833 94.0014 52.6719 Z M87.437 46.0352 L88.1025 41 C88.1806 40.4063 88.3789 40.2862 89.4321 40.4258 C90.247 40.5333 92.8423 40.9385 92.4824 43.6612 C92.0952 46.5889 89.1089 46.2354 87.437 46.0352 Z M98.1909 41.1397 C99.8374 41.3916 100.092 41.667 99.936 43.1875 L99 52.3067 C98.8506 53.7657 98.5752 54.0899 96.8759 53.9571 L96.8359 54.3477 L102.759 54.9551 L102.799 54.5645 C101.328 54.3721 100.87 54.1182 101.034 52.5157 L101.97 43.3956 C102.139 41.753 102.651 41.6602 104.114 41.7471 L104.154 41.3575 L98.2309 40.75 L98.1909 41.1397 Z M162.026 44.4375 C161.764 41.8272 159.181 40.9874 156.429 41.2637 L151.162 41.793 L151.201 42.1846 C152.672 42.1817 152.916 42.4053 153.063 43.8653 L153.957 52.7608 C154.106 54.2403 154.153 54.7129 152.49 55.004 L152.529 55.3956 L158.115 54.8331 L158.076 54.4434 C156.535 54.5567 156.166 54.2823 156.015 52.7823 L155.639 49.043 C156.122 49.0362 156.503 49.0186 156.981 48.9708 C159.076 48.7598 160.315 48.2618 161.088 47.3331 C161.395 46.9708 162.188 46.0401 162.026 44.4375 Z M156.759 48.1622 C156.34 48.2041 155.938 48.2247 155.557 48.2208 L155.019 42.879 C154.951 42.2012 155.168 42.1583 155.767 42.0987 C156.645 42.0098 159.56 41.7588 159.856 44.6963 C160.17 47.8194 157.497 48.0889 156.759 48.1622 Z M173.246 50.6709 L166.653 39.7608 L166.257 39.8174 L163.555 50.4415 C163.306 51.3956 162.902 52.9747 162.519 53.5508 C162.217 53.9903 161.886 54.0791 161.57 54.1446 L161.626 54.5333 L165.556 53.9747 L165.501 53.586 C165.084 53.6456 164.15 53.7774 164.028 52.919 C163.997 52.6944 164.016 52.3995 164.077 52.1192 L164.649 49.5987 L169.851 48.8594 L170.943 50.7061 C171.103 50.9747 171.457 51.6133 171.503 51.9405 C171.61 52.6973 170.959 52.8096 170.225 52.9151 L170.279 53.3028 L175.341 52.5831 L175.285 52.1954 C174.403 52.2579 174.094 52.0733 173.246 50.6709 Z M164.868 48.712 L166.352 42.7657 L169.453 48.0596 L164.868 48.712 Z M187.314 48.0079 L185.586 39.004 C185.309 37.5635 185.496 37.2549 186.969 36.8458 L186.895 36.461 L181.421 37.5118 L181.495 37.8965 C182.976 37.7393 183.29 37.8887 183.578 39.3887 L184.333 43.3233 L178.367 44.4688 L177.612 40.5342 C177.336 39.0948 177.521 38.7862 178.995 38.377 L178.92 37.9913 L173.447 39.042 L173.521 39.4278 C175.002 39.2696 175.316 39.419 175.603 40.92 L177.29 49.7012 C177.581 51.2217 177.588 51.6827 175.95 52.0821 L176.024 52.4678 L181.498 51.4161 L181.423 51.0313 C179.868 51.2247 179.598 50.877 179.341 49.5381 L178.538 45.3614 L184.505 44.2159 L185.264 48.17 C185.555 49.6915 185.563 50.1524 183.924 50.5508 L183.998 50.9366 L189.472 49.8858 L189.397 49.5 C187.842 49.6944 187.571 49.3458 187.314 48.0079 Z M201.298 44.7657 L193.664 34.5577 L193.274 34.6524 L191.631 45.4922 C191.477 46.4649 191.23 48.0762 190.905 48.6875 C190.647 49.1553 190.326 49.2754 190.02 49.3721 L190.113 49.753 L193.969 48.8106 L193.876 48.4288 C193.467 48.5293 192.552 48.753 192.346 47.9102 C192.292 47.6895 192.281 47.3956 192.314 47.1104 L192.638 44.544 L197.739 43.2969 L199.009 45.0274 C199.194 45.2803 199.609 45.8799 199.688 46.2012 C199.869 46.9434 199.231 47.1202 198.511 47.2969 L198.604 47.6778 L203.569 46.4639 L203.477 46.0821 C202.604 46.2315 202.279 46.0782 201.298 44.7657 Z M192.767 43.6416 L193.658 37.5772 L197.266 42.5411 L192.767 43.6416 Z M213.536 29.5791 L213.422 29.2041 L208.914 30.5752 L209.029 30.9502 C210.363 30.6524 210.948 30.6475 211.64 32.919 L213.647 39.5166 L213.608 39.5293 L203.371 32.2618 L200.092 33.2598 L200.207 33.6348 C200.973 33.4014 201.31 33.4063 202.397 34.1553 L205.048 42.8672 C205.697 45.001 205.385 45.42 203.957 45.962 L204.071 46.337 L208.578 44.9659 L208.464 44.5909 C207.046 44.9571 206.511 44.6446 205.892 42.6104 L203.548 34.9063 L203.586 34.8946 L215.319 43.1524 L215.645 43.0538 L212.483 32.6622 C211.78 30.3506 212.37 30.085 213.536 29.5791 Z M228.617 30.6817 L228.486 30.334 L223.702 32.1358 L223.833 32.4834 C225.145 32.0997 225.527 31.9776 226.132 33.5821 L227.31 36.712 C227.572 37.4083 226.445 38.3399 225.17 38.8204 C222.262 39.9151 219.488 38.4668 218.171 34.9688 C216.329 30.0801 218.629 27.8243 220.411 27.1524 C223.038 26.1631 224.733 27.709 225.765 28.9102 L226.196 28.7471 L224.51 24.7266 L224.098 24.8809 C224.188 25.4649 223.606 25.795 223.456 25.8516 C222.855 26.0772 221.753 25.7647 219.857 26.4786 C215.88 27.9766 214.657 32.1221 215.879 35.3682 C216.832 37.9004 217.825 38.8291 219.241 39.5752 C221.134 40.5606 223.434 40.3565 225.292 39.6573 C227.355 38.8799 229.429 36.8194 229.327 36.5489 L227.864 32.6641 C227.348 31.293 227.821 31.0694 228.617 30.6817 Z"
         transform="translate(17.2974, 287.898)"
         id="path3107" />
      <path
         style="fill:#ffffff;fill-rule:nonzero;stroke:#161413;stroke-width:2;stroke-linecap:butt;stroke-linejoin:miter;stroke-dasharray:none"
         d="M47.27 116.871 L49.5992 121.289 C60.9878 141.065 81.2427 132.2 81.2427 132.2 C94.5406 126.403 93.146 111.308 93.146 111.308 L47.27 0 L1.395 111.308 C1.395 111.308 0 126.403 13.2979 132.2 C13.2979 132.2 33.5523 141.065 44.9409 121.289 L47.27 116.871 Z"
         transform="translate(97.749, 2.6245)"
         id="path3109" />
      <path
         style="fill:#ffffff;fill-rule:nonzero;stroke:#161413;stroke-width:2;stroke-linecap:butt;stroke-linejoin:miter;stroke-dasharray:none"
         d="M6.5014 3.25 C6.5014 5.0459 5.0454 6.501 3.2514 6.501 C1.456 6.501 0 5.0459 0 3.25 C0 1.4561 1.456 0 3.2514 0 C5.0454 0 6.5014 1.4561 6.5014 3.25 Z"
         transform="translate(141.769, 275.391)"
         id="path3111" />
      <path
         style="fill:#ffffff;fill-rule:nonzero;stroke:#161413;stroke-width:2;stroke-linecap:butt;stroke-linejoin:miter;stroke-dasharray:none"
         d="M0 0 C0 0 38.0054 145.983 232.212 169.37 L232.212 198.777 C232.212 198.777 43.6885 187.541 0 0 Z"
         transform="translate(23.4619, 75.6323)"
         id="path3113" />
      <path
         style="fill:#ffffff;fill-rule:nonzero;stroke:#161413;stroke-width:2;stroke-linecap:butt;stroke-linejoin:miter;stroke-dasharray:none"
         d="M232.213 0 C232.213 0 194.207 145.983 0 169.37 L0 198.777 C0 198.777 188.524 187.541 232.213 0 Z"
         transform="translate(33.9692, 75.6323)"
         id="path3115" />
      <path
         style="fill:#ffffff;fill-rule:nonzero;stroke:#161413;stroke-width:2;stroke-linecap:butt;stroke-linejoin:miter;stroke-dasharray:none"
         d="M2.8916 14.7031 C1.124 13.167 0.001 10.9072 0.001 8.3808 C0.001 3.7529 3.7529 0 8.3828 0 C13.0127 0 16.7647 3.7529 16.7647 8.3808 C16.7647 10.9072 15.6416 13.167 13.874 14.7031 C15.6416 16.2402 16.7637 18.5 16.7637 21.0254 C16.7637 25.6543 13.0117 29.4072 8.3818 29.4072 C3.7529 29.4072 0 25.6543 0 21.0254 C0 18.5 1.1231 16.2402 2.8916 14.7031 Z"
         transform="translate(247.292, 245.002)"
         id="path3117" />
      <path
         style="fill:#ffffff;fill-rule:nonzero;stroke:#161413;stroke-width:2;stroke-linecap:butt;stroke-linejoin:miter;stroke-dasharray:none"
         d="M13.8735 14.7031 C15.6411 13.167 16.7637 10.9072 16.7637 8.3808 C16.7637 3.7529 13.0112 0 8.3818 0 C3.7524 0 0 3.7529 0 8.3808 C0 10.9072 1.1231 13.167 2.8906 14.7031 C1.1231 16.2402 0.001 18.5 0.001 21.0254 C0.001 25.6543 3.7534 29.4072 8.3828 29.4072 C13.0117 29.4072 16.7642 25.6543 16.7642 21.0254 C16.7642 18.5 15.6416 16.2402 13.8735 14.7031 Z"
         transform="translate(25.5874, 245.002)"
         id="path3119" />
      <path
         style="fill:#161413; fill-rule:nonzero;stroke:none;"
         d="M1.8135 108.696 C0.731 109.486 0 109.959 0 109.959 C0.688 109.752 1.2872 109.304 1.8135 108.696 Z M11.333 0.1729 L11.333 0 L11.3277 0.0864 L11.3223 0 L11.3223 0.1729 L5.4439 94.7822 C5.4439 94.7822 5.0743 104.926 1.8135 108.696 C4.5572 106.693 9.6324 102.587 11.3282 98.501 C13.0235 102.587 18.0997 106.693 20.8428 108.696 C17.5821 104.927 17.212 94.7822 17.212 94.7822 L11.333 0.1729 Z M20.8428 108.696 C21.3692 109.304 21.9678 109.752 22.6553 109.959 C22.6553 109.959 21.9248 109.486 20.8428 108.696 Z"
         transform="translate(133.686, 23.3247)"
         id="path3121" />
      <path
         style="fill:#ffffff; fill-rule:nonzero;stroke:#161413; stroke-width:2; stroke-linecap:butt; stroke-linejoin:miter; stroke-dasharray:none;"
         d="M0 0.0957 L2.1768 0 "
         transform="translate(162.079, 323.122)"
         id="path3123" />
      <path
         style="fill:#ffffff; fill-rule:nonzero;stroke:#161413; stroke-width:2; stroke-linecap:butt; stroke-linejoin:miter; stroke-dasharray:none;"
         d="M0 0 L1.6812 0.0781 "
         transform="translate(126.22, 323.13)"
         id="path3125" />
    </g>
  </g>
</svg>
