<svg xmlns="http://www.w3.org/2000/svg" xmlns:xlink="http://www.w3.org/1999/xlink" id="Layer_1" version="1.1" width="325.81" height="294.89">
  <defs>
    <path id="reuse-0" d="m255.87 35.15-1.35-.05c-11.81-.46-22.79-5.39-30.92-13.87a45.35 45.35 0 0 1-11.15-19.92L212.11 0l1.35.05c11.79.46 22.79 5.4 30.96 13.89 5.31 5.54 9.15 12.42 11.12 19.9l.34 1.31ZM214.76 2.13c1.97 6.65 5.51 12.75 10.29 17.71 7.45 7.77 17.41 12.42 28.18 13.18a43.64 43.64 0 0 0-10.25-17.69c-7.49-7.79-17.46-12.45-28.21-13.2Z"/>
    <path id="reuse-1" d="M271.45 62.45c-7.84 0-15.62-1.99-22.66-5.89a46.4 46.4 0 0 1-16.9-16.2l-.71-1.15 1.31-.34c11.71-3.06 23.95-1.5 34.49 4.38 6.89 3.81 12.74 9.41 16.89 16.18l.71 1.15-1.3.34c-3.9 1.02-7.87 1.53-11.82 1.53Zm-21.69-7.64c9.73 5.39 20.93 6.97 31.67 4.51-3.92-5.96-9.22-10.89-15.42-14.32-9.69-5.41-20.88-7-31.68-4.52a44.3 44.3 0 0 0 15.42 14.33Z"/>
    <path id="reuse-2" d="m283.85 61.46-1.17-.67c-11.56-6.67-19.94-17.36-23.61-30.1a51.4 51.4 0 0 1-.63-25.74l.31-1.31 1.17.68C271.47 11 279.84 21.68 283.5 34.4c2.45 8.49 2.67 17.16.66 25.76l-.31 1.31ZM261 30.13c3.4 11.81 11.01 21.78 21.5 28.22 1.6-7.82 1.29-15.69-.93-23.42-3.39-11.78-10.99-21.74-21.48-28.2a49.4 49.4 0 0 0 .9 23.39Z"/>
    <path id="reuse-3" d="m284.17 61.03-1.34-.17c-11.73-1.51-22.23-7.39-29.57-16.55-4.83-6-8.07-13.21-9.36-20.84l-.22-1.33 1.34.17c11.72 1.52 22.23 7.41 29.61 16.57 4.81 6 8.03 13.2 9.32 20.82zm-38.05-36.54a43.2 43.2 0 0 0 8.7 18.56c6.73 8.4 16.24 13.91 26.9 15.62a43.5 43.5 0 0 0-8.66-18.54c-6.76-8.4-16.29-13.92-26.94-15.64"/>
    <path id="reuse-4" d="m301.26 102.76-1.35-.1c-12.04-.93-23.12-6.38-31.18-15.34a46.4 46.4 0 0 1-10.69-20.8l-.29-1.32 1.35.1c12.07.91 23.14 6.36 31.17 15.35 5.28 5.84 8.98 13.03 10.7 20.8l.29 1.32Zm-31.04-16.78c7.41 8.24 17.48 13.37 28.47 14.56-1.76-6.92-5.17-13.31-9.92-18.55-7.39-8.27-17.45-13.4-28.46-14.57a44.4 44.4 0 0 0 9.91 18.56"/>
    <path id="reuse-5" d="m300.29 103.35-.88-1.02c-8.74-10.05-13.18-22.88-12.51-36.13.48-8.85 3.1-17.11 7.8-24.55l.72-1.14.88 1.01c8.74 10.03 13.18 22.86 12.5 36.11-.44 8.8-3.06 17.07-7.78 24.58l-.72 1.14Zm-11.4-37.04c-.62 12.28 3.33 24.18 11.14 33.67 4.08-6.9 6.36-14.45 6.76-22.45.63-12.28-3.31-24.17-11.12-33.65-4.06 6.85-6.34 14.38-6.78 22.42Z"/>
    <path id="reuse-6" d="m300.73 103.05-1.21-.6c-10.58-5.24-18.59-14.21-22.56-25.26-2.64-7.36-3.34-15.01-2.06-22.75l.22-1.33 1.21.6c10.58 5.23 18.61 14.21 22.59 25.29 2.59 7.24 3.29 15.1 2.03 22.72zm-24.07-46.91c-.93 6.93-.2 13.78 2.18 20.38 3.64 10.13 10.83 18.44 20.34 23.52.91-6.86.18-13.86-2.14-20.35-3.65-10.15-10.86-18.47-20.37-23.54Z"/>
    <path id="reuse-7" d="m303.95 145.29-1.26-.47c-11.3-4.24-20.41-12.56-25.64-23.45-3.4-7.09-4.94-15.02-4.45-22.95l.08-1.35 1.26.47c11.34 4.25 20.44 12.57 25.64 23.43a45.96 45.96 0 0 1 4.44 22.97l-.09 1.34Zm-25.1-24.79c4.81 10.01 13.04 17.75 23.26 21.94.25-7.1-1.24-14.19-4.32-20.6-4.78-9.99-13-17.73-23.26-21.92-.22 7.12 1.26 14.21 4.32 20.58"/>
    <path id="reuse-8" d="m302.84 145.57-.56-1.22c-5.56-12.09-6.23-25.65-1.87-38.17a51.6 51.6 0 0 1 14.36-21.4l1.01-.9.57 1.22c5.58 12.08 6.24 25.64 1.87 38.17a51.1 51.1 0 0 1-14.36 21.4l-1.01.89Zm-.55-38.74c-4.03 11.6-3.58 24.12 1.25 35.42a49 49 0 0 0 12.78-19.64c4.05-11.61 3.6-24.13-1.24-35.42a49.6 49.6 0 0 0-12.79 19.64"/>
    <path id="reuse-9" d="m303.35 145.41-.99-.91c-8.69-7.97-13.87-18.82-14.59-30.55a45.4 45.4 0 0 1 4.41-22.41l.58-1.21.99.91c8.7 7.99 13.88 18.86 14.59 30.59.46 7.69-1.07 15.43-4.42 22.37l-.58 1.21Zm-9.94-51.75a43.4 43.4 0 0 0-3.64 20.17c.66 10.75 5.24 20.73 12.94 28.25 2.8-6.31 4.06-13.24 3.64-20.13-.65-10.76-5.23-20.75-12.95-28.29Z"/>
    <path id="reuse-10" d="m291.95 190.27-1-.9c-8.94-8.11-14.33-19.2-15.17-31.23-.53-7.88.98-15.82 4.36-22.97l.58-1.22 1 .9c8.97 8.11 14.36 19.2 15.18 31.22.54 7.91-.98 15.85-4.38 22.98l-.58 1.21ZM277.79 158c.77 11.06 5.55 21.28 13.51 28.95 2.85-6.49 4.1-13.63 3.62-20.73-.75-11.04-5.54-21.26-13.52-28.93a44.5 44.5 0 0 0-3.6 20.72Z"/>
    <path id="reuse-11" d="m290.83 190.13-.07-1.35c-.71-13.31 3.68-26.15 12.37-36.17 5.73-6.59 13.08-11.65 21.27-14.61l1.27-.46.07 1.35c.7 13.32-3.7 26.17-12.39 36.17-5.68 6.57-13.03 11.62-21.25 14.6l-1.27.46Zm13.81-36.2c-8.05 9.27-12.26 21.08-11.94 33.37 7.46-2.94 13.89-7.49 19.13-13.55 8.05-9.27 12.27-21.08 11.96-33.38a49.46 49.46 0 0 0-19.15 13.56"/>
    <path id="reuse-12" d="m291.37 190.17-.59-1.21c-5.13-10.61-5.94-22.6-2.27-33.77 2.4-7.31 6.68-13.95 12.38-19.2l.99-.92.59 1.22c5.13 10.64 5.93 22.64 2.27 33.81a45.46 45.46 0 0 1-12.38 19.16zm9.88-51.76c-4.95 4.86-8.69 10.85-10.84 17.41-3.36 10.24-2.79 21.2 1.59 31.03 4.92-4.82 8.66-10.8 10.83-17.37 3.36-10.23 2.79-21.21-1.59-31.06Z"/>
    <path id="reuse-13" d="m268.71 226.79-.67-1.16c-6.04-10.43-7.8-22.63-4.94-34.34 1.88-7.66 5.74-14.77 11.15-20.56l.92-.98.68 1.16c6.08 10.42 7.84 22.62 4.95 34.35-1.86 7.66-5.72 14.77-11.16 20.56l-.92.98Zm-3.68-35.03c-2.62 10.77-1.18 21.96 4.06 31.67 4.71-5.35 8.08-11.77 9.75-18.65 2.65-10.78 1.21-21.97-4.06-31.67a44.5 44.5 0 0 0-9.75 18.65"/>
    <path id="reuse-14" d="m267.68 226.31.34-1.3c3.37-12.88 11.47-23.78 22.82-30.71a51.44 51.44 0 0 1 24.69-7.47l1.35-.05-.34 1.31c-3.38 12.89-11.48 23.79-22.81 30.71a51.5 51.5 0 0 1-24.7 7.47l-1.35.05Zm24.2-30.3c-10.51 6.42-18.13 16.38-21.56 28.18a49.3 49.3 0 0 0 22.37-7.1c10.49-6.4 18.1-16.37 21.55-28.18-7.88.53-15.59 2.97-22.35 7.1Z"/>
    <path id="reuse-15" d="m268.19 226.52-.19-1.33c-1.66-11.66 1.23-23.33 8.13-32.87 4.5-6.23 10.6-11.25 17.63-14.53l1.22-.57.19 1.34c1.65 11.7-1.24 23.38-8.13 32.89a45.67 45.67 0 0 1-17.63 14.51l-1.22.57Zm25.17-46.32c-6.2 3.13-11.58 7.7-15.61 13.29-6.32 8.74-9.12 19.36-7.94 30.05a43.8 43.8 0 0 0 15.62-13.27c6.31-8.71 9.11-19.34 7.94-30.06Z"/>
    <path id="reuse-16" d="m236.77 258.57-.32-1.31c-2.89-11.72-1.18-23.92 4.82-34.37 3.95-6.84 9.64-12.6 16.46-16.66l1.16-.69.32 1.31c2.91 11.72 1.19 23.92-4.83 34.36a46.43 46.43 0 0 1-16.45 16.67zm6.23-34.68c-5.51 9.6-7.24 20.75-4.92 31.55a44.44 44.44 0 0 0 14.57-15.23c5.53-9.59 7.26-20.74 4.93-31.54-6 3.83-11.03 9.06-14.58 15.21Z"/>
    <path id="reuse-17" d="M249.54 259.63c-4.14 0-8.28-.5-12.32-1.49l-1.31-.32.69-1.16c6.83-11.43 17.65-19.65 30.46-23.16 8.45-2.3 17.38-2.39 25.82-.29l1.31.33-.69 1.16c-6.85 11.43-17.67 19.65-30.47 23.14-4.4 1.2-8.95 1.79-13.49 1.79m-10.5-3.13a49.64 49.64 0 0 0 23.46-.6c11.85-3.24 21.94-10.7 28.56-21.07a49.3 49.3 0 0 0-23.47.59c-11.87 3.25-21.96 10.71-28.55 21.08"/>
    <path id="reuse-18" d="m236.32 258.14.19-1.33c1.68-11.67 7.71-22.08 16.98-29.31 6.1-4.76 13.36-7.88 21-9.04l1.33-.2-.19 1.33c-1.67 11.67-7.71 22.07-16.99 29.31a45.4 45.4 0 0 1-21 9.04l-1.33.2Zm18.41-29.07c-8.5 6.63-14.15 16.05-16.01 26.66a43.5 43.5 0 0 0 18.71-8.42c8.51-6.63 14.16-16.06 16.02-26.65a43.4 43.4 0 0 0-18.72 8.41"/>
    <path id="reuse-19" d="m196.11 274.21.07-1.35c.66-12.05 5.87-23.22 14.67-31.46 5.81-5.4 12.94-9.24 20.62-11.13l1.31-.32-.07 1.35c-.64 12.05-5.86 23.23-14.68 31.47a46.46 46.46 0 0 1-20.61 11.12zm16.11-31.34c-8.09 7.57-13.01 17.73-13.94 28.74 6.84-1.9 13.17-5.44 18.39-10.29 8.11-7.57 13.03-17.73 13.96-28.74a44.8 44.8 0 0 0-18.4 10.3Z"/>
    <path id="reuse-20" d="M222.99 281.2c-.52 0-1.04 0-1.57-.02a51.33 51.33 0 0 1-24.76-7.25l-1.16-.69 1-.91c9.88-8.93 22.63-13.62 35.92-13.25 8.72.27 17.28 2.77 24.76 7.24l1.16.69-1 .91c-9.5 8.6-21.65 13.28-34.36 13.28Zm-24.11-8.3c6.9 3.87 14.69 6.04 22.6 6.27 12.31.39 24.13-3.82 33.49-11.83a49.6 49.6 0 0 0-22.61-6.27c-12.31-.37-24.13 3.83-33.48 11.82Z"/>
    <path id="reuse-21" d="M203.61 274.34c-2.16 0-4.33-.15-6.48-.46l-1.34-.19.58-1.22c5.04-10.67 13.86-18.87 24.83-23.09a45.4 45.4 0 0 1 22.74-2.51l1.34.19-.58 1.22c-5.03 10.66-13.85 18.86-24.84 23.09a45.7 45.7 0 0 1-16.25 2.98Zm-4.82-2.27c6.88.76 13.89-.12 20.36-2.58a43.3 43.3 0 0 0 23.13-20.83c-6.89-.78-13.9.11-20.37 2.58-10.06 3.87-18.23 11.24-23.13 20.84Z"/>
    <path id="reuse-22" d="m69.93 35.15.34-1.31c1.97-7.48 5.81-14.35 11.12-19.89C89.57 5.45 100.57.52 112.36.05l1.35-.05-.34 1.31a45.44 45.44 0 0 1-11.17 19.92c-8.13 8.48-19.11 13.4-30.92 13.87zm41.13-33.02a43.22 43.22 0 0 0-28.22 13.21c-4.76 4.96-8.28 11.06-10.26 17.69 10.76-.76 20.72-5.41 28.17-13.18a43.4 43.4 0 0 0 10.3-17.72Z"/>
    <path id="reuse-23" d="M54.37 62.45c-3.95 0-7.92-.5-11.83-1.53l-1.3-.34.71-1.15c4.15-6.77 10-12.36 16.9-16.18 10.54-5.88 22.78-7.44 34.48-4.38l1.31.34-.71 1.15a46.33 46.33 0 0 1-16.89 16.19c-7.04 3.9-14.81 5.89-22.66 5.89Zm-9.99-3.14c10.76 2.47 21.95.88 31.67-4.51a44.3 44.3 0 0 0 15.42-14.33C80.68 38 69.48 39.58 59.8 44.99c-6.21 3.43-11.51 8.37-15.43 14.32Z"/>
    <path id="reuse-24" d="M65.78 30.41c-3.75 12.98-12.3 23.25-23.15 29.51a49.9 49.9 0 0 1 .64-25.26C47 21.72 55.56 11.44 66.4 5.17c1.89 8.07 1.82 16.7-.62 25.24"/>
    <path id="reuse-25" d="m41.64 61.03.22-1.33c1.28-7.6 4.5-14.8 9.32-20.81 7.38-9.16 17.89-15.05 29.61-16.58l1.34-.17-.23 1.33a45.5 45.5 0 0 1-9.35 20.84C65.2 53.48 54.7 59.35 42.98 60.86zm38.04-36.54c-10.65 1.72-20.18 7.24-26.94 15.65a43.4 43.4 0 0 0-8.65 18.54c10.66-1.71 20.17-7.22 26.9-15.62 4.33-5.38 7.31-11.78 8.69-18.56Z"/>
    <path id="reuse-26" d="m24.55 102.76.29-1.32a45.9 45.9 0 0 1 10.7-20.8c8.05-8.99 19.13-14.44 31.19-15.34l1.35-.1-.3 1.32a46.6 46.6 0 0 1-10.69 20.8c-8.06 8.97-19.14 14.42-31.19 15.35l-1.34.1ZM65.5 67.42c-11.01 1.16-21.08 6.3-28.47 14.56a43.9 43.9 0 0 0-9.91 18.56c11-1.18 21.07-6.32 28.48-14.56a44.66 44.66 0 0 0 9.91-18.56Z"/>
    <path id="reuse-27" d="m25.52 103.36-.72-1.14c-4.71-7.51-7.33-15.78-7.78-24.58-.69-13.24 3.75-26.07 12.5-36.11l.88-1.01.72 1.14c4.7 7.46 7.32 15.72 7.79 24.55.67 13.24-3.77 26.07-12.5 36.14l-.89 1.02Zm4.62-59.47c-7.81 9.48-11.75 21.38-11.12 33.64.41 8 2.69 15.54 6.76 22.45 7.81-9.51 11.75-21.41 11.13-33.67-.43-8.03-2.71-15.56-6.77-22.42"/>
    <path id="reuse-28" d="m25.09 103.05-.22-1.33A45.6 45.6 0 0 1 26.88 79c3.99-11.08 12.02-20.06 22.61-25.29l1.21-.6.22 1.33c1.28 7.75.58 15.4-2.07 22.74-3.96 11.05-11.97 20.02-22.55 25.26l-1.21.6Zm24.06-46.91c-9.52 5.07-16.73 13.39-20.38 23.54a43.45 43.45 0 0 0-2.13 20.35c9.51-5.08 16.71-13.38 20.33-23.52 2.38-6.59 3.11-13.44 2.18-20.38Z"/>
    <path id="reuse-29" d="m21.86 145.28-.09-1.34a46 46 0 0 1 4.44-22.97c5.19-10.86 14.3-19.18 25.64-23.43l1.26-.47.09 1.35c.5 7.91-1.03 15.84-4.44 22.95-5.23 10.89-14.34 19.22-25.64 23.45l-1.26.47Zm29.41-45.36c-10.26 4.2-18.48 11.94-23.25 21.92a44 44 0 0 0-4.32 20.6c10.22-4.19 18.45-11.94 23.26-21.94a44.4 44.4 0 0 0 4.31-20.58"/>
    <path id="reuse-30" d="m22.96 145.57-1.01-.9a51.3 51.3 0 0 1-14.35-21.4C3.23 110.76 3.89 97.2 9.46 85.1l.56-1.22 1.01.89a51.4 51.4 0 0 1 14.37 21.4c4.36 12.53 3.69 26.09-1.88 38.17l-.56 1.22ZM10.72 87.2c-4.84 11.31-5.28 23.83-1.23 35.42 2.6 7.45 7 14.21 12.78 19.64 4.84-11.29 5.29-23.81 1.25-35.42a49.45 49.45 0 0 0-12.8-19.64"/>
    <path id="reuse-31" d="m22.46 145.41-.59-1.21a45.44 45.44 0 0 1-4.43-22.37c.72-11.74 5.9-22.6 14.61-30.59l.99-.91.58 1.21c3.35 6.95 4.87 14.7 4.41 22.41-.71 11.73-5.89 22.58-14.58 30.55zm9.94-51.75c-7.71 7.54-12.3 17.53-12.96 28.29-.4 6.9.86 13.83 3.66 20.13 7.7-7.52 12.28-17.5 12.94-28.25.42-6.91-.84-13.85-3.63-20.17Z"/>
    <path id="reuse-32" d="m33.86 190.27-.58-1.21a45.8 45.8 0 0 1-4.37-22.98c.81-12.01 6.2-23.1 15.17-31.22l1-.9.58 1.22c3.39 7.16 4.9 15.1 4.37 22.97-.84 12.03-6.22 23.12-15.16 31.23l-.99.9Zm10.55-52.99c-7.98 7.67-12.76 17.89-13.51 28.93-.5 7.1.75 14.24 3.61 20.74 7.95-7.67 12.74-17.9 13.51-28.95.48-7.07-.77-14.2-3.61-20.72"/>
    <path id="reuse-33" d="m34.98 190.13-1.27-.46c-8.22-2.99-15.57-8.04-21.25-14.61C3.77 165.05-.63 152.2.07 138.9l.07-1.35 1.27.46c8.18 2.96 15.53 8.02 21.26 14.61 8.7 10.02 13.09 22.86 12.38 36.17l-.07 1.35ZM2.02 140.38c-.31 12.29 3.91 24.1 11.96 33.38 5.24 6.05 11.67 10.61 19.14 13.55.32-12.29-3.9-24.09-11.95-33.37a49.46 49.46 0 0 0-19.15-13.56"/>
    <path id="reuse-34" d="m34.45 190.17-.99-.91a45.6 45.6 0 0 1-12.38-19.16c-3.66-11.17-2.86-23.17 2.26-33.81l.58-1.22.99.91c5.69 5.24 9.98 11.88 12.38 19.2 3.67 11.17 2.87 23.16-2.26 33.77l-.59 1.21Zm-9.89-51.76c-4.37 9.85-4.94 20.83-1.59 31.06a43.6 43.6 0 0 0 10.84 17.37c4.37-9.83 4.94-20.79 1.58-31.02-2.19-6.67-5.83-12.52-10.83-17.41"/>
    <path id="reuse-35" d="M61.74 191.52c2.91 11.92.83 23.81-4.84 33.61-5.15-5.49-9-12.3-10.92-20.11-2.92-11.88-.85-23.81 4.85-33.6 5.13 5.49 9 12.32 10.91 20.11Z"/>
    <path id="reuse-36" d="m58.12 226.31-1.35-.05c-8.7-.34-17.24-2.92-24.69-7.47-11.33-6.91-19.43-17.82-22.81-30.71l-.34-1.31 1.35.05a51.5 51.5 0 0 1 24.7 7.46c11.34 6.93 19.44 17.83 22.8 30.71l.34 1.3Zm-46.54-37.4c3.44 11.81 11.05 21.78 21.55 28.18a49.4 49.4 0 0 0 22.35 7.1c-3.43-11.79-11.04-21.76-21.54-28.18a49.45 49.45 0 0 0-22.36-7.1"/>
    <path id="reuse-37" d="m57.63 226.52-1.22-.57a45.6 45.6 0 0 1-17.63-14.51c-6.89-9.53-9.78-21.21-8.14-32.89l.19-1.34 1.22.57a45.5 45.5 0 0 1 17.64 14.53c6.89 9.55 9.78 21.22 8.13 32.87l-.19 1.33ZM32.45 180.2a43.15 43.15 0 0 0 7.94 30.07 43.5 43.5 0 0 0 15.62 13.27c1.17-10.68-1.62-21.3-7.94-30.05a43.54 43.54 0 0 0-15.62-13.29"/>
    <path id="reuse-38" d="m89.03 258.57-1.16-.69c-6.8-4.04-12.49-9.8-16.45-16.67-6.03-10.44-7.74-22.64-4.83-34.36l.32-1.31 1.16.69a46.56 46.56 0 0 1 16.46 16.65c6 10.47 7.71 22.67 4.82 34.37l-.32 1.31Zm-20.81-49.9c-2.34 10.8-.61 21.95 4.93 31.54a44.44 44.44 0 0 0 14.57 15.23c2.32-10.79.59-21.94-4.92-31.55a44.4 44.4 0 0 0-14.58-15.21Z"/>
    <path id="reuse-39" d="M76.27 259.63c-4.54 0-9.08-.6-13.48-1.8-12.81-3.5-23.63-11.71-30.47-23.14l-.69-1.16 1.31-.33c8.44-2.11 17.36-2.01 25.81.28 12.81 3.51 23.63 11.73 30.46 23.16l.69 1.16-1.31.32c-4.04 1-8.18 1.49-12.32 1.49Zm-41.52-24.8c6.6 10.37 16.7 17.83 28.56 21.07a49.5 49.5 0 0 0 23.45.6c-6.6-10.37-16.68-17.84-28.55-21.08a49.4 49.4 0 0 0-23.46-.59"/>
    <path id="reuse-40" d="m89.48 258.14-1.33-.2a45.54 45.54 0 0 1-20.99-9.04c-9.28-7.24-15.31-17.64-16.99-29.31l-.19-1.33 1.33.2a45.3 45.3 0 0 1 21 9.04c9.28 7.24 15.31 17.65 16.98 29.31zm-37.12-37.48c1.86 10.6 7.52 20.02 16.02 26.65a43.46 43.46 0 0 0 18.71 8.41c-1.86-10.6-7.51-20.02-16.02-26.66a43.35 43.35 0 0 0-18.71-8.41Z"/>
    <path id="reuse-41" d="m215.07 294.89-2-.12c-.52-.03-52.81-3.3-90.77-21.23l-1.43-.68 7.46-6.11.61.4c.22.14 22.78 14.4 81.21 20.99l.46.05 4.45 6.69ZM124.6 272.4c33.22 15.22 76.75 19.44 86.57 20.22l-1.69-2.55c-53.97-6.14-76.96-18.47-80.98-20.86l-3.89 3.18Z"/>
    <path id="reuse-42" d="m129.7 274.21-1.31-.32a46.65 46.65 0 0 1-20.62-11.12c-8.82-8.24-14.04-19.42-14.68-31.47l-.07-1.35 1.31.32a46.7 46.7 0 0 1 20.61 11.13c8.81 8.26 14.02 19.43 14.68 31.47l.07 1.34Zm-34.51-41.64c.92 11.01 5.84 21.18 13.95 28.74a44.6 44.6 0 0 0 18.4 10.29c-.93-10.99-5.85-21.15-13.95-28.74a44.7 44.7 0 0 0-18.4-10.3Z"/>
    <path id="reuse-43" d="M102.81 281.2c-12.7 0-24.85-4.68-34.35-13.28l-1-.91 1.16-.69a51.77 51.77 0 0 1 24.77-7.24c13.28-.37 26.03 4.31 35.91 13.25l1 .91-1.16.69a51.34 51.34 0 0 1-24.77 7.25c-.52.02-1.04.02-1.56.02m-31.97-13.86c9.35 8.01 21.2 12.21 33.48 11.83 7.92-.24 15.7-2.4 22.61-6.28-9.34-7.99-21.18-12.19-33.47-11.82-7.92.25-15.71 2.41-22.61 6.27Z"/>
    <path id="reuse-44" d="M122.2 274.34c-5.54 0-11.06-1.01-16.25-2.98-10.99-4.22-19.81-12.42-24.83-23.09l-.58-1.22 1.34-.19c7.66-1.11 15.52-.24 22.73 2.51 10.99 4.23 19.81 12.43 24.82 23.09l.58 1.22-1.34.19c-2.15.31-4.31.46-6.47.46Zm-38.67-25.69a43.3 43.3 0 0 0 23.13 20.83 43.7 43.7 0 0 0 20.35 2.58 43.2 43.2 0 0 0-23.12-20.83 43.5 43.5 0 0 0-20.36-2.58"/>
    <style>
      .st0{fill:#fef803}.st1{fill:#fff}.st2{fill:#231f20}.st3{fill:#00a54d}
    </style>
  </defs>
  <path d="M224.32 20.53c8.26 8.62 19.18 13.13 30.24 13.56-1.86-7.06-5.46-13.81-10.87-19.46-8.29-8.62-19.21-13.15-30.28-13.59 1.85 7.06 5.45 13.81 10.91 19.48Z" class="st3"/>
  <use xlink:href="#reuse-0" class="st2"/>
  <use xlink:href="#reuse-0" class="st2"/>
  <path d="M249.27 55.68c10.75 5.95 22.8 7.14 33.75 4.27-3.92-6.39-9.47-11.93-16.53-15.83-10.67-5.96-22.76-7.16-33.75-4.29a45.1 45.1 0 0 0 16.53 15.84Z" class="st3"/>
  <use xlink:href="#reuse-1" class="st2"/>
  <use xlink:href="#reuse-1" class="st2"/>
  <path d="M260.04 30.41c3.73 12.98 12.29 23.25 23.15 29.51 1.88-8.07 1.82-16.7-.65-25.26-3.72-12.94-12.28-23.22-23.12-29.49-1.89 8.07-1.82 16.7.62 25.24" class="st3"/>
  <use xlink:href="#reuse-2" class="st2"/>
  <use xlink:href="#reuse-2" class="st2"/>
  <path d="M254.04 43.68c7.47 9.32 17.95 14.77 28.92 16.18a44.4 44.4 0 0 0-9.11-20.36c-7.5-9.32-17.98-14.78-28.96-16.21a44.04 44.04 0 0 0 9.15 20.38Z" class="st3"/>
  <use xlink:href="#reuse-3" class="st2"/>
  <use xlink:href="#reuse-3" class="st2"/>
  <path d="M269.48 86.65c8.2 9.12 19.23 14.14 30.51 15.02-1.62-7.33-5.07-14.38-10.47-20.35-8.14-9.11-19.17-14.17-30.5-15.02a45.3 45.3 0 0 0 10.46 20.35" class="st3"/>
  <use xlink:href="#reuse-4" class="st2"/>
  <use xlink:href="#reuse-4" class="st2"/>
  <path d="M287.89 66.25c-.68 13.48 4.04 25.96 12.27 35.43 4.42-7.03 7.18-15.21 7.63-24.1.69-13.45-4.04-25.97-12.25-35.4-4.42 7.01-7.16 15.18-7.64 24.07Z" class="st3"/>
  <use xlink:href="#reuse-5" class="st2"/>
  <use xlink:href="#reuse-5" class="st2"/>
  <path d="M277.9 76.86c4.03 11.24 12.14 19.8 22.06 24.7 1.2-7.23.65-14.86-1.98-22.22-4.05-11.25-12.18-19.83-22.1-24.73-1.19 7.24-.64 14.84 2.02 22.24Z" class="st3"/>
  <use xlink:href="#reuse-6" class="st2"/>
  <use xlink:href="#reuse-6" class="st2"/>
  <path d="M277.95 120.93c5.32 11.07 14.48 18.97 25.09 22.95.5-7.5-.85-15.21-4.35-22.47-5.27-11.02-14.45-18.94-25.09-22.93-.47 7.5.88 15.22 4.35 22.45" class="st3"/>
  <use xlink:href="#reuse-7" class="st2"/>
  <use xlink:href="#reuse-7" class="st2"/>
  <path d="M301.35 106.5c-4.43 12.75-3.39 26.06 1.84 37.42 6.22-5.5 11.16-12.58 14.08-20.98 4.44-12.73 3.42-26.06-1.83-37.42a50.34 50.34 0 0 0-14.08 20.98Z" class="st3"/>
  <use xlink:href="#reuse-8" class="st2"/>
  <use xlink:href="#reuse-8" class="st2"/>
  <path d="M288.77 113.89c.73 11.9 6.11 22.4 14.27 29.87a44.1 44.1 0 0 0 4.32-21.87c-.72-11.93-6.12-22.43-14.27-29.91-3.18 6.61-4.8 14.07-4.32 21.91" class="st3"/>
  <use xlink:href="#reuse-9" class="st2"/>
  <use xlink:href="#reuse-9" class="st2"/>
  <path d="M276.79 158.07c.85 12.24 6.45 22.95 14.84 30.56a44.84 44.84 0 0 0 4.28-22.48c-.83-12.18-6.44-22.94-14.85-30.54a45.4 45.4 0 0 0-4.27 22.47Z" class="st3"/>
  <use xlink:href="#reuse-10" class="st2"/>
  <use xlink:href="#reuse-10" class="st2"/>
  <path d="M303.89 153.28c-8.84 10.19-12.8 22.96-12.13 35.46 7.81-2.84 15.01-7.59 20.83-14.32 8.86-10.21 12.8-22.97 12.15-35.46a50.1 50.1 0 0 0-20.85 14.33Z" class="st3"/>
  <use xlink:href="#reuse-11" class="st2"/>
  <use xlink:href="#reuse-11" class="st2"/>
  <path d="M289.46 155.5c-3.72 11.33-2.6 23.06 2.22 33.02a44.3 44.3 0 0 0 12.1-18.74c3.73-11.35 2.58-23.1-2.22-33.06-5.39 4.97-9.65 11.31-12.11 18.78Z" class="st3"/>
  <use xlink:href="#reuse-12" class="st2"/>
  <use xlink:href="#reuse-12" class="st2"/>
  <path d="M264.06 191.52c-2.9 11.92-.84 23.81 4.84 33.61 5.15-5.49 9.01-12.3 10.91-20.11 2.92-11.88.87-23.81-4.85-33.6a45.25 45.25 0 0 0-10.91 20.11Z" class="st3"/>
  <use xlink:href="#reuse-13" class="st2"/>
  <use xlink:href="#reuse-13" class="st2"/>
  <path d="M291.36 195.16c-11.54 7.04-19.21 18.01-22.37 30.11a50.07 50.07 0 0 0 24.22-7.32c11.53-7.04 19.18-17.99 22.36-30.11a50.14 50.14 0 0 0-24.21 7.32" class="st3"/>
  <use xlink:href="#reuse-14" class="st2"/>
  <use xlink:href="#reuse-14" class="st2"/>
  <path d="M276.93 192.9c-7.01 9.69-9.5 21.21-7.95 32.14a44.44 44.44 0 0 0 17.24-14.19c7.01-9.68 9.49-21.22 7.95-32.16-6.66 3.1-12.65 7.85-17.24 14.21" class="st3"/>
  <use xlink:href="#reuse-15" class="st2"/>
  <use xlink:href="#reuse-15" class="st2"/>
  <path d="M242.14 223.39c-6.11 10.63-7.43 22.64-4.72 33.63 6.48-3.84 12.07-9.33 16.1-16.31 6.11-10.59 7.45-22.61 4.72-33.62a45.23 45.23 0 0 0-16.1 16.29Z" class="st3"/>
  <use xlink:href="#reuse-16" class="st2"/>
  <use xlink:href="#reuse-16" class="st2"/>
  <path d="M267.33 234.46c-13.03 3.57-23.45 11.96-29.87 22.71 8.06 1.98 16.72 2.04 25.31-.3 13.04-3.56 23.44-11.96 29.87-22.69a50.1 50.1 0 0 0-25.31.28" class="st3"/>
  <use xlink:href="#reuse-17" class="st2"/>
  <use xlink:href="#reuse-17" class="st2"/>
  <path d="M254.11 228.28c-9.42 7.35-15.03 17.73-16.61 28.66a44.2 44.2 0 0 0 20.53-8.84c9.43-7.35 15.05-17.73 16.61-28.66a44.16 44.16 0 0 0-20.54 8.84Z" class="st3"/>
  <use xlink:href="#reuse-18" class="st2"/>
  <use xlink:href="#reuse-18" class="st2"/>
  <path d="M197.4 267.99s-22.21 14.45-81.63 21.14l-3.1 4.64s52.19-3.09 90.42-21.14z" class="st3"/>
  <path d="m110.72 294.89 4.48-6.69.46-.05c58.42-6.58 80.98-20.84 81.2-20.99l.61-.4 7.48 6.11-1.43.68c-37.97 17.92-90.26 21.2-90.79 21.23l-2.01.12Zm5.62-4.81-1.7 2.55c9.83-.79 53.36-5.01 86.58-20.22l-3.9-3.19c-4.03 2.39-27.01 14.72-80.98 20.86" class="st2"/>
  <path d="m110.72 294.89 4.48-6.69.46-.05c58.51-6.59 80.98-20.84 81.2-20.99l.61-.4 7.48 6.11-1.43.68c-37.97 17.92-90.26 21.2-90.79 21.23l-2.01.12Zm5.62-4.81-1.7 2.55c9.83-.79 53.36-5.01 86.58-20.22l-3.9-3.19c-4.03 2.39-27.01 14.72-80.98 20.86" class="st2"/>
  <path d="M211.54 242.13c-8.95 8.38-13.74 19.49-14.36 30.79a45.33 45.33 0 0 0 20.16-10.88c8.95-8.35 13.76-19.46 14.37-30.79-7.31 1.79-14.28 5.42-20.18 10.89Z" class="st3"/>
  <use xlink:href="#reuse-19" class="st2"/>
  <use xlink:href="#reuse-19" class="st2"/>
  <path d="M232.4 260.08c-13.53-.4-25.93 4.6-35.22 12.99a50.1 50.1 0 0 0 24.28 7.11c13.51.41 25.93-4.6 35.22-13a50.4 50.4 0 0 0-24.28-7.1" class="st3"/>
  <use xlink:href="#reuse-20" class="st2"/>
  <use xlink:href="#reuse-20" class="st2"/>
  <path d="M221.56 250.3c-11.16 4.29-19.56 12.58-24.28 22.58 7.27 1.05 14.9.33 22.23-2.46 11.16-4.29 19.57-12.58 24.29-22.58a44.2 44.2 0 0 0-22.24 2.46" class="st3"/>
  <use xlink:href="#reuse-21" class="st2"/>
  <use xlink:href="#reuse-21" class="st2"/>
  <path d="M101.48 20.53c-8.27 8.62-19.18 13.13-30.24 13.56 1.86-7.06 5.46-13.81 10.87-19.46 8.3-8.62 19.21-13.15 30.28-13.59-1.86 7.06-5.46 13.81-10.92 19.48Z" class="st3"/>
  <use xlink:href="#reuse-22" class="st2"/>
  <use xlink:href="#reuse-22" class="st2"/>
  <path d="M76.54 55.68c-10.74 5.95-22.79 7.14-33.75 4.27 3.92-6.39 9.48-11.93 16.53-15.83 10.67-5.96 22.76-7.16 33.75-4.29a45.1 45.1 0 0 1-16.53 15.84Z" class="st3"/>
  <use xlink:href="#reuse-23" class="st2"/>
  <use xlink:href="#reuse-23" class="st2"/>
  <use xlink:href="#reuse-24" class="st1"/>
  <use xlink:href="#reuse-24" class="st3"/>
  <path d="m41.96 61.46-.31-1.31c-1.99-8.47-1.76-17.38.65-25.77C45.97 21.65 54.35 10.97 65.89 4.3l1.17-.67.31 1.31c1.98 8.45 1.76 17.35-.63 25.74-3.68 12.75-12.07 23.44-23.61 30.1l-1.17.67ZM65.72 6.74c-10.49 6.45-18.09 16.41-21.49 28.2-2.22 7.73-2.53 15.6-.92 23.42 10.48-6.44 18.1-16.41 21.51-28.22a49.3 49.3 0 0 0 .9-23.39Z" class="st2"/>
  <path d="M71.77 43.68C64.3 53 53.83 58.45 42.85 59.86a44.3 44.3 0 0 1 9.11-20.36c7.5-9.32 17.98-14.78 28.96-16.21-1.23 7.24-4.22 14.25-9.15 20.38Z" class="st3"/>
  <use xlink:href="#reuse-25" class="st2"/>
  <use xlink:href="#reuse-25" class="st2"/>
  <path d="M56.34 86.65c-8.2 9.12-19.23 14.14-30.52 15.02 1.62-7.33 5.08-14.38 10.46-20.35 8.16-9.11 19.18-14.17 30.52-15.02-1.65 7.33-5.11 14.37-10.46 20.35" class="st3"/>
  <use xlink:href="#reuse-26" class="st2"/>
  <use xlink:href="#reuse-26" class="st2"/>
  <path d="M37.92 66.25c.68 13.48-4.05 25.96-12.26 35.43-4.41-7.03-7.17-15.21-7.63-24.1-.7-13.45 4.04-25.97 12.25-35.4 4.42 7.01 7.16 15.18 7.64 24.07" class="st3"/>
  <use xlink:href="#reuse-27" class="st2"/>
  <use xlink:href="#reuse-27" class="st2"/>
  <path d="M47.91 76.86c-4.02 11.24-12.14 19.8-22.06 24.7a44.2 44.2 0 0 1 1.97-22.22C31.87 68.09 40 59.51 49.93 54.61c1.19 7.24.65 14.84-2.02 22.24Z" class="st3"/>
  <use xlink:href="#reuse-28" class="st2"/>
  <use xlink:href="#reuse-28" class="st2"/>
  <path d="M47.86 120.93C42.54 132 33.38 139.9 22.77 143.88c-.5-7.5.85-15.21 4.35-22.47 5.27-11.02 14.45-18.94 25.09-22.93.48 7.5-.88 15.22-4.35 22.45" class="st3"/>
  <use xlink:href="#reuse-29" class="st2"/>
  <use xlink:href="#reuse-29" class="st2"/>
  <path d="M24.46 106.5c4.44 12.75 3.4 26.06-1.85 37.42-6.19-5.5-11.14-12.58-14.07-20.98-4.45-12.73-3.41-26.06 1.83-37.42a50.17 50.17 0 0 1 14.09 20.98" class="st3"/>
  <use xlink:href="#reuse-30" class="st2"/>
  <use xlink:href="#reuse-30" class="st2"/>
  <path d="M37.04 113.89c-.73 11.9-6.11 22.4-14.26 29.87a44.1 44.1 0 0 1-4.33-21.87c.73-11.93 6.13-22.43 14.28-29.91a44.2 44.2 0 0 1 4.31 21.91" class="st3"/>
  <use xlink:href="#reuse-31" class="st2"/>
  <use xlink:href="#reuse-31" class="st2"/>
  <path d="M49.01 158.07c-.85 12.24-6.46 22.95-14.84 30.56a44.74 44.74 0 0 1-4.28-22.48c.82-12.18 6.43-22.94 14.84-30.54 3.21 6.78 4.82 14.47 4.27 22.47Z" class="st3"/>
  <use xlink:href="#reuse-32" class="st2"/>
  <use xlink:href="#reuse-32" class="st2"/>
  <path d="M21.92 153.28c8.84 10.19 12.81 22.96 12.14 35.46-7.81-2.84-15.02-7.59-20.84-14.32C4.37 164.21.41 151.45 1.07 138.96c7.81 2.83 15.01 7.61 20.85 14.33Z" class="st3"/>
  <use xlink:href="#reuse-33" class="st2"/>
  <use xlink:href="#reuse-33" class="st2"/>
  <path d="M36.34 155.5c3.72 11.33 2.6 23.06-2.21 33.02a44.3 44.3 0 0 1-12.11-18.74c-3.72-11.35-2.58-23.1 2.21-33.06a44.1 44.1 0 0 1 12.11 18.78" class="st3"/>
  <use xlink:href="#reuse-34" class="st2"/>
  <use xlink:href="#reuse-34" class="st2"/>
  <use xlink:href="#reuse-35" class="st1"/>
  <use xlink:href="#reuse-35" class="st3"/>
  <path d="m57.09 226.79-.92-.98a46.1 46.1 0 0 1-11.16-20.56c-2.88-11.72-1.12-23.92 4.95-34.35l.68-1.16.92.98c5.42 5.79 9.27 12.9 11.16 20.55 2.86 11.71 1.1 23.91-4.95 34.35l-.67 1.16Zm-6.07-53.68c-5.26 9.71-6.71 20.9-4.07 31.67 1.69 6.9 5.05 13.32 9.75 18.65 5.25-9.72 6.69-20.91 4.07-31.67a44.36 44.36 0 0 0-9.75-18.65" class="st2"/>
  <path d="M34.46 195.16c11.53 7.04 19.19 18.01 22.35 30.11-8.29-.32-16.61-2.69-24.21-7.32-11.54-7.04-19.19-17.99-22.36-30.11 8.3.32 16.62 2.7 24.22 7.32" class="st3"/>
  <use xlink:href="#reuse-36" class="st2"/>
  <use xlink:href="#reuse-36" class="st2"/>
  <path d="M48.88 192.9c7 9.69 9.5 21.21 7.95 32.14a44.4 44.4 0 0 1-17.24-14.19c-7-9.68-9.5-21.22-7.95-32.16 6.65 3.1 12.64 7.85 17.25 14.21Z" class="st3"/>
  <use xlink:href="#reuse-37" class="st2"/>
  <use xlink:href="#reuse-37" class="st2"/>
  <path d="M83.67 223.39c6.1 10.63 7.43 22.64 4.71 33.63-6.48-3.84-12.07-9.33-16.1-16.31-6.12-10.59-7.46-22.61-4.72-33.62a45.34 45.34 0 0 1 16.11 16.29Z" class="st3"/>
  <use xlink:href="#reuse-38" class="st2"/>
  <use xlink:href="#reuse-38" class="st2"/>
  <path d="M58.47 234.46c13.04 3.57 23.44 11.96 29.87 22.71-8.06 1.98-16.72 2.04-25.3-.3-13.05-3.56-23.45-11.96-29.88-22.69a50.04 50.04 0 0 1 25.3.28Z" class="st3"/>
  <use xlink:href="#reuse-39" class="st2"/>
  <use xlink:href="#reuse-39" class="st2"/>
  <path d="M71.69 228.28c9.42 7.35 15.04 17.73 16.61 28.66a44.27 44.27 0 0 1-20.53-8.84c-9.42-7.35-15.04-17.73-16.61-28.66 7.26 1.1 14.34 4.02 20.54 8.84Z" class="st3"/>
  <use xlink:href="#reuse-40" class="st2"/>
  <use xlink:href="#reuse-40" class="st2"/>
  <path d="M128.4 267.99s22.21 14.45 81.64 21.14l3.08 4.64s-52.18-3.09-90.4-21.14l5.67-4.64Z" class="st3"/>
  <use xlink:href="#reuse-41" class="st2"/>
  <use xlink:href="#reuse-41" class="st2"/>
  <path d="M114.27 242.13c8.95 8.38 13.75 19.49 14.36 30.79a45.36 45.36 0 0 1-20.17-10.88c-8.95-8.35-13.76-19.46-14.36-30.79a45.5 45.5 0 0 1 20.17 10.89Z" class="st3"/>
  <use xlink:href="#reuse-42" class="st2"/>
  <use xlink:href="#reuse-42" class="st2"/>
  <path d="M93.42 260.08c13.52-.4 25.93 4.6 35.21 12.99a50.1 50.1 0 0 1-24.28 7.11c-13.51.41-25.93-4.6-35.22-13 7.13-4.25 15.4-6.82 24.29-7.1" class="st3"/>
  <use xlink:href="#reuse-43" class="st2"/>
  <use xlink:href="#reuse-43" class="st2"/>
  <path d="M104.25 250.3c11.16 4.29 19.57 12.58 24.28 22.58-7.27 1.05-14.89.33-22.23-2.46-11.16-4.29-19.57-12.58-24.28-22.58 7.27-1.06 14.89-.35 22.23 2.46" class="st3"/>
  <use xlink:href="#reuse-44" class="st2"/>
  <use xlink:href="#reuse-44" class="st2"/>
  <path d="M163.75 245.65s6.72-16.23 32.51-19.58c25.79-3.37 24.67-21.27 23.55-26.87 0 0 15.7 13.99 30.84-1.12 0 0-35.89-50.36 2.81-112.46l-35.32-31.9-54.39 33.57-54.39-33.57-35.31 31.9c38.69 62.1 2.81 112.46 2.81 112.46 15.14 15.1 30.83 1.12 30.83 1.12-1.12 5.59-2.25 23.49 23.55 26.87 25.79 3.35 32.52 19.58 32.52 19.58Z" class="st3"/>
  <path d="m163.75 248.24-.92-2.2c-.07-.16-6.88-15.75-31.73-18.97-9.9-1.29-16.98-4.83-21.05-10.51-3.84-5.37-4.08-11.35-3.71-15.1-4.86 3.26-17.78 9.74-30.2-2.65l-.6-.6.49-.69c.09-.12 8.93-12.71 12.96-32.65 3.71-18.37 3.99-46.94-15.8-78.7l-.44-.71 36.49-32.96 54.51 33.64 54.5-33.64 36.5 32.96-.44.71c-19.79 31.76-19.52 60.33-15.8 78.7 4.03 19.94 12.87 32.53 12.96 32.65l.49.69-.6.6c-12.42 12.39-25.34 5.91-30.21 2.65.37 3.75.13 9.74-3.71 15.1-4.07 5.68-11.15 9.22-21.05 10.51-24.86 3.23-31.65 18.81-31.72 18.97zm-54.5-51.77-.59 2.94c-.55 2.76-1.37 9.85 3.02 15.98 3.73 5.21 10.35 8.48 19.68 9.7 21.23 2.76 29.8 13.97 32.39 18.4 2.59-4.43 11.15-15.64 32.39-18.4 9.33-1.22 15.95-4.48 19.68-9.7 4.39-6.13 3.57-13.22 3.02-15.98l-.59-2.92 2.23 1.98c.61.54 14.79 12.81 28.88-.5-1.95-2.96-9.16-14.76-12.79-32.61-3.78-18.61-4.11-47.46 15.6-79.53l-34.14-30.84-54.27 33.5-54.28-33.5-34.14 30.84c19.71 32.07 19.38 60.92 15.6 79.53-3.63 17.86-10.84 29.65-12.79 32.61 14.11 13.35 28.26 1.04 28.87.5l2.24-1.99Z" class="st2"/>
  <path d="m163.75 246.95-.46-1.11c-.07-.16-6.95-16.01-32.12-19.27-9.75-1.28-16.72-4.74-20.71-10.31-4.15-5.8-3.99-12.34-3.49-15.86-3.81 2.8-17.42 11.07-30.47-1.96l-.3-.3.25-.34c.09-.12 8.97-12.77 13.03-32.8 3.74-18.47 4.03-47.19-15.85-79.11l-.22-.35 35.9-32.43 54.45 33.61 54.44-33.61 35.91 32.43-.22.36c-19.9 31.94-19.6 60.67-15.85 79.15 4.07 20.02 12.94 32.63 13.02 32.75l.25.34-.3.3c-13.05 13.03-26.67 4.75-30.48 1.96.5 3.52.66 10.06-3.49 15.86-3.98 5.57-10.95 9.04-20.71 10.31-25.18 3.27-32.05 19.11-32.12 19.27zm-55.29-49.11-.29 1.46c-.57 2.83-1.4 10.08 3.1 16.37 3.82 5.33 10.55 8.66 20.02 9.9 22.21 2.88 30.53 15.43 32.46 18.96 1.92-3.53 10.24-16.08 32.45-18.96 9.47-1.24 16.21-4.57 20.02-9.9 4.5-6.29 3.67-13.54 3.1-16.37l-.29-1.46 1.12.99c.62.55 15.33 13.31 29.86-.81-1.46-2.19-9.22-14.42-12.95-32.78-3.78-18.59-4.09-47.45 15.76-79.53l-34.73-31.37-54.33 33.54-54.34-33.54L74.7 85.71c19.85 32.08 19.53 60.94 15.75 79.53-3.73 18.36-11.48 30.59-12.95 32.78 14.53 14.12 29.23 1.36 29.85.81l1.12-.99Z" class="st2"/>
  <path d="M203.92 156.96c-1.62 4.79 2.43 9.96 4.68 11.19 2.51 1.38.94 4.59.94 4.59l-.35.48c-.44 1.51-.84 3.68-1.75 1.55-1.07-3.86-3.6-7.34-5.32-5.53-3.02 4.05-.77 10.21.98 12.09 1.96 2.07-.51 4.65-.51 4.65l-.49.35c-.88 1.31-1.94 3.26-2.15.96.19-4.02-1.15-8.11-3.35-6.94-4.12 2.95-3.88 9.49-2.8 11.82 1.22 2.57-1.93 4.26-1.93 4.26l-.58.18c-1.24.98-2.85 2.51-2.32.25 1.42-3.77 1.4-8.06-1.05-7.61-4.83 1.5-6.64 7.82-6.32 10.35.36 2.82-3.16 3.45-3.16 3.45h-.62c-1.48.55-3.48 1.5-2.29-.49 2.51-3.12 3.83-7.22 1.38-7.57-5.08-.03-8.74 5.4-9.22 7.92-.55 2.81-4.08 2.31-4.08 2.31l-.59-.19c-1.57.07-3.76.35-2.01-1.17 3.37-2.21 5.87-5.68 3.65-6.77-4.8-1.6-9.99 2.44-11.21 4.67-1.38 2.51-4.6.95-4.6.95l-.5-.36c-1.51-.43-3.68-.84-1.54-1.76 3.88-1.05 7.33-3.58 5.55-5.28-4.08-3.02-10.26-.79-12.13.98-2.07 1.95-4.66-.5-4.66-.5l-.35-.51c-1.3-.88-3.27-1.94-.94-2.15 4.03.19 8.09-1.14 6.93-3.32-2.95-4.12-9.52-3.91-11.83-2.79-2.6 1.2-4.29-1.93-4.29-1.93l-.18-.58c-.96-1.23-2.49-2.85-.21-2.33 3.77 1.41 8.05 1.41 7.61-1.03-1.51-4.82-7.84-6.65-10.39-6.3-2.83.33-3.48-3.17-3.48-3.17l.02-.6c-.54-1.47-1.49-3.47.53-2.28 3.13 2.51 7.2 3.81 7.55 1.37.06-5.06-5.41-8.75-7.93-9.2-2.8-.55-2.33-4.07-2.33-4.07l.21-.58c-.07-1.57-.35-3.77 1.19-2.02 2.21 3.38 5.67 5.86 6.76 3.63 1.62-4.79-2.44-9.97-4.69-11.19-2.49-1.38-.96-4.59-.96-4.59l.38-.48c.42-1.51.82-3.7 1.74-1.55 1.07 3.87 3.6 7.32 5.32 5.53 3.02-4.05.78-10.24-.99-12.09-1.94-2.09.53-4.66.53-4.66l.49-.36c.88-1.29 1.94-3.25 2.14-.92-.19 4 1.16 8.07 3.35 6.9 4.13-2.93 3.9-9.5 2.8-11.81-1.21-2.57 1.93-4.26 1.93-4.26l.59-.17c1.23-.98 2.85-2.5 2.32-.24-1.43 3.75-1.4 8.05 1.05 7.6 4.82-1.52 6.64-7.84 6.31-10.37-.35-2.83 3.17-3.46 3.17-3.46h.61c1.47-.55 3.47-1.49 2.26.52-2.5 3.12-3.81 7.19-1.35 7.53 5.06.06 8.75-5.38 9.21-7.89.53-2.81 4.07-2.32 4.07-2.32l.59.19c1.57-.06 3.77-.35 2 1.19-3.35 2.2-5.87 5.69-3.62 6.76 4.8 1.61 9.98-2.43 11.2-4.67 1.39-2.5 4.61-.95 4.61-.95l.5.36c1.51.43 3.67.83 1.53 1.73-3.86 1.08-7.34 3.62-5.54 5.3 4.07 3.04 10.26.78 12.12-.98 2.08-1.93 4.65.52 4.65.52l.36.5c1.31.87 3.25 1.93.93 2.14-4.02-.2-8.09 1.15-6.9 3.33 2.93 4.13 9.5 3.9 11.81 2.81 2.6-1.2 4.28 1.94 4.28 1.94l.2.58c.96 1.22 2.5 2.83.22 2.3-3.76-1.4-8.06-1.38-7.62 1.05 1.52 4.82 7.84 6.64 10.38 6.31 2.84-.35 3.46 3.14 3.46 3.14v.62c.55 1.47 1.5 3.48-.48 2.28-3.14-2.5-7.25-3.82-7.58-1.37-.04 5.07 5.41 8.73 7.92 9.19 2.8.55 2.31 4.08 2.31 4.08l-.18.59c.06 1.57.35 3.76-1.17 2-2.23-3.34-5.7-5.86-6.78-3.63m7.94 16.52s.18-3.9 3.33-4.35c2.53-.38 7.97-3.7 7.74-9.8-.08-2.19-4.45-.6-7.55 1.97-1.43 1.27-1.06-.92-1.06-2.4l.18-.9s-1.05-3.77 1.8-5.16c2.29-1.16 6.43-5.98 4.33-11.74-.75-2.06-4.41.81-6.55 4.21-.97 1.66-1.31-.55-1.76-1.96l-.12-.92s-2.17-3.27.12-5.46c1.82-1.79 4.27-7.67.49-12.47-1.35-1.75-3.93 2.12-4.93 6-.41 1.86-1.42-.11-2.29-1.31l-.38-.84s-3.06-2.43-1.59-5.23c1.19-2.27 1.69-8.6-3.39-12.02-1.82-1.24-3.09 3.23-2.82 7.24.18 1.9-1.4.31-2.6-.56l-.61-.67s-3.68-1.38-3.14-4.5c.43-2.52-1.04-8.7-6.95-10.4-2.12-.6-1.94 4.04-.45 7.77.78 1.74-1.21.74-2.62.27l-.79-.43s-3.93-.19-4.37-3.31c-.37-2.52-3.72-7.95-9.82-7.73-2.21.08-.6 4.44 1.97 7.52 1.27 1.43-.94 1.08-2.42 1.07l-.88-.17s-3.8 1.03-5.2-1.8c-1.13-2.29-5.98-6.43-11.73-4.32-2.08.74.81 4.4 4.22 6.54 1.63.96-.56 1.31-1.98 1.75l-.9.1s-3.29 2.16-5.49-.1c-1.79-1.81-7.69-4.26-12.5-.48-1.75 1.33 2.14 3.93 6.03 4.89 1.87.43-.11 1.43-1.31 2.28l-.84.39s-2.45 3.06-5.24 1.6c-2.28-1.19-8.63-1.7-12.06 3.38-1.23 1.82 3.26 3.08 7.27 2.81 1.92-.18.33 1.38-.55 2.57l-.67.63s-1.39 3.66-4.49 3.13c-2.52-.43-8.74 1.06-10.41 6.94-.61 2.11 4.04 1.93 7.77.44 1.76-.78.76 1.21.27 2.61l-.45.8s-.19 3.91-3.31 4.36c-2.53.37-7.98 3.7-7.75 9.82.07 2.18 4.45.58 7.54-1.98 1.43-1.28 1.09.91 1.06 2.41l-.17.89s1.02 3.78-1.8 5.15c-2.29 1.14-6.45 5.98-4.33 11.74.74 2.05 4.4-.82 6.55-4.21.96-1.65 1.32.54 1.75 1.96l.13.9s2.14 3.29-.12 5.47c-1.82 1.79-4.28 7.65-.49 12.5 1.35 1.72 3.94-2.14 4.93-6.02.41-1.89 1.43.09 2.27 1.32l.4.82s3.05 2.45 1.58 5.23c-1.18 2.26-1.68 8.62 3.41 12.03 1.8 1.22 3.08-3.24 2.82-7.24-.2-1.91 1.38-.34 2.57.56l.63.66s3.65 1.41 3.13 4.49c-.43 2.51 1.04 8.72 6.97 10.4 2.11.6 1.92-4.03.43-7.77-.78-1.76 1.2-.74 2.61-.26l.83.43s3.89.17 4.35 3.31c.36 2.52 3.7 7.95 9.82 7.73 2.21-.08.59-4.42-1.97-7.51-1.28-1.44.92-1.08 2.42-1.08l.9.18s3.76-1.05 5.17 1.8c1.14 2.29 5.99 6.41 11.75 4.31 2.06-.74-.82-4.39-4.21-6.53-1.65-.97.55-1.3 1.96-1.75l.91-.12s3.26-2.15 5.48.12c1.79 1.82 7.67 4.24 12.51.49 1.73-1.34-2.14-3.93-6.04-4.93-1.87-.41.12-1.41 1.34-2.27l.81-.39s2.44-3.05 5.25-1.57c2.27 1.18 8.62 1.67 12.04-3.39 1.24-1.83-3.25-3.09-7.26-2.84-1.91.2-.32-1.39.57-2.58l.66-.62s1.37-3.66 4.49-3.13c2.53.43 8.73-1.05 10.42-6.93.6-2.11-4.05-1.94-7.79-.46-1.75.78-.73-1.2-.26-2.62l.43-.81Z" class="st0"/>
  <path d="M174.43 159.19c1.1-.52 1.63-1.95 1.25-3.35l-3.36-12.62c-.68-2.33 1.13-3.17 1.34-3.26.32-.16.61.09.85 1.06l.78 2.97 2.78 11.27c.06 3.53-.69 5.84-2.22 6.72-2.15 1.22-5.23-.63-5.27-.64l-.66-.41-.23.74c-.55 1.72-1.38 2.75-2.48 3.05-2.43.64-5.54-2.23-5.57-2.26l-.75-.7-.24.99c-.36 1.36-.94 2.18-1.71 2.43-1.3.4-3.05-.77-3.62-1.27l-.71-.6-.28.88c-.32 1.13-.85 1.79-1.51 1.97-1.15.32-2.68-.74-3.17-1.18l-.95.7c.54 1.2 1.03 5.33-.98 8.46-1.59 2.46-4.32 3.69-8.15 3.69-3.13 0-5.35-.86-6.62-2.52-2.41-3.2-.87-8.56-.36-10.35.46-1.65 1.36-2.18 1.57-2.13 0 .02.05.2-.02.59-1.05 2.95-1.56 7.31.48 9.58 1.45 1.59 3.86 1.99 7.19 1.2 2.69-.63 4.49-1.8 5.39-3.44 1.37-2.55.27-5.6-.45-7.63l-.48-1.61c.06-.48.28-.54.36-.55.38-.08 1.06.28 1.45.98 1.3 1.32 2.45 1.76 3.51 1.42 1.62-.52 2.31-2.71 2.45-3.51 0-.05.06-.32.21-.32.17 0 .42.24.49.74.75 1.35 1.53 1.93 2.39 1.95 1.63 0 2.9-2.05 3.73-3.44.45-.69.57-.75.6-.75.22.02.72.64 1.07 1.71 1.71 2.48 3.33 2.17 4.15 1.78 1.67-.8 2.82-3.22 2.47-4.45-.08-.28-.02-.49.18-.56.19-.08.59-.04.8.38 2.02 2.95 3.66 2.59 4.29 2.31ZM185.55 146.26c-.66-.46-1.05-.98-1.09-1.45-.02-.29.08-.55.31-.78l1.75-2.19c.29-.17 1.2.75 1.82 1.34.66.66.55 1.8-.27 2.76-.83 1-1.31 1.19-2.53.31ZM170.47 169.42c.66.66.55 1.79-.24 2.75-.84 1.01-1.33 1.19-2.56.31 0 0-1.16-1.4-1.31-1.59l.55-.63s1.45-1.81 1.64-2.05c.43-.26 1.33.63 1.92 1.21m-8.05 3.28c-.66-.46-1.04-.99-1.09-1.46-.02-.27.08-.54.31-.77l1.76-2.19c.28-.17 1.21.75 1.82 1.34 0 0 .47 1.07.57 1.33-.14.17-.28.35-.28.35l-.55 1.08c-.83 1-1.32 1.19-2.54.32M185.61 157.58c-.58-.57-.67-1.62-.25-3.11.63-2.3 1.55-3.61 2.66-3.81.97-.19 1.99.51 2.58 1.27 1.21 1.62 4.1 6.52 2.91 9.6-.54 1.38-1.89 2.28-4.01 2.66-4.68.41-4.76 3.22-4.85 5.72l-.05 1.13c-.21 3-3.11 7.68-10.17 8.26 0 0-.78-.04-1.01-.05.43-.08 1.8-1.15 1.8-1.15l.74-.4c2.23-1.19 7.38-3.91 7.38-9.19 0-1.36-.34-2.9-1.17-4.62-.08-.21-.13-.43-.13-.6s.05-.33.15-.45c.31-.32 1.12-.42 1.78-.21.06.03 6.07 2.01 7.54-.09.67-.96.21-2.42-1.41-4.43-1.4.02-3.55.38-4.47-.54Z" class="st0"/>
  <path d="M187.45 154.78c-.2.89-.24 1.19.04 1.45.74.7 2.02.4 2.26.32.63-1.72-.17-3.08-1.15-3.26-.56-.11-.91.37-1.15 1.48Z" class="st3"/>
</svg>
