<?xml version="1.0" encoding="utf-8"?>
<!-- Generator: Adobe Illustrator 24.3.0, SVG Export Plug-In . SVG Version: 6.00 Build 0)  -->
<svg version="1.1"
	 id="svg3515" xmlns:cc="http://creativecommons.org/ns#" xmlns:dc="http://purl.org/dc/elements/1.1/" xmlns:rdf="http://www.w3.org/1999/02/22-rdf-syntax-ns#"
	 xmlns="http://www.w3.org/2000/svg" xmlns:xlink="http://www.w3.org/1999/xlink" x="0px" y="0px" viewBox="0 0 325.2 382.8"
	 style="enable-background:new 0 0 325.2 382.8;" xml:space="preserve">
<style type="text/css">
	.st0{clip-path:url(#SVGID_2_);}
	.st1{clip-path:url(#SVGID_4_);}
	.st2{fill:#9A9C9E;}
	.st3{fill:#FFEC00;}
	.st4{fill:#004193;}
	.st5{fill:#009360;}
	.st6{fill:#E30007;}
	.st7{clip-path:url(#SVGID_6_);}
	.st8{fill:#E20010;}
</style>
<g>
	<g>
		<defs>
			<rect id="SVGID_1_" x="9.1" y="-780" width="292" height="309.2"/>
		</defs>
		<clipPath id="SVGID_2_">
			<use xlink:href="#SVGID_1_"  style="overflow:visible;"/>
		</clipPath>
		<g id="Group4" transform="matrix(1.0068994 0 0 .92141432 -10.499754 -438.52673)" class="st0">
			<g>
				<g>
					<defs>
						<rect id="SVGID_3_" x="45" y="371.9" width="259.5" height="60.6"/>
					</defs>
					<clipPath id="SVGID_4_">
						<use xlink:href="#SVGID_3_"  style="overflow:visible;"/>
					</clipPath>
					<g id="Group2" class="st1">
					</g>
				</g>
			</g>
		</g>
	</g>
</g>
<g>
	<path id="path3216" class="st2" d="M143.1,246.8l23.6-13.9V99.6L143,120.4L143.1,246.8L143.1,246.8z"/>
	<path id="path3218" class="st3" d="M166.7,233V99.6l23.7,20.8v103.4L166.7,233z"/>
	<path id="path3220" class="st4" d="M129.9,261.3v-91.6l23.7,21v49L129.9,261.3z M153.2,311.2l12.8,12.5c0,0,16.3-19.8,27.1-25.8
		c10.7-5.9,11.9-8.7,34.7-11.8v-18c0,0-20.6,0-45.2,16.9C158.2,301.8,153.6,311.1,153.2,311.2z"/>
	<path id="path3222" class="st2" d="M106.3,283.2l23.6-21.9v-91.6l-23.7,20.8L106.3,283.2z"/>
</g>
<path id="path3265" class="st2" d="M132.3,293.7L147,305c0,0,15-18,35-30.2c20.9-12.8,45.8-14.4,45.8-14.4l-0.2-16.9
	c0,0-30.2,1.3-53.6,15.3C150.8,272.6,141.2,281.8,132.3,293.7L132.3,293.7z"/>
<path id="path3267" class="st5" d="M275.5,173.4c-2.8-40-44.7-51.8-44.7-51.8s-11.9-49.7-65.5-49.7c-54.4,0-64.7,48.9-64.7,48.9l0,0
	c0,0-44.7,13.9-44.7,57c-0.1,49.6,49.4,60.2,49.4,60.2l1,0.2v-47.7l23.7-20.8l23.7,21v41.7c1.3-0.7,2.6-1.4,3.9-2.1
	c9.4-4.7,16.2-11.5,21-18.9c6.1-8.6,9.8-18.8,10.5-29.7c0.2-2,0.2-3.8,0.2-5c0-0.4-0.1-0.9-0.1-1.3c-1.4-25.8-20.3-47.3-46-55
	l23.7-20.8l23.7,20.8v62.1l14.1-12.9v50.6c-4.8,1-9.8,2.2-15,3.8c-15.7,4.5-28.8,10.9-37.1,16.3c-2.2,1.5-4.4,2.9-6.4,4.4
	c-13.3,9-26.3,20.7-37.8,35.8c-1.3,1.6-1.9,2.5-1.9,2.5l19,7.5c30-40.9,73.3-53.2,98.3-54.2C251,235.5,278,208.6,275.5,173.4
	L275.5,173.4z"/>
<path class="st6" d="M213.3,221.3c4.7,0,8.7-1.4,13.3-2.1c0.6-0.1,1.1-0.1,1.6,0v-28.9l-23.7-20.8v52.6
	C207.4,221.6,210.3,221.3,213.3,221.3z"/>
<path id="path3272" class="st2" d="M190.4,223.8c4.9-1.5,9.6-2.6,14.1-3.5v-50.6l-14.1,12.9V223.8z"/>
<g>
	<g>
		<path class="st4" d="M23.6,97.6c0-0.2,0.1-0.3,0.1-0.5c0-0.8-0.2-1.5-0.6-2.1c-0.1-0.1-0.2-0.2-0.4-0.4c-5.5-4.7-10.9-9.3-16.4-14
			c-0.1-0.1-0.2-0.2-0.3-0.3c-0.3-0.2-0.7-0.3-1-0.4s-0.8,0-1.5,0C3.2,79.9,3,80,2.8,80c2.1-2.2,4.3-4.4,6.5-6.5c2.1-2,4-3.3,5.7-4
			s3.2-0.9,4.5-0.7c1.3,0.2,2.4,0.8,3.3,1.7c1,1,1.5,2.2,1.5,3.5s-0.2,2.5-0.6,3.6s-1,2.1-1.8,3.1s-1.4,1.6-1.7,2
			c-0.3,0.3-0.6,0.5-1,0.8c-0.3,0.2-0.7,0.4-1,0.6c0.1-0.1,0.2-0.2,0.2-0.3c0.1-0.2,0.3-0.3,0.4-0.5c1.2-1.5,1.9-3,2.2-4.3
			c0.3-1.3,0.2-2.4-0.2-3.1c-0.4-0.8-0.8-1.3-1.2-1.7c-0.9-0.8-1.9-1.3-3.3-1.2c-1.3,0-2.4,0.4-3.3,1c-0.9,0.6-1.4,1-1.6,1.2
			c-0.1,0.1-0.3,0.3-0.6,0.5c-0.2,0.2-0.5,0.5-0.9,0.9c-0.2,0.2-0.4,0.5-0.6,0.7c5.4,4.8,10.8,9.7,16.2,14.5
			c0.1,0.1,0.3,0.2,0.4,0.4c0.6,0.4,1.4,0.5,2.3,0.4c0.2,0,0.4-0.1,0.6-0.1C27.2,93.9,25.4,95.7,23.6,97.6z"/>
		<path class="st4" d="M43.6,79.6c0.1-0.2,0.1-0.3,0.2-0.5c0.2-0.7,0.1-1.3,0-1.7c-0.2-0.5-0.3-0.8-0.5-1c-4.7-5.4-9.3-10.7-14-16.1
			c-0.1-0.1-0.1-0.2-0.2-0.3L29,59.9c-0.3-0.2-0.6-0.4-0.9-0.5s-0.8-0.2-1.5-0.2c-0.2,0-0.4,0-0.6,0c4.4-3.4,8.9-6.6,13.4-9.7
			c1,1.4,2.1,2.8,3.1,4.1c-0.1-0.1-0.3-0.1-0.4-0.2c-0.7-0.2-1.3-0.3-1.8-0.3c-0.5,0.1-1.1,0.3-1.8,0.6c-0.5,0.3-0.9,0.6-1.4,1
			c-1.4,1-2.8,2-4.1,3c1.7,2,3.4,4,5,6.1c1.9-1.4,3.8-2.8,5.8-4.1c0.9,1.1,1.7,2.2,2.6,3.3c-0.1,0-0.2-0.1-0.3-0.1s-0.2,0-0.2-0.1
			c-0.6-0.1-1.1,0-1.6,0.1s-1.1,0.4-1.7,0.9c-0.2,0.1-0.4,0.3-0.5,0.4c-0.7,0.5-1.5,1.1-2.2,1.6c2.1,2.6,4.3,5.1,6.4,7.7
			c0.2-0.1,0.4-0.2,0.6-0.3c1.4-0.7,2.6-1.4,3.6-2.1c1.4-1,2.5-2,3.3-3s1.4-2.2,1.8-3.4c0.5,1.7,1,3.4,1.5,5.2
			C52.5,72.9,48,76.2,43.6,79.6z"/>
		<path class="st4" d="M66,64.4c0.1-0.2,0.2-0.3,0.2-0.5c0.3-0.8,0.3-1.5,0-2.2c-0.1-0.1-0.2-0.3-0.3-0.4c-3.8-6-7.6-11.9-11.3-17.9
			c-0.1-0.1-0.3-0.2-0.4-0.4c-0.3-0.3-0.5-0.5-0.8-0.6c-0.2-0.1-0.7-0.2-1.4-0.4c-0.2,0-0.4-0.1-0.5-0.1c2.7-1.5,5.3-3,8.1-4.4
			c1.6-0.8,3-1.4,4.4-1.7c1.3-0.3,2.5-0.3,3.7-0.1c1.1,0.2,2.1,0.6,2.9,1.2c0.8,0.6,1.4,1.3,1.8,2.1c0.5,1,0.7,2,0.6,3.1
			s-0.4,2.1-1,2.8c-0.6,0.8-1.2,1.5-1.8,2c-0.5,0.4-0.9,0.8-1.4,1.1c1.4,0.5,2.7,1.1,4.1,1.6c1.5,0.6,3.3,1.3,5.6,2
			c2.3,0.8,4,1.3,5.2,1.6s2.3,0.4,3.6,0.5c-1.3,0.6-2.6,1.1-3.9,1.7c-0.3,0.1-0.6,0.3-1,0.4c-0.3,0.1-0.6,0.2-0.9,0.2
			c-0.4,0-0.6,0-0.7,0s-0.4-0.1-0.8-0.1c-0.3-0.1-0.6-0.1-1-0.2c-0.9-0.2-2-0.6-3.2-1.1c-1.3-0.5-3.7-1.6-7.3-3.1
			c-0.7-0.3-1.3-0.6-2-0.8c-0.4-0.2-0.7-0.3-1.1-0.5s-0.9-0.4-1.3-0.6c0.1-0.1,0.2-0.1,0.2-0.2c0.1,0,0.1-0.1,0.2-0.1
			c0.2-0.1,0.3-0.3,0.5-0.4c0.2-0.2,0.4-0.3,0.6-0.5c0.3-0.2,0.6-0.5,0.8-0.7c1.2-1.1,1.9-2.3,2.3-3.5c0.3-1.2,0.2-2.3-0.3-3.3
			c-0.4-0.8-1.1-1.4-1.9-1.7c-0.9-0.4-1.8-0.4-2.8-0.2c-1,0.2-2.3,0.7-3.9,1.6c-0.3,0.1-0.5,0.3-0.8,0.4c-0.1,0.1-0.2,0.1-0.3,0.2
			c3.6,6,7.3,12.1,10.9,18.1c0.3,0.4,0.6,0.7,0.9,1c0.4,0.2,0.8,0.4,1.4,0.5c0.2,0,0.4,0,0.5,0C70.2,62.1,68.1,63.2,66,64.4z"/>
		<path class="st4" d="M92.8,51.7c0.1-0.1,0.2-0.3,0.3-0.4c0.4-0.7,0.6-1.5,0.4-2.2c0-0.2-0.1-0.3-0.1-0.5c-2.7-6.5-5.4-13-8.2-19.5
			c0-0.1-0.1-0.2-0.1-0.3c0-0.1-0.1-0.1-0.1-0.2c-0.2-0.3-0.4-0.5-0.7-0.7c-0.3-0.2-0.7-0.4-1.3-0.5c-0.2,0-0.4-0.1-0.5-0.1
			c2.2-0.9,4.5-1.7,6.8-2.5c0.6-0.2,1.2-0.4,1.8-0.6c2.9-1,5.3-1.3,7.1-0.9c1.8,0.3,3,1,3.6,1.9s0.9,1.5,1,1.9
			c0.6,1.8,0,3.4-1.7,4.9c-0.1,0.1-0.3,0.2-0.4,0.3c0.6-0.1,1.4-0.1,2.5-0.1c1.1,0.1,2.2,0.5,3.4,1.5c1.1,0.9,1.9,2.1,2.3,3.5
			c0.6,2,0.4,3.8-0.4,5.5s-2,3-3.4,3.9s-3.7,1.9-6.9,3C96.4,50.3,94.6,51,92.8,51.7z M92.3,35.3c0.1,0,0.2,0,0.3,0
			c0.1,0,0.1,0,0.2-0.1c0.1,0,0.3-0.1,0.4-0.1c2.1-0.7,3.6-1.6,4.4-2.7c0.9-1.1,1.1-2.2,0.7-3.4c-0.1-0.3-0.5-1-1.2-1.9
			c-0.7-1-1.7-1.3-3.1-1.1c-1.4,0.3-2.2,0.5-2.5,0.6s-0.6,0.2-0.9,0.3c-0.3,0.1-0.6,0.2-0.8,0.3c-0.2,0.1-0.4,0.2-0.6,0.3
			C90.2,30,91.3,32.7,92.3,35.3z M96.8,46.8c0.1,0,0.3,0,0.4,0c0.2,0,0.4-0.1,0.6-0.1c0.9-0.1,1.7-0.3,2.5-0.6
			c1.5-0.5,2.7-1.2,3.5-2.1c0.8-0.9,1.2-1.8,1.3-2.5c0-0.8,0-1.4,0-1.8c-0.1-0.4-0.1-0.7-0.2-1c-0.3-1-1-1.9-1.9-2.5
			s-1.8-0.9-2.7-0.8c-0.9,0.1-1.7,0.2-2.2,0.3c-0.6,0.1-1.5,0.4-2.7,0.8c-0.8,0.3-1.5,0.6-2.3,0.9C94.4,40.6,95.6,43.7,96.8,46.8z"
			/>
		<path class="st4" d="M118.2,43.9c0.2-0.1,0.3-0.3,0.5-0.4c0.7-0.7,1.1-1.2,1.3-1.5c0.2-0.3,0.3-0.6,0.4-0.8s0.1-0.4,0.1-0.5
			c1.2-7.4,2.7-14.7,4.6-22.1c0-0.1,0-0.1,0.1-0.2c0.1-0.3,0.1-0.6,0-0.9c-0.1-0.4-0.4-0.8-0.9-1.3c-0.1-0.1-0.3-0.2-0.4-0.3
			c2.2-0.4,4.4-0.7,6.6-1c4.8,7.3,9.3,14.7,13.3,22.3c0.1,0.1,0.2,0.2,0.3,0.4s0.3,0.4,0.6,0.7s0.9,0.6,1.8,1.1
			c0.2,0.1,0.4,0.2,0.6,0.2c-2.8,0.2-5.6,0.5-8.3,0.8c0.1-0.1,0.3-0.2,0.4-0.3c0.5-0.5,0.8-1.1,0.7-1.7c0-0.1-0.1-0.3-0.1-0.5
			c0-0.1-0.1-0.1-0.1-0.2c-1.3-2.4-2.6-4.8-4-7.2c-3.4,0.4-6.8,1-10.1,1.6c-0.5,2.7-0.9,5.3-1.3,8c0,0.2-0.1,0.3,0,0.5
			c0.1,0.7,0.5,1.3,1.2,1.7c0.2,0.1,0.3,0.1,0.5,0.2C123.1,42.8,120.7,43.3,118.2,43.9z M125.9,29.1c2.7-0.5,5.4-0.9,8-1.3
			c-1.8-3.1-3.7-6.2-5.7-9.3C127.4,22,126.6,25.5,125.9,29.1z"/>
		<path class="st4" d="M151.8,12.7c3.4-0.2,6.8-0.2,10.2-0.2c5.8,0,10.3,1.4,13.4,3.9c3,2.5,4.3,5.7,3.9,9.5
			c-0.1,0.7-0.1,1.2-0.2,1.5c-0.1,0.3-0.4,1.5-1,3.5s-2.3,3.8-5.1,5.5c-2.7,1.7-6.4,2.4-11,2.4c-2.9,0-5.9,0.1-8.8,0.2
			c0.1-0.1,0.2-0.2,0.3-0.3c0.5-0.5,0.9-1.2,1-1.9c0-0.1,0.1-0.3,0.1-0.4c-0.3-7-0.5-13.9-0.8-20.9c0-0.2,0-0.3,0-0.5
			c-0.1-0.4-0.3-0.7-0.5-0.9s-0.6-0.6-1.1-1C152.1,12.9,152,12.8,151.8,12.7z M158.7,35.7c0.1,0,0.3,0,0.4,0.1c0.1,0,0.2,0,0.4,0
			c0.5,0,1,0.1,1.5,0.1c4,0,7-0.6,9.2-1.8c2.1-1.2,3.5-2.7,4-4.6s0.8-3.1,0.8-3.9c0.2-2.6-0.6-4.8-2.3-6.6c-1.7-1.8-3.8-2.9-6.1-3.2
			s-3.9-0.4-4.9-0.4c-0.6,0-1.2,0-1.8,0.1s-1.1,0.2-1.6,0.3C158.4,22.4,158.5,29,158.7,35.7z"/>
		<path class="st4" d="M185,40.1c0.2-0.1,0.4-0.2,0.6-0.2c0.9-0.4,1.5-0.7,1.7-1c0.3-0.2,0.5-0.5,0.6-0.7c0.2-0.2,0.3-0.3,0.3-0.4
			c3.9-6.5,8.1-12.8,12.6-19.1c0-0.1,0.1-0.1,0.1-0.2c0.2-0.3,0.3-0.5,0.3-0.8c0.1-0.4-0.1-0.9-0.4-1.6c-0.1-0.1-0.2-0.3-0.3-0.4
			c2.2,0.4,4.4,0.8,6.5,1.2c1.8,8.4,3.2,16.9,4.1,25.3c0,0.1,0.1,0.3,0.1,0.4c0.1,0.2,0.2,0.5,0.3,0.8c0.2,0.4,0.6,0.9,1.3,1.6
			c0.2,0.1,0.3,0.3,0.5,0.4c-2.7-0.7-5.4-1.4-8.2-2c0.2-0.1,0.3-0.1,0.5-0.2c0.7-0.3,1.1-0.8,1.3-1.4c0-0.1,0-0.3,0.1-0.5
			c0-0.1,0-0.2,0-0.2c-0.3-2.7-0.7-5.4-1.1-8.1c-3.3-0.7-6.7-1.4-10.1-1.9c-1.5,2.3-2.9,4.7-4.3,7c-0.1,0.1-0.2,0.3-0.2,0.5
			c-0.2,0.7,0,1.3,0.5,2c0.1,0.1,0.3,0.2,0.4,0.4C190,40.7,187.5,40.4,185,40.1z M197.7,28.9c2.7,0.5,5.3,1,8,1.5
			c-0.5-3.5-1.1-7.1-1.8-10.6C201.7,22.8,199.7,25.8,197.7,28.9z"/>
		<path class="st4" d="M220.2,47.6c0.2,0,0.3-0.1,0.5-0.1c0.8-0.3,1.4-0.8,1.8-1.4c0.1-0.2,0.2-0.3,0.2-0.5
			c2.4-6.6,4.7-13.2,7.1-19.8c0-0.1,0.1-0.2,0.1-0.3v-0.1c0.2-0.5,0-1.2-0.5-2.2c-0.1-0.2-0.2-0.3-0.2-0.5c1.7,0.5,3.3,1.1,5,1.6
			c3.3,8.1,6,16.2,8.1,24.3c2.5-5.1,5-10.2,7.4-15.3c0,0,0-0.1,0.1-0.1c0.1-0.1,0.1-0.2,0.2-0.3c0.1-0.4,0.1-0.7,0.1-1
			s-0.2-0.7-0.4-1.2c-0.1-0.2-0.1-0.3-0.2-0.5c2.1,0.9,4.2,1.8,6.3,2.8c-0.2,0.1-0.3,0.1-0.5,0.2c-0.6,0.2-1,0.4-1.3,0.5
			c-0.3,0.2-0.5,0.4-0.7,0.7c-0.1,0.2-0.2,0.3-0.2,0.5c-3.7,7.4-7.5,14.8-11.2,22.2c0-0.1-0.1-0.1-0.1-0.2c0-0.1-0.1-0.1-0.1-0.2
			c-1.2-1.4-2.1-3.4-2.9-5.9c-0.1-0.3-0.2-0.6-0.3-1c0-0.1-0.1-0.2-0.1-0.3c-1.7-6.3-3.8-12.7-6.3-19c-2.1,5.4-4.1,10.8-6.2,16.2
			c-0.1,0.3-0.2,0.6-0.2,0.9c0,0.3,0.1,0.6,0.2,0.9c0.1,0.3,0.2,0.6,0.4,0.9c0.1,0.1,0.2,0.3,0.3,0.4
			C224.5,49,222.4,48.3,220.2,47.6z"/>
		<path class="st4" d="M250.2,59.8c0.2,0,0.4,0,0.6,0c1-0.1,1.7-0.1,2-0.3c0.3-0.1,0.6-0.3,0.9-0.4c0.2-0.1,0.4-0.2,0.5-0.3
			c6.2-4.6,12.7-9.1,19.4-13.2c0.1,0,0.1-0.1,0.2-0.1c0.3-0.2,0.5-0.4,0.6-0.7c0.2-0.3,0.3-0.8,0.2-1.6c0-0.2-0.1-0.3-0.1-0.5
			c2,1.1,3.9,2.3,5.8,3.5c-1.5,8.6-3.3,17-5.6,25.2c0,0.1,0,0.3-0.1,0.5c0,0.2,0,0.5,0,0.9s0.2,1.1,0.6,2c0.1,0.2,0.2,0.4,0.3,0.6
			c-2.4-1.7-4.7-3.4-7.2-5c0.2,0,0.4,0,0.6,0c0.8,0,1.4-0.3,1.8-0.8c0.1-0.1,0.1-0.2,0.3-0.5c0-0.1,0-0.1,0.1-0.2
			c0.7-2.6,1.4-5.3,2-8c-3-1.9-6-3.7-9-5.5c-2.3,1.6-4.6,3.3-6.8,5c-0.2,0.1-0.3,0.2-0.4,0.4c-0.4,0.6-0.5,1.2-0.3,2
			c0.1,0.2,0.2,0.3,0.2,0.5C254.8,62.2,252.5,61,250.2,59.8z M266.7,53.9c2.4,1.4,4.8,2.9,7.2,4.4c0.8-3.5,1.6-7,2.2-10.6
			C272.9,49.7,269.8,51.8,266.7,53.9z"/>
		<path class="st4" d="M281.5,79.9c0.2,0,0.4,0,0.6,0.1c0.9,0,1.6-0.2,2.2-0.6c0.1-0.1,0.3-0.2,0.4-0.3c4.8-5.3,9.6-10.6,14.4-15.9
			c0.1-0.1,0.2-0.2,0.3-0.3l0.1-0.1c0.4-0.4,0.5-1.2,0.3-2.3c0-0.2,0-0.4-0.1-0.5c1.4,1.1,2.8,2.3,4.2,3.4
			c0.2,8.9-0.2,17.6-1.2,26.1c4.4-3.8,8.7-7.7,13.1-11.5l0.1-0.1c0.1-0.1,0.2-0.2,0.3-0.2c0.2-0.3,0.4-0.6,0.4-0.9
			c0.1-0.3,0.1-0.7,0.1-1.3c0-0.2,0-0.3,0-0.5c1.7,1.7,3.5,3.4,5.1,5.1c-0.2,0-0.4,0-0.6,0c-0.7-0.1-1.1-0.1-1.5,0
			c-0.3,0-0.6,0.2-1,0.4c-0.1,0.1-0.3,0.2-0.4,0.3c-6.5,5.5-12.9,11-19.4,16.5c0-0.1,0-0.1-0.1-0.2c0-0.1,0-0.1-0.1-0.2
			c-0.6-1.8-0.8-4.1-0.6-6.8c0-0.3,0.1-0.7,0.1-1c0-0.1,0-0.2,0-0.3c0.7-6.7,1-13.5,0.9-20.4c-4,4.3-8.1,8.6-12.1,12.9
			c-0.2,0.2-0.4,0.5-0.5,0.8s-0.2,0.6-0.2,0.9s0,0.6,0.1,1c0,0.2,0.1,0.3,0.1,0.5C285.2,82.8,283.4,81.3,281.5,79.9z"/>
	</g>
</g>
<g>
	<g>
		<path class="st4" d="M40.5,326.6c0.2,0,0.4,0.1,0.5,0.1c0.9,0.1,1.6-0.1,2.1-0.5c0.1-0.1,0.2-0.2,0.3-0.3
			c4.3-5.1,8.5-10.2,12.8-15.3c0.1-0.1,0.2-0.2,0.3-0.3c0.2-0.3,0.3-0.6,0.4-0.9c0.1-0.3,0.1-0.7,0-1.3c0-0.2,0-0.3,0-0.5
			c1.9,1.6,3.7,3.1,5.7,4.6c1.8,1.4,3.1,2.7,3.8,4c0.7,1.3,1.1,2.5,1.1,3.6c0,1.2-0.3,2.2-1,3.2c-0.7,1.1-1.7,1.8-2.9,2.1
			c-1.2,0.3-2.3,0.4-3.4,0.2c-1.1-0.2-2.1-0.6-3.1-1.1c-1-0.6-1.7-1-2-1.3c-0.3-0.2-0.6-0.5-0.8-0.8s-0.4-0.6-0.6-0.9
			c0.1,0.1,0.2,0.1,0.3,0.2c0.2,0.1,0.3,0.2,0.5,0.3c1.6,0.9,3,1.3,4.2,1.4c1.3,0,2.2-0.2,2.9-0.7s1.1-0.9,1.4-1.3
			c0.7-0.9,0.9-1.9,0.8-3c-0.1-1.1-0.5-2-1.1-2.6s-1-1-1.1-1.1s-0.3-0.2-0.5-0.4c-0.2-0.2-0.5-0.4-0.8-0.6c-0.2-0.1-0.4-0.3-0.6-0.4
			c-4.2,5.2-8.4,10.5-12.6,15.7c-0.1,0.1-0.2,0.3-0.3,0.4c-0.3,0.6-0.3,1.3-0.1,2.2c0.1,0.2,0.2,0.4,0.2,0.5
			C44.6,330,42.5,328.3,40.5,326.6z"/>
		<path class="st4" d="M76.7,322.1c1.9,1.2,3.9,2.4,5.9,3.5c-0.2,0-0.3,0-0.5,0.1c-0.5,0.1-0.8,0.2-1.1,0.3
			c-0.3,0.1-0.5,0.3-0.8,0.6c-0.1,0.1-0.2,0.3-0.2,0.4c-2.4,4.1-4.7,8.1-7.1,12.2c-0.1,0.2-0.2,0.3-0.3,0.5
			c-0.8,1.3-0.9,2.8-0.3,4.3s1.8,2.8,3.7,3.8c0.8,0.4,1.9,0.8,3.1,1.1c1.2,0.3,2.4,0.3,3.6-0.2c1.2-0.4,2-1.3,2.6-2.5
			c0.1-0.2,0.2-0.4,0.3-0.6c2-4.1,4-8.3,6-12.4c0-0.1,0.1-0.1,0.1-0.2s0.1-0.1,0.1-0.2c0.2-0.6,0.2-1.3-0.1-2
			c-0.1-0.1-0.1-0.3-0.2-0.4c1.9,1,3.9,1.9,5.8,2.8c-0.1,0-0.3,0.1-0.4,0.1c-0.4,0.1-0.8,0.3-1.1,0.5c-0.3,0.2-0.5,0.4-0.7,0.7
			c-0.1,0.1-0.1,0.3-0.2,0.4c-2.8,6.1-5.6,12.1-8.3,18.2c0,0.1-0.1,0.2-0.1,0.3c0,0.1,0,0.1-0.1,0.2c-0.1,0.3-0.1,0.6,0,1
			s0.3,0.8,0.6,1.3c0.1,0.1,0.2,0.3,0.3,0.4c-1.9-0.8-3.8-1.7-5.6-2.6c0.3-0.6,0.6-1.2,0.9-1.9c-0.8,0.3-1.8,0.4-2.8,0.3
			c-1.1-0.1-2.1-0.3-3-0.6c-0.9-0.3-1.7-0.6-2.2-0.9s-0.8-0.4-0.9-0.5c-0.7-0.4-1.8-1.2-3.3-2.3c-1.5-1.2-2.4-2.7-2.7-4.5
			c-0.3-1.8,0.2-3.9,1.7-6.3c2.4-4,4.9-7.9,7.3-11.9c0.1-0.1,0.2-0.3,0.3-0.4c0.2-0.6,0.2-1.3-0.1-2.1
			C76.8,322.5,76.8,322.3,76.7,322.1z"/>
		<path class="st4" d="M102.2,340.4c1-1.3,2.1-2.6,3.1-3.8c5.7,2.2,11.6,4.1,17.5,5.7c-0.9,1.5-1.8,2.9-2.8,4.4
			c-0.2-0.8-0.6-1.4-1.1-1.9s-1.4-0.9-2.5-1.3c-0.4-0.1-0.7-0.2-1-0.3c-0.3-0.1-0.6-0.2-0.8-0.3c-0.2-0.1-0.3-0.1-0.5-0.2
			c-2,6.2-4,12.4-6,18.6c0,0.2-0.1,0.3-0.1,0.5c0,0.5,0,0.8,0.1,1.1c0.1,0.3,0.3,0.6,0.7,1c0.1,0.1,0.3,0.3,0.4,0.4
			c-2.5-0.8-4.9-1.6-7.3-2.4c0.2,0,0.3-0.1,0.5-0.1c0.7-0.3,1.3-0.7,1.7-1.3c0-0.1,0.1-0.2,0.1-0.3v-0.1c2.1-6.1,4.2-12.3,6.3-18.4
			c-0.1-0.1-0.3-0.2-0.4-0.3c-0.3-0.1-0.7-0.2-1-0.3c-1.6-0.6-2.8-0.9-3.8-1C104.2,340,103.2,340.1,102.2,340.4z"/>
		<path class="st4" d="M124.2,368.4c0.2-0.1,0.4-0.1,0.5-0.2c0.8-0.3,1.3-0.8,1.6-1.4c0-0.2,0.1-0.3,0.1-0.5
			c1.4-6.5,2.8-13,4.2-19.5c0-0.2,0-0.3,0-0.5c0-0.4,0-0.7-0.1-0.9c-0.1-0.2-0.3-0.6-0.5-1.1c-0.1-0.1-0.2-0.3-0.2-0.4
			c2.4,0.5,4.7,1,7.1,1.4c1.4,0.2,2.6,0.6,3.5,1.1c1,0.5,1.8,1.1,2.4,1.8c0.6,0.7,1.1,1.5,1.4,2.4c0.3,0.9,0.3,1.7,0.2,2.5
			c-0.1,1-0.5,1.9-1.2,2.8c-0.6,0.8-1.4,1.4-2.2,1.7c-0.8,0.3-1.7,0.5-2.4,0.6c-0.5,0-1.1,0.1-1.6,0.1c0.7,1.2,1.4,2.3,2.1,3.5
			c0.8,1.2,1.8,2.8,3.3,4.5c1.5,1.8,2.6,3,3.5,3.8s1.8,1.5,2.9,2.1c-1.5-0.1-3-0.3-4.5-0.5c-0.4,0-0.7-0.1-1.1-0.1
			c-0.3,0-0.6-0.1-0.9-0.3c-0.3-0.2-0.5-0.3-0.6-0.4s-0.3-0.2-0.6-0.5c-0.2-0.2-0.5-0.4-0.7-0.6c-0.6-0.6-1.3-1.5-2-2.5
			c-0.7-1.1-2-3.2-3.7-6.4c-0.3-0.6-0.6-1.2-0.9-1.8c-0.2-0.3-0.3-0.6-0.5-1s-0.3-0.8-0.5-1.2c0.1,0,0.2,0,0.3,0s0.1,0,0.2,0
			c0.2,0,0.4,0,0.6,0c0.2,0,0.4,0,0.7,0s0.7,0,1-0.1c1.5-0.2,2.7-0.6,3.6-1.4c0.9-0.8,1.4-1.7,1.6-2.7c0.1-0.8,0-1.6-0.4-2.3
			c-0.4-0.7-0.9-1.3-1.7-1.7c-0.7-0.4-1.8-0.7-3.3-1c-0.2,0-0.5-0.1-0.7-0.1c-0.1,0-0.2,0-0.3-0.1c-1.3,6.5-2.5,13-3.8,19.5
			c-0.1,0.5-0.1,0.9,0.1,1.3c0.1,0.4,0.4,0.8,0.8,1.2c0.1,0.1,0.3,0.2,0.4,0.4C129.1,369.4,126.6,368.9,124.2,368.4z"/>
		<path class="st4" d="M152.5,372.6c0.2-0.1,0.4-0.2,0.6-0.2c0.9-0.4,1.5-0.8,1.8-1c0.2-0.2,0.4-0.5,0.6-0.7
			c0.2-0.2,0.3-0.3,0.3-0.4c3.4-6.4,6.4-12.9,9.2-19.5c0-0.1,0-0.1,0.1-0.2c0.1-0.3,0.1-0.6,0.1-0.8c0-0.3-0.2-0.8-0.5-1.4
			c-0.1-0.1-0.2-0.2-0.3-0.4c1.8,0,3.6,0,5.3,0c3.1,7.5,6.5,14.9,10.3,22.1c0.1,0.1,0.1,0.2,0.3,0.4c0.1,0.2,0.3,0.4,0.6,0.7
			c0.3,0.3,0.9,0.6,1.8,1c0.2,0.1,0.4,0.2,0.6,0.2c-3,0.3-5.9,0.4-8.9,0.6c0.2-0.1,0.3-0.2,0.5-0.3c0.6-0.5,0.9-1,0.9-1.6
			c0-0.1,0-0.3-0.1-0.5c0-0.1-0.1-0.1-0.1-0.2c-1.1-2.4-2.2-4.8-3.3-7.2c-3.3,0.1-6.5,0.1-9.8,0c-1,2.4-2.1,4.8-3.2,7.2
			c-0.1,0.1-0.1,0.3-0.1,0.5c-0.1,0.7,0.2,1.3,0.8,1.8c0.2,0.1,0.3,0.2,0.5,0.3C157.8,372.9,155.1,372.8,152.5,372.6z M163.7,360.7
			c2.5,0,5,0,7.5,0c-1.3-3.1-2.6-6.3-3.8-9.5C166.3,354.4,165,357.5,163.7,360.7z"/>
		<path class="st4" d="M189.4,380.1c0.1-0.1,0.2-0.2,0.3-0.3c0.2-0.2,0.4-0.4,0.6-0.7c0.5-0.6,0.9-1.1,1.2-1.5
			c0.3-0.5,0.5-1.1,0.7-1.7c0.2-0.7,0.3-1.4,0.4-2.1c0-0.7,0-1.5-0.1-2.4c-1-7.4-2-14.9-3-22.3c-0.1-0.2-0.1-0.3-0.2-0.5
			c-0.1-0.4-0.3-0.7-0.4-0.9c-0.1-0.2-0.4-0.4-0.8-0.8c-0.1-0.1-0.2-0.2-0.3-0.3c2-0.2,3.9-0.5,5.9-0.8c-0.1,0.1-0.2,0.3-0.3,0.4
			c-0.4,0.7-0.6,1.3-0.6,2c0,0.1,0,0.2,0,0.2c0,0.1,0,0.2,0,0.2c1.3,8.4,2.6,16.8,3.9,25.2c0.1,0.9-0.2,1.9-1.1,2.9
			c-0.9,1-2,1.8-3.3,2.3C191.2,379.6,190.1,379.9,189.4,380.1z"/>
		<path class="st4" d="M205.5,369.1c0.2-0.1,0.3-0.3,0.5-0.4c0.8-0.7,1.3-1.1,1.4-1.4c0.2-0.3,0.3-0.6,0.4-0.8
			c0.1-0.2,0.2-0.4,0.2-0.5c1.5-7.1,2.7-14.2,3.6-21.3c0-0.1,0-0.1,0-0.2c0-0.3,0-0.6-0.1-0.8c-0.1-0.3-0.4-0.7-0.9-1.2
			c-0.1-0.1-0.2-0.2-0.4-0.3c1.7-0.5,3.5-1,5.2-1.5c5,6.4,10.4,12.5,16.1,18.5c0.1,0.1,0.2,0.2,0.4,0.3c0.2,0.1,0.4,0.3,0.8,0.5
			c0.4,0.2,1,0.3,2.1,0.5c0.2,0,0.5,0,0.7,0c-2.8,1.1-5.7,2.1-8.5,3c0.1-0.1,0.2-0.3,0.4-0.4c0.5-0.6,0.6-1.2,0.4-1.8
			c0-0.1-0.1-0.2-0.2-0.4c-0.1-0.1-0.1-0.1-0.2-0.2c-1.7-2-3.5-4-5.1-6c-3.1,1-6.3,1.9-9.5,2.7c-0.3,2.6-0.7,5.2-1.1,7.8
			c-0.1,0.2-0.1,0.3,0,0.5c0.1,0.7,0.5,1.2,1.2,1.5c0.2,0.1,0.3,0.1,0.5,0.2C210.8,368,208.2,368.6,205.5,369.1z M213.2,354.7
			c2.4-0.6,4.9-1.3,7.3-2.1c-2.1-2.7-4.2-5.4-6.2-8.1C214,347.8,213.6,351.3,213.2,354.7z"/>
		<path class="st4" d="M229.5,335.8c1.8-0.7,3.6-1.5,5.4-2.3c3.6,2.4,7.3,4.7,11.1,6.9c0.5-3.3,1-6.7,1.4-10c0-0.1,0-0.2,0-0.2
			c0-0.3,0-0.6-0.2-0.9s-0.6-0.6-1.3-0.8c-0.2,0-0.3-0.1-0.5-0.1c1.8-1,3.6-1.9,5.4-3c-0.5,5.6-1.2,11.3-2.2,17
			c1.3,2.6,2.6,5.1,3.9,7.7c0.1,0.2,0.2,0.3,0.3,0.4c0.4,0.5,1,0.9,2,1c0.2,0,0.4,0,0.5,0c-2.4,1.2-4.8,2.4-7.2,3.5
			c0.1-0.1,0.2-0.3,0.3-0.4c0.4-0.7,0.6-1.4,0.4-2.2c0-0.1,0-0.3-0.1-0.4c-1.3-2.7-2.5-5.3-3.8-8c-4-2.2-7.9-4.6-11.7-7
			c0,0-0.1,0-0.1-0.1c-0.2-0.1-0.3-0.1-0.5-0.2c-0.3-0.1-0.6-0.3-1-0.4c-0.1,0-0.2-0.1-0.3-0.1c-0.3-0.1-0.5-0.1-0.8-0.2
			S229.9,335.8,229.5,335.8C229.8,335.9,229.7,335.9,229.5,335.8z"/>
		<path class="st4" d="M266.4,345.4c0.1-0.2,0.2-0.4,0.4-0.5c0.5-0.9,0.8-1.5,0.9-1.9c0.1-0.3,0.1-0.6,0.1-0.9s0-0.4,0-0.5
			c-0.9-7.2-2-14.4-3.5-21.4c0-0.1,0-0.1,0-0.2c-0.1-0.3-0.2-0.5-0.4-0.8c-0.2-0.3-0.6-0.6-1.3-0.8c-0.1,0-0.3-0.1-0.4-0.1
			c1.5-1.1,3-2.1,4.6-3.2c6.9,4.2,14.2,8.2,21.7,11.7c0.1,0,0.3,0.1,0.4,0.1c0.2,0,0.5,0.1,0.9,0.1s1.1,0,2.2-0.3
			c0.2-0.1,0.5-0.1,0.7-0.2c-2.4,2.1-4.8,4-7.3,6c0.1-0.2,0.1-0.3,0.2-0.5c0.3-0.8,0.2-1.4-0.1-1.8c-0.1-0.1-0.2-0.2-0.4-0.3
			c-0.1,0-0.1-0.1-0.2-0.1c-2.3-1.3-4.7-2.5-6.9-3.8c-2.7,2.1-5.5,4.1-8.3,6c0.5,2.6,1,5.1,1.5,7.7c0,0.2,0.1,0.3,0.2,0.5
			c0.3,0.6,0.9,0.9,1.7,1c0.2,0,0.4,0,0.6,0C271.1,342.5,268.8,344,266.4,345.4z M269.1,329c2.2-1.5,4.3-3,6.4-4.6
			c-2.9-1.8-5.8-3.6-8.7-5.5C267.6,322.3,268.4,325.7,269.1,329z"/>
	</g>
</g>
<g>
	<g>
		<defs>
			<rect id="SVGID_5_" x="195.5" y="-282.2" width="24.2" height="46.6"/>
		</defs>
		<clipPath id="SVGID_6_">
			<use xlink:href="#SVGID_5_"  style="overflow:visible;"/>
		</clipPath>
		<g id="Group8" transform="matrix(1.0068994 0 0 .92141432 -10.499754 -438.52673)" class="st7">
			<path id="path3270" class="st8" d="M213.6,660.1V715c7.4-1.6,14.2-2.5,20.2-2.7c1.1-0.1,2.3-0.1,3.3-0.1l0.3-28.2L213.6,660.1z"
				/>
		</g>
	</g>
</g>
<path class="st5" d="M248.6,218.2c6.5-2-9.1-2.8-20.4-2.4l-23.8,4.5c-2.6,0.5-5.2,1.1-8,1.8c1.4,3.4,2.6,7,4.4,10.3
	c1.4,2.5,2.4,3.7,5.3,3.9c2.8,0.2,5.9-0.3,8.6-0.5c7.5-0.6,16-1.9,22.9-5.2c3.2-1.5,4.6-3.6,3.6-7
	C238.9,215.5,232.9,223.1,248.6,218.2z"/>
</svg>
