<svg xmlns="http://www.w3.org/2000/svg" xmlns:xlink="http://www.w3.org/1999/xlink" id="Layer_6" version="1.1" width="521.75" height="787.5" viewBox="0 0 521.75 787.5">
  <defs>
    <style>
      .st0{fill:#fdb913}.st1{fill:#202020}.st2{fill:#d2232a}
    </style>
  </defs>
  <path d="m273.18 241.08-19.03 12.1h-2.52v36.46c-18.75-5.73-25.43-28.98-12.72-43.98l-1.79-1.87c-16.86 12.44-21.18 35.53-9.39 53.14 5.59 8.35 14.25 13.7 23.93 16.12l-.11 33.12c-3.04 2.72-7.03 4.36-10.22 7.04-2.74 2.31-5.53 5.65-7.11 8.88-1.01 2.06-1.34 4.65-2.78 6.26-7.51-34.13-15.94-68.07-24.86-101.84l-1.26.23-.6-1.07-16.59 7.43c6.68 15.2 11.36 31.2 15.83 47.19 7.5 26.81 13.71 54 19.86 81.16l-.17 1.83-9.88 9.26-1.57-4.77c5.97-12.75 7.88-31.38-4.75-40.68l-2.98 14.06-1.64 4.03-22.97-58.47c7.09-8.26 9.94-20.42 4.67-30.32-4.3 2.79-9.03 4.91-13.98 6.23l-.74-.34c-3.62-9.12-5.53-19.41-4.84-29.25.3-4.34 2.39-8.01-.07-12.15-3.5-5.9-18.88-7.58-22.59-1.67-4.42 7.03-.03 26.39 2.07 34.41.95 3.62 2.11 7.23 3.33 10.76-8.62-1-17.14-2.79-25.24-5.89.31 7.1.57 14.16 3.42 20.77 5.46 12.66 18.22 17.68 31.43 16.75l33.64 71.61c-3.39 4.8-6.89 9.62-10.84 13.97-12.78 14.09-30.01 23.09-39.36 40.59-6.33 11.84-5 23.32 2.74 34.09l-36.19 26.31c-16.72 14.18-16.69 28.25-11.24 48.28 1.25 4.6 4.47 14.53 9.87 15.38 8.09 1.28 17.67-12.23 22.4-17.58-.35 7.93-2.03 24.71 3.98 30.74.93.93 2.4 1.49 3.17 2.5-11.25-4.07-22.2-9.31-32.68-15.07-10.47-5.76-37.05-27.07-40.83-3.95-1.04 6.34-1.25 11.53-3.7 17.76-1.07 2.7-4.31 6.81-3.38 9.71.97 3.02 7.22 4.41 9.81 5.55 7.53 21.7 23.66 44.66 46.89 50.94 7.82 2.11 15.56 1.72 23.56 3.79 9.96 2.57 19.55 7.1 29.46 10.09 60.69 18.36 127.08 18.6 188.07 1.45 11.83-3.33 23.31-8.86 34.99-11.72 7.78-1.91 15.29-1.47 22.99-3.52 20.15-5.37 35.08-23.74 43.41-42.02 1.05-2.3 2.73-8.22 3.76-9.71.95-1.37 5.09-2.14 5.75-4.34.88-2.93-2.36-7.05-3.48-9.81-.98-2.42-1.94-5.37-2.62-7.9-2.36-8.79-.85-21.17-13.79-20.28-2.53.17-6.13 1.43-8.5 2.44-4.99 2.14-9.12 5.78-14.02 8.07l5.83-9.95c2.71-7.37 10.26-21.32 7.73-29.08-.99-3.05-10.73-12.47-13.56-15.06-7.05-6.45-15.01-12.47-22.77-18.04-2.03-1.46-7.87-6.09-9.66-6.79-1.14-.44-1.18.15-2.08.64l5.96-8.13c13.53-28.07-18.97-46.56-34.14-64.47-5.32-6.28-10.29-13.46-14.32-20.64L372.58 354c.64-.71 3.84.46 5.02.45.89 0 3.49-.42 4.46-.63 11.56-2.46 22.85-17.56 24.8-28.85-6.47.46-13.04 0-19.43-1.4-2.54-.55-4.96-1.45-7.5-1.98 2.33-9.22 5.78-18.17 8.21-27.35 2.04-7.74 3.16-13.95-.83-21.47-1.52-2.85-7.53-11.68-9.68-13.89-5.94-6.11-12.46.36-18.45 3.03-2.39 1.07-5.08 1.31-7.31 2.79-3.23 2.13-4.19 5.46-1.81 8.71 3.19 4.35 8.63 5.19 12.41 9.89 7.56 9.4.45 18.52-2.32 28.2-6.84-1.88-14.59-14.45-22.32-12.02-3.26 1.03-4.43 10.02-4.62 13.05-.25 3.84.09 20.36 1.88 22.98 1.08 1.58 9.32 8.65 9.38 9.44l-15.88 36.83-9.26-23.56c-9.53 11.03-10.57 25.87-6.94 39.56.68 2.56 4.21 10.31 3.99 11.95-.31 2.39-3.31 6.45-3.79 9.09-1.17-.3-3.79-1.27-4.83-1.27h-6.1l28.19-147.71-21.04-5.47-16.84 103.52-1.6-5.75-3.26-4.76c-6.63 4.24-13.75 8.08-21.22 10.51v-13.26c4.41-3.03 9.21-5.5 13.24-9.06 7.57-6.67 14.07-17.42 10.53-27.76-6.2 8.13-15.43 13.62-23.77 19.36v-23.99c26.01-4.36 40.16-33.27 27.42-56.67-1.88-3.45-7.43-10.47-10.78-12.36-1.45-.82-3.26-.25-4.86-.4 8.19 6.16 10.46 17.22 8.21 26.93-2.11 9.11-10.87 17.41-19.99 19.35v-36.94h-2.52m2.59-29.51c0-4.95.46-15.12.06-20.33l8.76-12.31-2.54-6.93 12.62-1.47c-6.1-4.02-7.96-13.31-8.41-20.21-1.63-25.21 1.39-52.11 0-77.43-.39-7.11-1.91-15.1-4.31-21.78-.31-.86-1.98-4.04-1.98-4.31-.02-.6 1.05-2.63 1.2-3.84.78-6.36-1.15-18.84-2.12-25.56-1.09-7.6-3.07-20.56-7.17-26.92-3.03-4.7-4.98-1.97-6.89 1.8-5 9.89-8.64 34.76-9.04 46.08-.1 2.75 1.35 7.68 1.2 8.76-.12.88-1.61 3.07-2.04 4.29-2.41 6.88-3.82 15.03-4.19 22.32-1.29 25.31 1.72 52.32 0 77.43-.45 6.51-2.62 15.64-8.41 19.37l13.04 1.48-2.88 7.26 8.68 11.97c-.32 5.83.1 15.5.1 21.42m136.73 282.97c10.41 7.09 20.92 14.49 30.3 22.93 2.85 2.57 12.41 11.61 13.55 14.64 1.46 3.89-1.36 11.25-2.72 15.14-2.27 6.51-5.29 13.73-9.23 19.38-4.71 6.77-10.97 12.41-18.01 4.29 9.22-6.98 20.09-20.12 19.34-32.4-.84-13.77-21.08-16.59-28.19-25.25-2.1-2.56-5.04-8.54-5.04-11.79zm-60.59 111.51-14.3 2.95c4.02-3.39 5.68-8.27 5.89-13.46h2.94c.84 0 1.67-.1 2.49-.28l1.28-.3c3.22-.82 6.45-3.69 8.05-6.55 7.57 4.16 15.18 1.34 21.63-3.41 4.97 4.55 10.72 7.15 17.47 7.8-8.59 3.06-17.29 5.99-26.09 8.42-3.77 1.04-10.14 3.04-14.35 3.76-1.15.2-2.3.41-3.44.69l-1.57.39Zm27.98-24.81c-4.42 4.33-11.08 7.93-17.38 6.01-1.79-.55-3.11-1.78-4.86-2.21-3.68 5.93-9.63 9.62-16.68 7.13 1.56 11.08-8.63 22.93-18.01 11.99l4.4-4.38c.84-.15 1.57 1.92 3.29 2.1 4.33.47 6.79-3.72 5.93-7.63-.25-1.14-1.46-2.52-1.48-3.13-.11-2.93 5.1-2.44 7.15-2.94 5.44-1.31 9.36-4.95 10.93-10.32 7.72 3.69 13.54 4.69 14.32-5.66 1.09-14.62-1.29-30.97-.03-45.48.52-5.97 4.4-11.77 8.64-15.76l9.89 12.61c-4.24 2.26-7.3 8.27-7.89 12.95-.78 6.19-.79 22.27-.11 28.51.61 5.63 6.4 11.19 11.7 12.71 13.99 4.02 29.64-3.45 27.86-19.66-7.2 1.49-17.22 1.96-20.53-6.19-3.06-7.53 1.47-28.59 11.17-29.92 5.55-.76 13.59 7.43 16.16 11.84 8.13 13.98 2.12 33.96-7.05 46.12-9.57 12.7-26.95 13.25-37.41 1.31ZM234.8 619.79c-16.18 8.56-26.88-10.53-31.56-23.15l6.72 3.8c7.87 3.8 17.21 5.5 25.68 2.72v13.26c0 .28-.63 3.19-.84 3.37m.42 6.53c-15.67-1.68-31.34-4.27-46.71-7.78-2.59-.59-5.98-1.25-8.41-2.12-.41-.14-.97-.05-.84-.62 10.85-.45 17.41-11.32 20.4-20.62 5.44 14.4 16.69 36.21 35.55 27.35v3.79Zm-34.28-34.92 3.15-19.38c.65-.78 7.16 5.59 7.79 6.31 5.92 6.77 9.29 15.27 12.41 23.57-8.68-.87-16.68-5.07-23.34-10.5Zm25.02 10.5c1.24-1.62.97-4.47.86-6.54-.38-7.04-2.72-15.24-5.06-21.87-7.32-20.81-20.43-39.05-34.51-55.75 5.89-.25 11.69-1.35 17.36-2.87 12.79 7.42 27.26 11.75 41.96 13.39.16.7-.23.85-.64 1.25-5.67 5.5-9.4 9.47-10.25 17.94l-.03 52.93c-3.08 1.16-6.4 1.73-9.7 1.52Zm-8.07-137.32c2.43 4.44 7.44 11.31 12.7 5.81 2.26-2.36 2.21-5.79 2.12-8.85-2.87-11.15-8.23-21.55-12.07-32.4 2.18-2.19 4.15-5.27 6.59-7.15.42-.33.53-.81 1.26-.63l10.27 48.83c-4.04 5.15-8.14 11.45-14.47 13.87.07-2.73-.19-5.8-1.07-8.4-3.17-9.47-15.81-11.65-20.63-2.14-3.51 6.92 1.02 14.44 6.12 19.17l-1.89 1.89c-10.26-12.38-8.03-30.24-1.27-43.77.58-1.16 2.19-4.24 2.95-5.05.19-.2.61-.71.64-.2 2.99 6.11 5.52 13.08 8.76 19.01Zm-7.3-21.72.11-.74 8.1-10.65 10.82 28.11c1.7 4.03-.39 13.48-5.91 8.86-5.72-7.59-8.59-17.22-13.12-25.58m-6.54 36.37c-.13-3.57 2.66-8.6 6.54-9.06 8.76-1.05 12.05 7.71 10.77 14.97l-5.08-.66c1.49-3.44-.67-6.56-4-7.57-8.65 6.67 3.86 11.79 10.42 10.83 10.55-1.54 22.82-23.2 29.19-31.41 6.22-8.02 13.5-15.99 21.43-22.34.78-.62 8.18-6.39 8.61-5.9.4.46-1.52 11.25-2.08 12.01-.63.85-5.55 4.01-6.95 5.25-13.31 11.87-31.01 47.45-50.08 49.22-8.4.78-18.44-6.66-18.75-15.35Zm10.12 3.99c-3.37-.48-1.94-5.47-.39-1.92.26.6.44 1.25.39 1.92m34.93-28.61-8.38-44.85 1.87-2.27 10.3-8.01v51.13c0 .3-3.2 4.69-3.78 4Zm6.31-6.73v-50.71l7.99-5.68v47.77l-7.99 8.63Zm19.05 25.16c-1.56 5.43-4.5 10.88-8.53 14.82v-30.51c3.68-5.27 8.28-9.66 13.26-13.68.34-.06.21.36.22.64.13 4.98-3.43 23.47-4.94 28.73Zm-11.06-12.12v29.25c-2.32 2.21-5.14 3.87-7.99 5.26v-23.78zm-11.84 31.71c-.31.9-3.79 2.25-4.73 1.99l-2.38-10.69c.82-.32 5.26-6.07 5.91-5.33zm-29.62 4.88c8.07-1.19 14.53-6.04 20.43-11.34l2.15 11.32c2.31.34 4.46-.21 6.56-1.13.31-.14 2.75-1.95 1.81.12-.45.99-8.83 2.86-10.36 3.11-1.31.22-3.6-.43-4.37.89 4.93 2.32 9.14 6.26 14.72 7.16v6.73c-12.09-1.24-25-4.21-35.34-10.76l4.39-6.1Zm74.07 11.97L308 514.8c.21.98-.13.67-.54.94-6.71 4.33-16.86 7.83-24.69 9.38-24.83 4.91-53.11 0-75.33-11.8l8.54-7.3c24.1 13.2 55.04 16.08 80.02 3.46Zm-40.6 5.31v-6.31l7.99.42v5.89zm10.52 0v-6.31c5.99-.65 11.25-3.64 15.77-7.45l11.15 6.82c-8.29 4.34-17.68 5.96-26.92 6.94m34.71 56.39c-6.3.69-11.36 9.76-12.3 15.47-1.01 6.13.39 12 1.94 17.9-2.09 1.83-6.35 5.31-8.72 2.13-2.81-3.8-2.69-17.77-2.19-22.68.06-.59-.06-1.2.41-1.69 6.71-5.62 12.92-11.82 19.85-17.18 8.45-6.53 17.81-13.46 27.73-4.68.69.61 3.14 3.69 3.57 3.58l8.01-12.19 1.46-.43v36.82c0 .38-.85 1.78-1.26 2.1-2.88 2.21-9.33-2.12-11.78-3.99-.74 7.28-5.35 12.83-13.05 12.63 1.05-10.59 1.97-29.49-13.68-27.78Zm-52.57 40c-1.11 5.6-4.47 10.92-10.33 12.18-.28-1.52.38-2.96.44-4.4.81-22.39.18-44.92.42-67.37.04-3.61-.27-5.71 1.04-9.44.84-2.39 5.93-10.67 8.48-10.89 1.22-.1 8.11 9.79 9.39 11.29-5.75 2.46-8.65 8.13-9.2 14.16-1.59 17.43 1.24 36.84-.24 54.47m28.29-45.55-11.27 9.77v-28.41c.69-6.13 4.71-13.19 9.05-17.46l10.73 13.23c-8.4 4.77-8.55 14.25-8.51 22.86Zm-13.88 11.99-11.27 9.98v-33.04c.76-4.88 5.79-9.77 10.52-10.94L250.8 529.1c6.59.66 13.16 1.15 19.77.42-12.36 13.06-6.68 31.86-8.08 48.1Zm-11.28 13.97 43.56-39.34c11.66-10.82 29.37-12.24 41.82-1.85l-6.07 9.41c-12.1-12.83-24.7-3.03-35.33 5.49-9.98 7.99-21.79 18.65-30.53 27.96-4.48 4.77-8.26 10.41-13.45 14.53zm82.33-46.57c-9.46-5.18-19.62-5.82-29.6-1.68-9.93 4.12-16.19 12.76-24.54 19.01.2-2.2-.27-4.8 0-6.94.69-5.4 4.99-10.63 10.52-11.36l-13.04-15.36c12.08-1.42 23.75-5.64 33.97-12.15 3.51.75 7 2.25 10.54 3.18 9.07 2.41 18.95 3.91 28.28 2.65-3.46 3.91-6.62 8.04-8.1 13.14-.28.98-1.15 3.98-1.15 4.74v9.47l-6.87-4.7Zm-82.52 66.58 11.97-11.8c.89 10.25 3.6 24.74 15.57 26.94l-9.05 1.25c-10.76.61-21.54.15-32.19-1.47 7.76-1.9 11.55-7.63 13.7-14.92m14.51-14.95c3.14-3.85 6.89-7.74 10.93-10.74v14.1c0 .98 1.29 5.14 1.78 6.22 1.37 3.05 3.49 5.15 7.07 4.3 8.1-1.93 22.4-16.76 21-25.65-.64-4.1-5.78-5.7-8.04-1.36-2.51 4.82-1.52 9.32-.41 14.29l-4.78 4.92c-4.32-8.18-2.95-22.57 5.28-27.96 4.93-3.22 10.45-.24 12.39 4.83 6.42 16.8-6.12 30.94-19 39.9-19.65 13.67-25.91-6.48-26.22-22.86Zm34.82-11.46c.72-1.45 2.32-2.18 3.14-.44 1.33 2.82-2 7.38-3.06 10-.53.12-.53-.44-.63-.83-.69-2.59-.66-6.28.55-8.73m5.76 26.39c-.88-1.77 2.09-3.54 2.95-5.04 2.56 2.05-.13 7.74-2.95 5.04m-9.64 7.59c1.91 1.54 3.5 3.71 6.07 4.2.1.59-.75.61-1.17.71-3.74.91-9.83 1.62-13.72 1.89-.63.04-1.02.49-1.51-.3 3.66-1.76 7.37-3.65 10.33-6.51Zm101.34-28.24 2.35-4.6c1.76.77 2.83 2.2 4.62 3.16 1.09.58 2.07 1.18 3.37 1.05l-9.52 4.99-5.62 2.16zm-7.76-64.56c4.2 6.29 9.92 7.73 15.97 11.39 3.18 1.92 10.27 6.46 11.77 9.69 4.54 9.76-6.04 26.3-14.26 31.73 4.26-11.93 5.23-24.57-2.19-35.48-3.51-5.17-10.6-11.4-17.17-11.23-.94.51-1.29.27-1.68.42-10.57 4.1-14.27 19.22-13 29.62 1.31 10.73 12.32 13.11 21.41 12.04-.81 12.64-13.56 16.45-24.31 13.58-4.87-1.3-9.63-5.66-10.19-10.85-.67-6.18-.57-26.43 1.48-31.77 1.5-3.92 4.41-6.55 8.19-8.21l-12.19-15.36c5.26-.99 10.69-2.39 15.57-4.63.28-.13.56-.28.84-.42 5.75-2.81 10.96-6.99 15.56-11.36-.91 7.1.17 14.8 4.2 20.84M363.4 280.11c-.62-.64-2.54-2.35-3.25-2.85-2.39-1.71-9.68-4.24-8.54-8.15.94-3.24 5.81-3.51 8.43-4.64 2.51-1.08 9.01-5.26 10.9-5.53 1.79-.25 3.34.42 4.61 1.65 2.05 1.98 9.52 13.33 10.49 16.02 4.53 12.43-5.99 30.12-8.2 42.7l-.67 1.04c-.92.28-14.24-6.14-14.69-7.12 3.47-11.58 11.2-22.45.91-33.12Zm-48.12 117.78c-3.2-11.38-3.27-23.42 3.04-33.76l8.18 20.45-7.97 20.8c-1.75-1.75-2.57-5.08-3.24-7.48Zm32.21-53.41-10.42-11.31c-.95-8.84-2.48-19.36.09-28.04.51-1.71.81-3.28 3.03-3.29 3.08-.01 11.28 7.46 14.39 9.62 14.38 9.97 31.16 16.73 48.94 16.49-4.13 11.16-14.74 24.86-27.98 23.57-1.49-.14-2.82-1.17-4.35-.78l-40.03 79.69-8.2-6.54-7.8-3.78 32.33-75.62Zm-12.48 96.8c5.41 11.31 4.68 25.95 1.49 37.83-2.45 9.12-7.98 17.01-13.85 24.23-1.15.68-10.5-2.73-12.01-3.61-.26-.15-.82-.03-.53-.72.26-.63 4.09-4.72 4.97-5.98 14.63-21 15.69-56.63-16.33-59.47l2.11-13.04c13.89-1.65 28.34 8.59 34.16 20.75Zm2.87-.14c6.26 6.57 12.25 13.41 18.5 20 5.76 6.07 16.23 14.03 18.32 22.07 3.45 13.28-11.56 18.68-21.68 21.26-8.81 2.25-13.84 2.47-22.81.93-.83-.14-4.96-.81-4.95-1.35 15.25-16.43 20.8-41.82 12.62-62.92Zm-43.25 19.52c3.19 3.61 9.1 5.83 13.9 5.21 5.67-.73 9.72-5.23 13.36-9.15 1.62 12.41-2.38 25.91-9.74 35.91-.84 1.14-4.11 5.48-5.4 5.17-1.11-.27-5.02-3.16-6.09-4.06-6.78-5.7-10.4-13.94-9.43-22.87l7.08-34.6 6.33 1.29-10 23.09Zm12.79-22.43c4.77.95 13.53 9.72 13.2 14.46-.22 3.31-7.95 9.68-11.24 10.23-3.8.64-9.17-.12-11.46-3.47l9.5-21.23Zm3.53-170.47 15.52 4.48.06 1.18c-11.58 64.18-25.64 127.97-36.73 192.23-1.45 8.39-2.41 13.47 1.88 21.5 9.28 17.38 40.64 24.36 58.48 20.78 13.83-2.77 33.4-10.13 26.21-28.06-2.87-7.17-11.65-13.88-17.04-19.57-8.83-9.29-17.63-18.65-25.44-28.84l8.2-16.83c5.5 7.45 10.39 15.4 16.61 22.31 9.64 10.7 21.97 18.43 29.43 31.17 9.45 16.15 5.78 27.27-7.75 38.9-29.07 24.98-71.11 9.9-98.75-9.42-5.25 4.31-11.08 8.14-18.07 8.73-6.23.52-11.9-1.54-17.4-4.16-.13-1.08 0-.67.61-.85 15.18-4.44 26.07-12.14 30.4-28.09zm-20.2 104.16.44.42-8.45 51.64c-5.95 3.84-11.69 8.04-16.81 12.96V389.6c.2-.73 9.98-7.29 11.48-8.3 2.83-1.91 11.08-6.26 12.82-8 .32-.32.36-.94.53-1.37Zm-3.15-47.77c.61 1.76-.03 3.67-.52 5.38-2.71 9.55-12.57 17.39-21.16 21.56v-10.31c7.14-5.65 15.23-10.1 21.67-16.62Zm-41.81-133.29 3.3-8.94-10.51-1.49c2.85-4.25 4.69-10.43 5.06-15.56 1.77-24.71-1.12-51.62-.04-76.63.32-7.43 1.6-18.09 4.57-24.88.4-.92 2.44-3.9 2.46-4.14.03-.51-2.03-4.77-2-7.15.13-9.87 4.33-38.35 8.95-46.64.33-.59 1.05-1.98 1.81-1.97 3.71 6.26 5.17 13.81 6.4 20.96 1.31 7.6 4.01 24.77 2.52 31.74-.21.98-1.14 2.47-1.12 3.08.02.5 1.9 3.42 2.29 4.42 2.76 7.11 4.1 16.13 4.45 23.75 1.14 25.07-1.7 51.79-.04 76.63.38 5.64 2.11 11.59 5.06 16.4l-10.52 1.47 3.31 8.95-8.36 11.03v13.26l-3.84 1.62-1.64.13-3.78-.48V201.9l-8.36-11.03Zm17.61 62.8v36.82c-.44.69-8.25.7-9.26-.63v-35.77l4.83-2.72 4.42 2.3Zm-14.2 55.87c-23.5-6.76-33.41-36.38-18.2-55.66-6.1 20.46 8.94 40.79 30.53 39.58 16.5-.92 29.19-15.82 27.96-32.21l-1.47-7.79c20.75 27.74-5.15 65.77-38.82 56.08m14.2 4.1v55.97c-3.1.83-5.95 2.1-9.26 1.68V313.2c.45-.16.92.42 1.05.42h8.2Zm-11.78 36.19v9.47c0 .48-4.54 3.93-4.22 8.41.22 3.04 2.94 5.79 5.88 6.35 5.9 1.13 18.51-5.14 24.16-7.87 1.51-.73 8.32-4.88 8.97-4.94 1.4-.12 2.66 5.34 2.65 6.47 0 .66-.35 2.14-.62 2.74-.71 1.58-8.16 5.68-10.2 7.06-13.24 8.99-26.14 18.42-38.4 28.71l-2.12-11.91 10.53-8.29c-23.94-4.59-13.12-29.79 3.37-36.2m0 13.89v6.31c-2.33-1.3-1.98-4.85 0-6.31m-14.72 27.77-2.1-9.26c2.29 1.85 4.68 3.8 7.57 4.63l-5.46 4.62Zm-26.63-58.16c-5.28-19.96-10.73-40.04-18.8-59.05l12.48-5.19.88.66c15.72 62.26 31.3 124.67 42.2 188.03l-5.51 9.04c-1.11.11-.68.02-.83-.62-5.19-22.42-9.37-45.12-14.51-67.56-4.99-21.81-10.19-43.68-15.91-65.31m4.11 82.57c2.45-2.64 6.78-7.4 9.47-9.47.42-.32.53-.82 1.26-.63l2.33 12.19c-7.45 7.39-14.61 15.51-20.17 24.45-8.28 13.31-13.86 30.43-7.47 45.7 1.34 3.22 3.53 5.9 5.12 8.96-3.63 1.95-7.19 4.34-11.48 4.58-5.08-6.09-9.04-13.06-9.57-21.18-1.53-23.34 15.33-48.23 30.52-64.62Zm-25.03 85.43c-8.53.14-19.4-2.14-25.86-8.01-19.88-18.07 9.44-37.1 21.25-49.01 4.82-4.87 9.14-10.26 13.47-15.56.29-.35 1.57-2.39 2.08-1.91l.22 1.65c-12.13 16.37-25.53 42.99-16.56 63.3l5.41 9.53Zm18.31-121.62c.63-2.33 1-4.79 1.47-7.16 7.44 8.76 5.39 21.05 2.1 31.14-1.08.17-.65-.1-.88-.59-.7-1.55-5.37-13.98-5.39-14.76-.02-1.14 2.22-6.86 2.7-8.63m-59.65-121.1c3.63-.61 9.91-.25 12.94 2.01 1.83 1.36 4.01 4.82.74 5.78-4.48 1.31-16.14.84-17.25-5.09.16-1.49 2.26-2.47 3.57-2.69Zm-2.71 27.75c-.61-2.87-3.52-19.4-1.81-20.7 5.15 4.12 13.19 4.73 19.35 2.95-.91 8.52-.66 17 1.39 25.34.8 3.25 2.25 6.35 2.83 9.59l-11.58 1.26c-2.13 0-4.39.44-5.48-1.67-1.73-3.36-3.85-12.73-4.7-16.76Zm13.55 47.05c-.83-.92-1.95-.03-2.95 0-19.95.68-30.59-11.69-30.5-31.14 18.71 6.25 40.38 7.97 58.06-2.1 1.62 6.55 1.33 13.37-1.88 19.37-1.35 2.53-3.44 4.36-4.76 6.86l34.84 87.65-.4 1.66-8.65 9.86-43.75-92.16Zm-16.92 132.48c8.25-18.23 26.94-28.03 39.86-42.19 3.69-4.04 6.95-8.52 10.3-12.84.63 0 5.03 10.16 5.46 11.36.17.49.53 1.1.58 1.58.1 1.06-3.41 5.26-4.35 6.42-10.68 13.3-27.18 24.1-35.73 37.91-14.54 23.47 14.03 37.06 33.98 36.54 7.21-.19 14.42-4.85 19.09-10.02l7.27 2.48-5.88 8.21c-23.94 26.19-86.24-4.83-70.58-39.45m1.98 31.23c11.09 11.77 26.18 21 42.91 20.62-1.51 10.23-1.41 20.63-.42 30.93 1 10.34 4.31 23.68.49 33.75-1.78 4.71-7.81 8.28-11.61 3.89-6.56-7.59-4.25-26.11-5.34-35.48-1.09-9.38-9.36-9.13-12.9-.79-2.42 5.7-3.55 11.98-6.46 17.52-1.57 3-5.44 9.12-6.21 2.1-.99-9.09 1.92-17.77 2.46-26.46.61-9.85-8.3-11.44-15.1-6.27-5.85 4.45-10.26 15.17-15.31 17.93-4.63 2.53-7.3-2.96-7.03-7.02.6-8.97 9.97-14.28 15.79-19.57 8.76-7.95 17.47-19.02 18.72-31.15Zm-12.25 95.38c-2.39-9.15-.94-20 .05-29.29l-2.75-.47c-4.66 6.1-9.42 13.9-15.88 18.24-6.67 4.48-9.1 2.84-12.16-4.02-3.43-7.7-6.81-25.12-4.85-33.19 1.81-7.48 7.5-13.91 12.91-19.07l31.14-22.51c-2.73 9.44-9.98 18.15-17.24 24.62-2.9 2.59-6.67 4.77-9.27 7.56-4.69 5.02-9.69 14.5-4.84 20.85 7.96 10.43 15.77-6.52 20.01-11.57 3.99-4.75 13.09-12.17 15.57-2.1-1.21 9.16-3.45 19.35-2.54 28.6.37 3.72 1.74 6.84 5.89 5.05 5.89-2.54 9.48-18.95 12-24.61 2.61-5.85 7-5.31 7.73 1.09 1.17 10.19-1.4 28.05 5.94 36.56 3.15 3.65 9.15 3.4 12.63.44 9.51-8.09 3.04-35.09 2.49-46.29-.29-5.99.26-12.11.02-18.11l.84-.21c4.19 5.85 8.92 11.5 12.97 17.54 10.3 15.33 18.69 32.62 21.53 51.05L217.88 582c-4.07-5.7-8.82-11.86-15.91-13.76-1.29 11.17-2.49 23.49-7.93 33.53-3.74 6.9-11.24 14.01-19.71 10.73-9.86-3.82-14.83-20.83-18.02-29.95-3.32 5.82-10.55 18.52-18.49 17.23-3.3-.54-5.41-4.38-6.18-7.29Zm38.76 21.19-34.08-11.35c9.21 1.41 14.49-6.58 19.14-13.04 3.75 8.8 7.2 18.26 14.94 24.4Zm-57.32 50.81c-21.57-5.57-36.79-25.88-44.51-45.75 6.67 3.21 13.18 6.83 19.64 10.45 8.59 4.8 17.45 9.82 25.77 15.05 1.38.87 17.69 11.24 16.87 12.37l-1.23.63 2.91 9.9c-6.45-1.19-13.06-.99-19.44-2.64Zm-1.59-25.13c37.24 15.81 76.25 28.86 116.76 33.24 50.53 5.46 98.62-3.27 146.01-20.19l36.81-14.73c-4.84 3.7-10.34 6.53-15.11 10.34-5.52 4.41-6.68 6.72-13.64 9.93-35.45 16.33-97.1 22.98-135.97 20.96-32.94-1.71-77.85-7.34-107.66-21.52-5.49-2.61-7.64-5.01-12.34-8.28-4.86-3.39-10.11-6.21-14.86-9.75m24.58 28.65-3.54-10.55 14.51 6.31 2.74 8.83zm30 10.41c-1.5-.34-12.17-3.94-12.74-4.52l-2.71-8.86 13.79 4.3c.29 2.65 2.33 6.12 2.61 8.55.1.89-.29.69-.96.54Zm4.33 1.13-2.94-9.47 12.95 3.03 2.2 9.38c.02.65-11.27-2.71-12.21-2.94m15.14 3.79-2.1-9.47 14.21 2.62 1.36 9.58zm16.42 3.57-1.27-10.09 14.71 1.7 1.28 10.5zm17.66 2.32-1.25-10.32 13.07 1.45 1.24 10.34-13.05-1.47Zm29.46 2.73-13.43-.88c-.21-3.2-1.11-6.72-1.3-9.85-.06-.91.32-.7 1.05-.63 2.36.24 4.8.66 7.16.84 2.1.16 4.87-.59 6.52.64v9.89Zm21.46-.21-.63.63h-17.67l-.63-.63v-9.89h18.93zm15.93-.69-13.41.9.42-10.53c4.8.22 9.55-.38 14.31-.84l-1.32 10.46Zm16.45-1.64-13.45 1.28c0-1.41.74-9.99 1.24-10.34l13.07-1.03-.86 10.08Zm17.23-2.54-14.69 2.14c.44-1.63.73-9.7 1.65-10.33l14.33-1.87-1.3 10.06Zm16.45-3.54-13.46 2.74 1.36-9.58 14.21-2.62-2.1 9.47Zm15.14-3.8-12.19 3.16 2.18-9.6 12.96-3.02zm17.07-5.65c-4.32 2.14-9.06 3.36-13.7 4.6l2.95-9.04 13.88-4.42zm16.17-5.71-12.62 4.42 2.63-8.73 13.35-6-3.37 10.31Zm17.83-2.36c-4.84.64-9.76.23-14.46 1.74-.44-.47 3.29-11.29 3.89-12.31 3.09-5.28 21-15.49 26.96-18.91 11.31-6.48 23.03-12.4 34.78-18.02-9.05 22.47-25.56 44.08-51.18 47.5Zm57.8-55.19c-5.37 2.59-11.08 4.29-16.45 6.9-8.51 4.14-16.75 9.19-25.36 13.35-56.85 27.44-121.34 45.35-185.07 39.62-46.71-4.2-97.72-21.43-139.5-42.27-10.17-5.07-19.26-11.07-29.84-15.19-1.67-.65-7.21-2.2-7.05-4.12.13-1.55 2.7-5.53 3.45-7.45 2.72-6.95 2.67-12.92 4.2-19.79 2.29-10.33 11.91-6.73 18.75-3.15 6.52 3.41 12.9 8.08 19.48 11.65 41.6 22.57 93.46 35.9 140.61 39.91 40.11 3.4 93.8-8.17 131.59-21.99 20.96-7.66 36.6-16.81 55.73-27.59 5.6-3.16 17.46-9.13 20.95-.5 1.36 3.37 1.42 8.75 2.44 12.71.75 2.9 1.94 6.36 3.04 9.16.69 1.75 4.45 7.33 3.04 8.74Z"/>
  <path d="M450.64 707.12c18.11-.41 36.53-.07 53.66 6.3 6.37 2.37 12.87 5.6 17.45 10.74-10.74 4.12-22.28 9.17-28.97 19.01 9.68 12.86 20.76 27.51 20.97 44.32-6.32-3.46-12.76-6.8-19.55-9.27-16.87-6.12-36.37-8.49-54.23-6.25-7.92.99-16.13 5.59-24.05 2.06-2.83-1.26-5.11-3.93-5.56-7.06-.96-6.71.53-14.77.1-21.57-30.63 10.34-62.16 18.39-94.3 22.67-62.65 8.35-125.47 1.4-185.7-16.56-5.56-1.66-11.02-3.63-16.57-5.29-.42.07-.56 1.16-.63 1.54-1.2 6.19-.72 14.98-2.44 20.71-1.74 5.82-8.47 7.19-13.8 6.8-4.18-.3-8.25-2.08-12.33-2.82-13.92-2.49-30.47-1.33-44.19 1.85-11.4 2.64-22.47 7.2-32.47 13.18-.92-4.38.65-9.1 2.09-13.26 3.99-11.55 11.43-21.38 18.52-31.13-6.49-9.86-18.12-14.51-28.6-18.94-.41-1.78 9.16-7.24 10.85-8.08 18.44-9.13 39.65-9.32 59.84-8.96-.31-6.65-1.78-13.36-2.1-19.99-1.42-29.12 27.49-13.36 41.85-8.19 56.65 20.38 121.34 33.63 181.77 28.61 37.56-3.12 78.91-11.29 113.8-25.47 10.65-4.33 32.58-18.15 42.73-9.04 8.32 7.47 1.29 24.35 1.88 34.1Zm0 26.09c-2.28-8.57-3.39-16.96-2.94-25.88.81-15.93 10.79-41.45-17.16-33.15-5.66 1.68-10.81 5.02-16.23 7.34-52.56 22.53-122.29 33.78-179.31 28.54-41.63-3.82-84.89-14.11-124.13-28.19-10.71-3.84-38.84-19.66-39.75 1.9-.31 7.43 2.14 17.12 2.52 24.82.4 8.17-.65 16.38-2.94 24.19 1.39-.02 2.63-.71 4-.83 12.13-1.06 28.61 7.75 40.38 11.79 96.87 33.21 194.79 33.57 291.6 0 11.09-3.85 26.02-11.74 37.43-11.82 2.07-.02 4.63.5 6.52 1.3ZM71.12 710.06c-22.51-1.34-47.05.19-66.47 12.63-.4.59 7.03 3.47 7.73 3.83 7.4 3.81 15.76 9.35 19.47 16.99-9.05 11.86-18.43 24.3-21.31 39.35 9.77-5.22 20.25-9.24 31.13-11.58 14.48-3.11 31.83-3.96 46.38-.93 6 1.25 9.65 3.9 16.23 1.27 5.39-2.16 6.37-10.32.19-11.8-8.19-1.96-33.26-5.7-37.49-13.42-3.17-5.77-.13-10.01 1.42-15.31 1.99-6.82 2.75-13.95 2.73-21.04Zm445.58 13.46c.6-.64-2.71-2.53-3.24-2.86-6.66-4.2-15.5-6.81-23.19-8.37-12.94-2.62-26.89-3.23-40.03-2.21-.18 7.36.92 14.91 3.04 21.95 1.57 5.21 4.69 8.99 1 14.71-3.36 5.21-19.97 9.56-26.02 11.01-2.8.67-12.9 1.93-14.23 3.56-2.57 3.11-.76 8.41 2.79 10.14 6.61 3.22 12.6-.34 19-1.51 14.35-2.64 31.44-1.57 45.61 1.7 10.12 2.34 20.31 6.21 29.37 11.23-2.49-15.02-12.17-27.45-21.02-39.34 5.02-10.06 16.69-16.34 26.92-20.01m-406.09 21.53c-11.96-3.19-24.6-12.37-37.41-9.97-4.74.89-6.03 5.89-3.86 9.78 2.71 4.86 20.19 9.11 25.75 10.44 4.62 1.11 10.4 1.08 14.1 3.99l1.41-14.25Zm302.58 13.41c6.37-2.28 13.29-2.95 19.87-4.75 4.21-1.15 16.53-5.01 18.85-8.5 3.35-5.04.43-9.74-5.27-10.31-12.08-1.21-22.24 6.2-33.45 9.25z"/>
  <path d="M460.63 610.63c-5.37 2.59-11.08 4.29-16.45 6.9-8.51 4.14-16.75 9.19-25.36 13.35-56.85 27.44-121.34 45.35-185.07 39.62-46.71-4.2-97.72-21.43-139.5-42.27-10.17-5.07-19.26-11.07-29.84-15.19-1.67-.65-7.21-2.2-7.05-4.12.13-1.55 2.7-5.53 3.45-7.45 2.72-6.95 2.67-12.92 4.2-19.79 2.29-10.33 11.91-6.73 18.75-3.15 6.52 3.41 12.9 8.08 19.48 11.65 41.6 22.57 93.46 35.9 140.61 39.91 40.11 3.4 93.8-8.17 131.59-21.99 20.96-7.66 36.6-16.81 55.73-27.59 5.6-3.16 17.46-9.13 20.95-.5 1.36 3.37 1.42 8.75 2.44 12.71.75 2.9 1.94 6.36 3.04 9.16.69 1.75 4.45 7.33 3.04 8.74ZM342.09 414.63c5.5 7.45 10.39 15.4 16.61 22.31 9.64 10.7 21.97 18.43 29.43 31.17 9.45 16.15 5.78 27.27-7.75 38.9-29.07 24.98-71.11 9.9-98.75-9.42-5.25 4.31-11.08 8.14-18.07 8.73-6.23.52-11.9-1.54-17.4-4.16-.13-1.08 0-.67.61-.85 15.18-4.44 26.07-12.14 30.4-28.09l33.78-205.46 15.52 4.47.06 1.18c-11.58 64.18-25.64 127.97-36.73 192.23-1.45 8.39-2.41 13.47 1.88 21.5 9.28 17.38 40.64 24.36 58.48 20.78 13.83-2.77 33.4-10.13 26.21-28.06-2.87-7.17-11.65-13.88-17.04-19.57-8.83-9.29-17.63-18.65-25.44-28.84l8.2-16.83Z" class="st0"/>
  <path d="m254.15 201.98-8.36-11.03 3.3-8.94-10.51-1.49c2.85-4.25 4.69-10.43 5.06-15.56 1.77-24.71-1.12-51.62-.04-76.63.32-7.43 1.6-18.09 4.57-24.88.4-.92 2.44-3.9 2.46-4.14.03-.51-2.03-4.77-2-7.15.13-9.87 4.33-38.35 8.95-46.64.33-.59 1.05-1.98 1.81-1.97 3.71 6.26 5.17 13.81 6.4 20.96 1.31 7.6 4.01 24.77 2.52 31.74-.21.98-1.14 2.47-1.12 3.08.02.5 1.9 3.42 2.29 4.42 2.76 7.11 4.1 16.13 4.45 23.75 1.14 25.07-1.7 51.79-.04 76.63.38 5.64 2.11 11.59 5.06 16.4L268.43 182l3.31 8.95-8.36 11.03v16.88l-2.98-2.59-3.91.15-2.36 5.19v-19.62ZM140.12 502.17c-2.73 9.44-9.98 18.15-17.24 24.62-2.9 2.59-6.67 4.77-9.27 7.56-4.69 5.02-9.69 14.5-4.84 20.85 7.96 10.43 15.77-6.52 20.01-11.57 3.99-4.75 13.09-12.17 15.57-2.1-1.21 9.16-3.45 19.35-2.54 28.6.37 3.72 1.74 6.84 5.89 5.05 5.89-2.54 9.48-18.95 12-24.61s7-5.31 7.73 1.09c1.17 10.19-1.4 28.05 5.94 36.56 3.15 3.65 9.15 3.4 12.63.44 9.51-8.09 3.04-35.09 2.49-46.29-.29-5.99.26-12.11.02-18.11l.84-.21c4.19 5.85 8.92 11.5 12.97 17.54 10.3 15.33 18.69 32.62 21.53 51.05l-5.97-10.65c-4.07-5.7-8.82-11.86-15.91-13.76-1.29 11.17-2.49 23.49-7.93 33.53-3.74 6.9-11.24 14.01-19.71 10.73-9.86-3.82-14.83-20.83-18.02-29.95-3.32 5.82-10.55 18.52-18.49 17.23-3.3-.54-5.41-4.38-6.18-7.29-2.39-9.15-.94-20 .05-29.29l-2.75-.47c-4.66 6.1-9.42 13.9-15.88 18.24s-9.1 2.84-12.16-4.02c-3.43-7.7-6.81-25.12-4.85-33.19 1.81-7.48 7.5-13.91 12.91-19.07l31.14-22.51ZM403.52 327.94c-4.13 11.16-14.74 24.86-27.98 23.57-1.49-.14-2.82-1.17-4.35-.78l-40.03 79.69-8.2-6.54-7.8-3.78 32.33-75.62-10.42-11.31c-.95-8.84-2.48-19.36.09-28.04.51-1.71.81-3.28 3.03-3.29 3.08-.01 11.28 7.46 14.39 9.62 14.38 9.97 31.16 16.73 48.94 16.5ZM125.4 302.27c18.71 6.25 40.38 7.97 58.06-2.1 1.62 6.55 1.33 13.37-1.88 19.37-1.35 2.53-3.44 4.36-4.76 6.86l34.84 87.65-.4 1.66-8.65 9.86-43.75-92.16c-.83-.92-1.95-.03-2.95 0-19.95.68-30.59-11.69-30.5-31.14ZM361.86 536.66c-4.24 2.26-7.3 8.27-7.89 12.95-.78 6.19-.79 22.27-.11 28.51.61 5.63 6.4 11.19 11.7 12.71 13.99 4.02 29.64-3.45 27.86-19.66-7.2 1.49-17.22 1.96-20.53-6.19-3.06-7.53 1.47-28.59 11.17-29.92 5.55-.76 13.59 7.43 16.16 11.84 8.13 13.98 2.12 33.96-7.05 46.12-9.57 12.7-26.95 13.25-37.41 1.31-4.42 4.33-11.08 7.93-17.38 6.01-1.79-.55-3.11-1.78-4.86-2.21-3.68 5.93-9.63 9.62-16.68 7.13 1.56 11.08-8.63 22.93-18.01 11.99l4.4-4.38c.84-.15 1.57 1.92 3.29 2.1 4.33.47 6.79-3.72 5.93-7.63-.25-1.14-1.46-2.52-1.48-3.13-.11-2.93 5.1-2.44 7.15-2.94 5.44-1.31 9.36-4.95 10.93-10.32 7.72 3.69 13.54 4.69 14.32-5.66 1.09-14.62-1.29-30.97-.03-45.48.52-5.97 4.4-11.77 8.64-15.76l9.89 12.61Zm28.2 26.95c4.99-2.35 5.07-12.79 1.48-16-1.86-1.66-6.45-2.67-8.74-1.57-1.35.65-2.98 4.07-3.32 5.51-2.1 8.95 2.63 12.05 11 10.38z" class="st2"/>
  <path d="m218.38 497.12-5.88 8.21c-23.94 26.19-86.24-4.83-70.58-39.45 8.25-18.23 26.94-28.03 39.86-42.19 3.69-4.04 6.95-8.52 10.3-12.84.63 0 5.03 10.16 5.46 11.36.17.49.53 1.1.58 1.58.1 1.06-3.41 5.26-4.35 6.42-10.68 13.3-27.18 24.1-35.73 37.91-14.54 23.47 14.03 37.06 33.98 36.54 7.21-.19 14.42-4.85 19.09-10.02l7.28 2.48ZM241.52 466.81c-1.11.11-.68.02-.83-.63-5.19-22.42-9.37-45.12-14.51-67.56-4.99-21.81-10.19-43.68-15.91-65.31-5.28-19.96-10.73-40.04-18.8-59.05l12.49-5.19.88.66c15.72 62.26 31.3 124.67 42.2 188.03l-5.51 9.04ZM231 253.87c-6.1 20.46 8.94 40.79 30.53 39.58 16.5-.92 29.19-15.82 27.96-32.21l-1.47-7.79c20.75 27.74-5.15 65.77-38.82 56.08-23.5-6.76-33.41-36.38-18.2-55.66M322.65 503.34c-1.15.68-10.5-2.73-12.01-3.61-.26-.15-.82-.03-.53-.72.26-.63 4.09-4.72 4.97-5.98 14.63-21 15.69-56.63-16.33-59.47l2.11-13.04c13.89-1.65 28.34 8.59 34.16 20.75 5.41 11.31 4.68 25.95 1.49 37.83-2.45 9.12-7.98 17.01-13.85 24.23Z" class="st0"/>
  <path d="m225.11 405.79 2.33 12.19c-7.45 7.39-14.61 15.51-20.17 24.45-8.28 13.31-13.86 30.43-7.47 45.7 1.34 3.22 3.53 5.9 5.12 8.96-3.63 1.95-7.19 4.34-11.48 4.58-5.08-6.09-9.04-13.06-9.57-21.18-1.53-23.34 15.33-48.23 30.52-64.62 2.45-2.64 6.78-7.4 9.47-9.47.42-.32.53-.82 1.26-.63Z" class="st0"/>
  <path d="M454.01 618.32c-9.05 22.47-25.56 44.08-51.18 47.5-4.84.64-9.76.23-14.46 1.74-.44-.47 3.29-11.29 3.89-12.31 3.09-5.28 21-15.49 26.96-18.91 11.31-6.48 23.03-12.4 34.78-18.02Z" class="st2"/>
  <path d="M363.4 280.11c-.62-.64-2.54-2.35-3.25-2.85-2.39-1.71-9.68-4.24-8.54-8.15.94-3.24 5.81-3.51 8.43-4.64s9.01-5.26 10.9-5.53 3.34.42 4.61 1.65c2.05 1.98 9.51 13.33 10.49 16.02 4.53 12.43-5.99 30.12-8.2 42.7l-.67 1.04c-.92.28-14.24-6.14-14.69-7.12 3.47-11.58 11.2-22.45.91-33.12ZM251.62 349.82v9.47c0 .48-4.54 3.93-4.22 8.41.22 3.04 2.94 5.79 5.88 6.35 5.9 1.13 18.51-5.14 24.16-7.87 1.51-.73 8.32-4.88 8.97-4.94 1.4-.12 2.66 5.34 2.65 6.47 0 .66-.35 2.14-.62 2.74-.71 1.58-8.16 5.68-10.2 7.06-13.24 8.99-26.14 18.42-38.4 28.71l-2.12-11.91 10.53-8.29c-23.94-4.59-13.12-29.79 3.37-36.2" class="st0"/>
  <path d="m130.87 656.6-1.23.63 2.91 9.9c-6.45-1.19-13.06-.99-19.44-2.64-21.57-5.57-36.79-25.88-44.51-45.75 6.67 3.21 13.18 6.83 19.64 10.45 8.59 4.81 17.45 9.82 25.77 15.05 1.38.87 17.69 11.24 16.87 12.37ZM251.2 607.8v-16.2l43.56-39.34c11.66-10.82 29.37-12.24 41.82-1.85l-6.07 9.41c-12.1-12.83-24.7-3.03-35.33 5.49-9.98 7.99-21.79 18.65-30.53 27.96-4.48 4.77-8.26 10.41-13.45 14.53" class="st2"/>
  <path d="M276.45 585.91v14.1c0 .98 1.29 5.14 1.78 6.22 1.37 3.05 3.49 5.15 7.07 4.3 8.1-1.93 22.4-16.76 21-25.65-.64-4.1-5.78-5.7-8.04-1.36-2.51 4.82-1.52 9.32-.41 14.29l-4.78 4.92c-4.32-8.18-2.95-22.57 5.28-27.96 4.93-3.22 10.45-.24 12.39 4.83 6.42 16.8-6.12 30.94-19 39.9-19.65 13.67-25.91-6.48-26.22-22.86 3.14-3.85 6.89-7.74 10.93-10.74ZM388.37 507.64c10.41 7.09 20.92 14.49 30.3 22.93 2.85 2.57 12.41 11.61 13.55 14.64 1.46 3.89-1.36 11.25-2.72 15.14-2.27 6.51-5.29 13.73-9.23 19.38-4.71 6.77-10.97 12.41-18.01 4.29 9.22-6.98 20.09-20.12 19.34-32.4-.84-13.77-21.08-16.59-28.19-25.25-2.1-2.56-5.04-8.54-5.04-11.79z" class="st2"/>
  <path d="M281.92 428.1c.4.46-1.52 11.25-2.08 12.01-.63.85-5.55 4.01-6.95 5.25-13.31 11.87-31.01 47.45-50.08 49.22-8.4.78-18.44-6.66-18.75-15.35-.13-3.57 2.66-8.6 6.54-9.06 8.76-1.05 12.05 7.71 10.77 14.97l-5.08-.66c1.49-3.44-.67-6.56-4-7.56-8.65 6.67 3.86 11.79 10.42 10.83 10.55-1.54 22.82-23.2 29.19-31.41 6.22-8.02 13.5-15.99 21.43-22.34.78-.62 8.18-6.39 8.61-5.9ZM308.01 514.79c.21.98-.13.67-.54.94-6.71 4.33-16.86 7.83-24.69 9.38-24.83 4.91-53.11 0-75.33-11.8l8.54-7.3c24.1 13.2 55.04 16.08 80.02 3.46l11.99 5.32Z" class="st0"/>
  <path d="M257.51 542.56c-5.75 2.46-8.65 8.13-9.2 14.16-1.59 17.43 1.24 36.84-.24 54.47-1.11 5.6-4.47 10.92-10.33 12.18-.28-1.52.38-2.96.44-4.4.81-22.39.18-44.92.42-67.37.04-3.61-.27-5.71 1.04-9.44.84-2.39 5.93-10.67 8.48-10.89 1.22-.1 8.11 9.79 9.39 11.29" class="st2"/>
  <path d="M162.84 268.6c-.91 8.52-.66 17 1.39 25.34.8 3.25 2.25 6.35 2.83 9.59l-11.58 1.26c-2.13 0-4.39.44-5.48-1.67-1.73-3.36-3.85-12.73-4.7-16.76-.61-2.87-3.52-19.4-1.81-20.7 5.15 4.12 13.19 4.73 19.35 2.95Z" class="st0"/>
  <path d="M263.4 313.63v55.97c-3.1.83-5.95 2.1-9.26 1.68V313.2c.45-.16.92.42 1.05.42h8.2ZM265.09 546.98c.69-6.13 4.71-13.19 9.05-17.46l10.73 13.23c-8.4 4.77-8.55 14.25-8.51 22.86l-11.27 9.77v-28.41ZM235.63 603.17v13.26c0 .28-.63 3.19-.84 3.37-16.18 8.56-26.88-10.53-31.56-23.15l6.72 3.8c7.87 3.8 17.21 5.5 25.68 2.72M263.4 391.48v47.77l-7.99 8.63v-50.72zM218.8 431.46l10.82 28.11c1.7 4.03-.39 13.48-5.91 8.86-5.72-7.59-8.59-17.22-13.12-25.58l.12-.74 8.1-10.65ZM307.42 438.23c4.77.95 13.53 9.72 13.2 14.46-.22 3.31-7.95 9.68-11.24 10.23-3.8.64-9.17-.12-11.46-3.47l9.5-21.23ZM263.4 290.48c-.44.69-8.25.7-9.26-.63v-36.09l4.73-2.64 4.52 2.33v37.03Z" class="st2"/>
  <path d="M318.52 405.37c-1.75-1.75-2.57-5.08-3.24-7.48-3.2-11.38-3.27-23.42 3.04-33.76l8.18 20.45-7.97 20.8ZM265.93 351.08v-10.31c7.14-5.65 15.23-10.1 21.67-16.62.61 1.76-.03 3.67-.52 5.38-2.71 9.55-12.57 17.39-21.16 21.56Z" class="st0"/>
  <path d="M255.41 495.43v-23.78l7.99-10.73v29.25c-2.32 2.21-5.14 3.87-7.99 5.26M270.56 681.86v9.89l-.63.64h-17.68l-.63-.64v-9.89z" class="st2"/>
  <path d="M211.23 403.69c-1.08.17-.65-.1-.88-.59-.7-1.55-5.37-13.98-5.39-14.76-.02-1.14 2.22-6.86 2.7-8.63.63-2.33 1-4.79 1.47-7.16 7.44 8.76 5.39 21.05 2.1 31.14" class="st0"/>
  <path d="m215.42 678.52 1.28 10.5-14.72-2.11-1.27-10.09zM321.47 676.82l-1.3 10.06-14.69 2.14c.44-1.63.73-9.7 1.65-10.33l14.33-1.87ZM249.1 691.96l-13.43-.88c-.21-3.2-1.11-6.72-1.3-9.85-.06-.91.32-.7 1.05-.63 2.36.24 4.8.66 7.16.84 2.1.16 4.87-.59 6.52.64v9.89ZM287.81 680.6l-1.32 10.46-13.41.9.42-10.53c4.8.22 9.55-.38 14.31-.84ZM303.8 679.34l-.86 10.08-13.45 1.28c0-1.41.74-9.99 1.24-10.34l13.07-1.03ZM232.69 690.7l-13.05-1.47-1.25-10.31 13.07 1.44zM338.72 673.87l-2.1 9.47-13.47 2.73 1.36-9.58zM197.67 676.49l1.36 9.58-13.47-2.73-2.1-9.47z" class="st2"/>
  <path d="M148.01 258.6c3.63-.61 9.91-.25 12.94 2.01 1.83 1.36 4.01 4.82.74 5.78-4.48 1.31-16.14.84-17.25-5.09.16-1.49 2.26-2.47 3.57-2.69Z" class="st0"/>
  <path d="m149.8 672.6-13.71-4.59-3.54-10.55 14.51 6.31zM371.96 665.04l-3.13 8.86c-4.32 2.14-9.06 3.36-13.7 4.6l2.95-9.04zM164.44 669.33c.29 2.65 2.33 6.12 2.61 8.55.1.89-.29.69-.96.54-1.5-.34-12.17-3.94-12.74-4.52l-2.71-8.86 13.79 4.3ZM180.43 673.11l2.2 9.38c.02.65-11.27-2.71-12.21-2.94l-2.94-9.47zM339.56 682.7l2.18-9.6 12.96-3.02-2.94 9.46zM372.38 672.6l2.63-8.72 13.35-6-3.36 10.3z" class="st2"/>
  <path d="m250.36 478.6 1.2 14.03c-.31.9-3.79 2.25-4.73 1.99l-2.38-10.69c.82-.32 5.26-6.07 5.91-5.33" class="st0"/>
  <path d="M263.4 508.9v5.89h-7.99v-6.31z" class="st2"/>
  <path d="M450.64 733.21c-1.89-.8-4.45-1.31-6.52-1.3-11.41.09-26.34 7.98-37.43 11.82-96.81 33.57-194.72 33.21-291.6 0-11.77-4.04-28.25-12.85-40.38-11.79-1.37.12-2.61.81-4 .83 2.29-7.82 3.34-16.02 2.94-24.19-.38-7.7-2.83-17.39-2.52-24.82.91-21.55 29.04-5.74 39.75-1.9 39.24 14.07 82.5 24.36 124.13 28.19 57.02 5.24 126.76-6.01 179.31-28.54 5.42-2.32 10.56-5.66 16.23-7.34 27.94-8.3 17.97 17.22 17.16 33.15-.46 8.92.66 17.31 2.94 25.88Z" class="st0"/>
  <path d="M516.7 723.52c-10.23 3.67-21.9 9.95-26.92 20.01 8.85 11.88 18.54 24.31 21.02 39.34-9.06-5.02-19.25-8.9-29.37-11.23-14.17-3.27-31.27-4.34-45.61-1.7-6.4 1.18-12.39 4.73-19 1.51-3.55-1.73-5.36-7.03-2.79-10.14 1.34-1.62 11.44-2.89 14.23-3.56 6.05-1.45 22.66-5.8 26.02-11.01 3.69-5.72.58-9.49-1-14.71-2.13-7.04-3.23-14.6-3.04-21.95 13.13-1.01 27.09-.41 40.03 2.21 7.69 1.56 16.53 4.17 23.19 8.37.53.33 3.83 2.22 3.24 2.86M71.12 710.06c.01 7.09-.74 14.22-2.73 21.04-1.54 5.29-4.58 9.53-1.42 15.31 4.24 7.72 29.31 11.46 37.49 13.42 6.17 1.47 5.2 9.64-.19 11.8-6.57 2.63-10.23-.02-16.23-1.27-14.56-3.03-31.9-2.17-46.38.93-10.88 2.33-21.36 6.35-31.13 11.58 2.88-15.05 12.26-27.49 21.31-39.35-3.71-7.64-12.07-13.19-19.47-16.99-.7-.36-8.13-3.24-7.73-3.83 19.42-12.44 43.96-13.96 66.47-12.63Z" class="st0"/>
  <path d="m110.61 745.05-1.41 14.25c-3.7-2.91-9.48-2.88-14.1-3.99-5.56-1.33-23.04-5.58-25.75-10.44-2.17-3.9-.89-8.89 3.86-9.78 12.81-2.4 25.45 6.78 37.41 9.97ZM413.19 758.46v-14.31c11.21-3.05 21.37-10.46 33.45-9.25 5.7.57 8.62 5.27 5.27 10.31-2.32 3.5-14.64 7.35-18.85 8.5-6.57 1.8-13.5 2.47-19.87 4.75" class="st0"/>
  <path d="M163.27 514.37v7.79c0 1.33 1.72 3.34 3.19 3.56 4.44.66 4.71-4.29 5.87-7.14.16-.4.05-.96.62-.84.93 4.36 2.9 9.1 1.58 13.56-2.08 7.02-13.09 8.47-15.04.74-3.21 2.03-6.79 1.38-9.95-.36-8.67-4.76-1.62-16.95 3.86-21.52.39 3.21-1.6 7.67 1.35 10.03 2.91.87 6.35-4.4 8.54-5.83Zm-2.53 6.73c-3.06.99-6.46 4.08-9.03-.02-.71-1.14-.5-2.65-1.49-3.35-3.73 6.24-2.62 13.7 6.11 12.63 2.71-.33 2.95-2.66 5.25-3.37-1.52 11.14 12.49 9.39 10.52-.84-4.59 5.27-11.66 1.35-11.36-5.05M390.06 563.61l.42-1.68c-8.37 1.67-13.1-1.43-11-10.38.34-1.44 1.98-4.87 3.32-5.51 2.29-1.1 6.88-.09 8.74 1.57 3.6 3.21 3.52 13.64-1.48 16m-6.23-15.06c-1.58.92-2.77 7.38-1.97 9.16 1.07 2.38 7.4 2.46 9.05 1.06 1.05-.89.43-7.2-.65-8.62s-5.07-2.39-6.43-1.6" class="st1"/>
  <path d="M160.74 521.1c-.3 6.4 6.77 10.32 11.36 5.05 1.97 10.23-12.04 11.99-10.52.84-2.3.71-2.54 3.04-5.25 3.37-8.73 1.07-9.84-6.39-6.11-12.63.98.7.77 2.21 1.49 3.35 2.57 4.1 5.96 1.01 9.03.02" class="st2"/>
  <g id="Layer_4">
    <path d="M115.92 719.04c2.81.7 3.95.67 6.77 1.31-.27 2.27-.07 5.33.89 6.75.96 1.41 2.53 2.46 4.71 3.13 2.31.71 4.18.77 5.61.21s2.31-1.45 2.65-2.65c.22-.77.16-1.5-.17-2.19-.33-.68-1.05-1.41-2.13-2.16-.74-.51-2.49-1.55-5.2-3.13-3.48-2.04-5.75-3.98-6.83-5.74-1.52-2.48-1.83-5-.97-7.55.55-1.64 1.55-3.01 2.99-4.12s3.17-1.74 5.21-1.9c2.04-.17 4.32.15 6.87.93 4.16 1.28 7.03 3.08 8.66 5.48s1.19 6.68.49 9.73c-2.79-.63-3.69-.9-6.47-1.58.19-1.77.33-4.78-.42-5.8s-2.07-1.81-3.98-2.4c-1.97-.61-3.63-.7-4.99-.28-.88.27-1.45.83-1.72 1.67-.24.77-.12 1.53.39 2.3.64.97 2.52 2.37 5.65 4.15 3.14 1.78 5.41 3.28 6.82 4.55 1.4 1.27 2.38 2.74 2.92 4.41.55 1.67.55 3.54 0 5.62-.5 1.89-1.53 3.5-3.11 4.83s-3.54 2.11-5.85 2.3c-2.32.2-5.05-.17-8.17-1.13-4.55-1.39-7.73-3.48-9.51-6.18-1.79-2.69-1.88-6.79-1.11-10.55ZM149.37 741.92c2.83-11.21 5.19-22.03 8.01-33.24 10.21 2.57 14.32 3.68 24.64 5.6-.43 2.31-.65 3.46-1.08 5.77-7.61-1.42-11.4-2.22-18.96-3.99l-1.75 7.49c7.16 1.67 10.55 2.53 17.75 3.89-.44 2.3-.97 3.73-1.4 6.03-7.3-1.39-10.43-2.53-17.68-4.23-.86 3.68-1.15 4.91-2.01 8.59 8.24 1.93 11.39 2.57 19.7 4.11-.43 2.3-.78 4.05-1.2 6.35-9.54-1.73-16.62-3.97-26.01-6.37ZM184.83 750.13c1.92-11.31 3.45-22.74 5.37-34.05 2.82.48 4.23.7 7.05 1.13-1.43 9.41-2.48 18.95-3.91 28.37 7.49 1.14 7.56 1.13 15.08 1.95-.25 2.32-.38 3.49-.64 5.81-10.69-1.17-12.33-1.41-22.95-3.21M246.49 756.56c-3.35-.07-3.93-.02-7.28-.15-1.2-3.2-1.99-6.39-3.15-9.6-5.99-.28-5.89-.48-11.87-.96-1.49 3.04-2.05 6.14-3.58 9.17-3.26-.29-4.88-.44-8.14-.79 6.11-10.91 10.38-21.69 15.82-32.96 3 .22 4.5.32 7.51.48 4.08 11.88 5.87 23.2 10.68 34.8Zm-12.47-16.21c-1.76-5.25-1.16-4.59-2.8-9.86-2.27 5.01-2.09 4.68-4.47 9.66 4.03.3 3.22.2 7.27.2M253.97 757.41c.15-11.56-.44-23.13-.29-34.69 2.77.03 4.15.04 6.92.03 5.8 9.25 8.52 13.82 14.96 22.85-.35-9.26-.53-13.89-.88-23.15 2.64-.1 5.72.02 7.16.02 0 11.59.02 22.81.02 34.43-3.09.17-3.37.13-6.46.24-6.48-8.82-8.81-12.06-14.68-21.09.03 9.05.39 12.35.41 21.4-2.86 0-4.29 0-7.15-.03ZM307.42 742.4c-.04-2.34-.07-3.51-.11-5.84 6.28-.12 9.56-1.14 15.83-1.49.3 5.52.45 8.28.76 13.8-1.14 1.75-2.99 3.84-6.11 4.93-3.02 1.06-5.23 1.88-8.33 1.94-3.94.08-7.38-.66-10.29-2.2-2.91-1.53-5.06-3.74-6.45-6.6s-2.03-5.95-1.96-9.28c.08-3.61.94-6.8 2.53-9.58s3.86-4.9 6.78-6.4c2.23-1.14 4.99-1.74 8.31-1.8 4.31-.08 6.75 1.18 9.27 2.88 2.51 1.7 3.86 4.68 4.74 7.82-2.61.85-3.46 1.33-6.3 1.96-.57-1.68-1.6-4.2-3.01-5.14-1.4-.94-2.74-1.35-4.79-1.31-3.1.06-5.36.82-7.2 2.77-1.84 1.94-2.79 4.81-2.81 8.63-.02 4.12.92 7.21 2.87 9.27s4.53 3.07 7.71 3.01c1.57-.03 3.14-.36 4.7-.98s2.89-1.37 3.98-2.23c-.07-1.76-.1-2.64-.17-4.4-3.38.13-6.58.18-9.96.25ZM330.67 734.98c-.53-3.45-.46-6.44.21-8.95.49-1.85 1.29-3.58 2.38-5.19q1.635-2.4 3.78-3.84 2.85-1.92 6.87-2.76c4.85-1.02 9.03-.4 12.64 1.95 3.61 2.34 6.11 6.19 7.38 11.61 1.27 5.38.75 9.99-1.65 13.78-2.4 3.8-6.27 6.31-11.51 7.42-5.31 1.12-9.83.38-13.45-2.13s-5.8-6.5-6.63-11.89Zm7.13-1.5c.66 3.83 2.06 6.56 4.24 8.18 2.19 1.62 4.72 2.14 7.56 1.54s4.97-2.09 6.36-4.45 1.65-5.48.8-9.36c-.84-3.84-2.31-6.49-4.39-8-2.08-1.5-4.5-1.95-7.27-1.37-2.78.59-4.84 1.99-6.21 4.25s-1.75 5.32-1.08 9.21ZM376.79 742.33c-3.49-11.03-6.98-22.05-10.46-33.08 5.75-1.82 8.62-2.78 14.32-4.81 3.58-1.28 6.28-1.96 8.12-1.99s3.53.5 5.09 1.61c1.55 1.1 2.72 2.6 3.47 4.51.95 2.42.99 4.72.08 6.89s-2.82 4.05-5.74 5.6c1.83.27 3.44.7 4.81 1.31s3.39 1.85 6.07 3.7c2.71 1.85 4.08 2.76 6.85 4.57-3.46 1.39-5.2 2.07-8.69 3.39-3.18-2.03-4.75-3.05-7.86-5.13-2.77-1.86-4.59-3.02-5.5-3.44s-1.78-.63-2.62-.61-2.07.31-3.71.86c-.58.2-.87.29-1.44.49l4.6 13.73c-2.95.99-4.42 1.47-7.38 2.4Zm1.02-21.39c2.08-.7 3.12-1.05 5.2-1.78 3.37-1.18 5.41-2.08 6.15-2.65s1.22-1.27 1.45-2.1q.345-1.245-.21-2.7c-.41-1.09-1.05-1.86-1.91-2.31s-1.9-.57-3.05-.33c-.58.12-2.26.7-5.05 1.68-2.15.75-3.22 1.12-5.37 1.84l2.8 8.35Z"/>
  </g>
  <g id="Layer_5">
    <path d="m229.979 331.41 4.406 1.389-1.39 4.406-4.406-1.389z" class="st0"/>
    <path d="m229.99 331.41 4.4 1.39-1.39 4.4-4.4-1.39zm-3.88 3.97c-.36 1.14.27 2.36 1.42 2.72l.31.1 4.4 1.39.31.1c1.14.36 2.36-.27 2.72-1.42l.1-.31 1.39-4.4.1-.31c.36-1.14-.27-2.36-1.42-2.72l-.31-.1-4.4-1.39-.31-.1c-1.14-.36-2.36.27-2.72 1.42l-1.59 5.03Z"/>
    <path d="m230.549 319.56 4.406 1.39-1.39 4.406-4.406-1.39z" class="st0"/>
    <path d="m230.55 319.56 4.4 1.39-1.39 4.4-4.4-1.39zm-3.88 3.96c-.36 1.14.27 2.36 1.42 2.72l.31.1 4.4 1.39.31.1c1.14.36 2.36-.27 2.72-1.42l.1-.31 1.39-4.4.1-.31c.36-1.14-.27-2.36-1.42-2.72l-.31-.1-4.4-1.39-.31-.1c-1.14-.36-2.36.27-2.72 1.42l-1.59 5.03Z"/>
    <path d="m241.101 325.94 4.406 1.39-1.389 4.406-4.406-1.39z" class="st0"/>
    <path d="m241.11 325.93 4.4 1.39-1.39 4.4-4.4-1.39zm-3.87 3.97c-.36 1.14.27 2.36 1.42 2.72l.31.1 4.4 1.39.31.1c1.14.36 2.36-.27 2.72-1.42l.1-.31 1.39-4.4.1-.31c.36-1.14-.27-2.36-1.42-2.72l-.31-.1-4.4-1.39-.31-.1c-1.14-.36-2.36.27-2.72 1.42l-1.59 5.03Z"/>
    <path d="m369.974 530.593 4.406 1.39-1.39 4.405-4.405-1.389z" class="st2"/>
    <path d="m369.99 530.59 4.4 1.39-1.39 4.4-4.4-1.39zm-3.87 3.97c-.36 1.14.27 2.36 1.42 2.72l.31.1 4.4 1.39.31.1c1.14.36 2.36-.27 2.72-1.42l.1-.31 1.39-4.4.1-.31c.36-1.14-.27-2.36-1.42-2.72l-.31-.1-4.4-1.39-.31-.1c-1.14-.36-2.36.27-2.72 1.42l-1.59 5.03Z"/>
    <path d="m380.679 524.474 4.406 1.389-1.39 4.406-4.405-1.39z" class="st2"/>
    <path d="m380.69 524.47 4.4 1.39-1.39 4.4-4.4-1.39zm-3.88 3.97c-.36 1.14.27 2.36 1.42 2.72l.31.1 4.4 1.39.31.1c1.14.36 2.36-.27 2.72-1.42l.1-.31 1.39-4.4.1-.31c.36-1.14-.27-2.36-1.42-2.72l-.31-.1-4.4-1.39-.31-.1c-1.14-.36-2.36.27-2.72 1.42l-1.59 5.03Z"/>
    <path d="m371.155 520.132 4.406 1.39-1.39 4.405-4.406-1.389z" class="st2"/>
    <path d="m371.18 520.13 4.4 1.39-1.39 4.4-4.4-1.39zm-3.88 3.97c-.36 1.14.27 2.36 1.42 2.72l.31.1 4.4 1.39.31.1c1.14.36 2.36-.27 2.72-1.42l.1-.31 1.39-4.4.1-.31c.36-1.14-.27-2.36-1.42-2.72l-.31-.1-4.4-1.39-.31-.1c-1.14-.36-2.36.27-2.72 1.42l-1.59 5.03Z"/>
    <path d="m336.361 607.771 4.407 1.39-1.39 4.406-4.406-1.39z" class="st2"/>
    <path d="m336.37 607.77 4.4 1.39-1.39 4.4-4.4-1.39zm-3.87 3.97c-.36 1.14.27 2.36 1.42 2.72l.31.1 4.4 1.39.31.1c1.14.36 2.36-.27 2.72-1.42l.1-.31 1.39-4.4.1-.31c.36-1.14-.27-2.36-1.42-2.72l-.31-.1-4.4-1.39-.31-.1c-1.14-.36-2.36.27-2.72 1.42l-1.59 5.03Z"/>
    <path d="m325.4 611.398 4.406 1.39-1.389 4.405-4.406-1.389z" class="st2"/>
    <path d="m325.41 611.39 4.4 1.39-1.39 4.4-4.4-1.39zm-3.87 3.97c-.36 1.14.27 2.36 1.42 2.72l.31.1 4.4 1.39.31.1c1.14.36 2.36-.27 2.72-1.42l.1-.31 1.39-4.4.1-.31c.36-1.14-.27-2.36-1.42-2.72l-.31-.1-4.4-1.39-.31-.1c-1.14-.36-2.36.27-2.72 1.42l-1.59 5.03Z"/>
  </g>
  <path d="m258.94 213.53 6.74 14.07 15.46 2.05-11.31 10.75 2.83 15.34-13.72-7.43-13.71 7.43 2.83-15.34-11.31-10.75 15.46-2.05z" class="st0"/>
  <path d="m258.94 213.53 6.73 14.07 15.46 2.05-11.3 10.75 2.83 15.34-13.72-7.43-13.72 7.43 2.83-15.34-11.3-10.75 15.46-2.05zm0-5.8-2.26 4.72-6.15 12.85-14.12 1.87-5.18.69 3.79 3.6 10.32 9.82-2.58 14.01-.95 5.14 4.6-2.49 12.53-6.78 12.53 6.78 4.6 2.49-.95-5.14-2.58-14.01 10.32-9.82 3.79-3.6-5.18-.69-14.12-1.87-6.15-12.85z"/>
</svg>
