<?xml version="1.0" encoding="UTF-8" standalone="no"?>
<!-- Generator: Adobe Illustrator 14.0.0, SVG Export Plug-In . SVG Version: 6.00 Build 43363)  -->

<svg
   xmlns:dc="http://purl.org/dc/elements/1.1/"
   xmlns:cc="http://creativecommons.org/ns#"
   xmlns:rdf="http://www.w3.org/1999/02/22-rdf-syntax-ns#"
   xmlns:svg="http://www.w3.org/2000/svg"
   xmlns="http://www.w3.org/2000/svg"
   xmlns:sodipodi="http://sodipodi.sourceforge.net/DTD/sodipodi-0.dtd"
   xmlns:inkscape="http://www.inkscape.org/namespaces/inkscape"
   version="1.1"
   id="Layer_1"
   x="0px"
   y="0px"
   width="316.07391"
   height="375.87689"
   viewBox="0 0 316.07391 375.87689"
   enable-background="new 0 0 612 792"
   xml:space="preserve"
   inkscape:version="0.47 r22583"
   sodipodi:docname="Jata_Negeri_Terengganu.svg"><metadata
   id="metadata385"><rdf:RDF><cc:Work
       rdf:about=""><dc:format>image/svg+xml</dc:format><dc:type
         rdf:resource="http://purl.org/dc/dcmitype/StillImage" /><dc:title></dc:title></cc:Work></rdf:RDF></metadata><defs
   id="defs383"><inkscape:perspective
     sodipodi:type="inkscape:persp3d"
     inkscape:vp_x="0 : 396 : 1"
     inkscape:vp_y="0 : 1000 : 0"
     inkscape:vp_z="612 : 396 : 1"
     inkscape:persp3d-origin="306 : 264 : 1"
     id="perspective387" /></defs><sodipodi:namedview
   pagecolor="#ffffff"
   bordercolor="#666666"
   borderopacity="1"
   objecttolerance="10"
   gridtolerance="10"
   guidetolerance="10"
   inkscape:pageopacity="0"
   inkscape:pageshadow="2"
   inkscape:window-width="1366"
   inkscape:window-height="716"
   id="namedview381"
   showgrid="false"
   inkscape:zoom="1.023438"
   inkscape:cx="158.99995"
   inkscape:cy="188.87595"
   inkscape:window-x="-8"
   inkscape:window-y="-8"
   inkscape:window-maximized="1"
   inkscape:current-layer="Layer_1" />
<g
   id="g3"
   transform="translate(-147.00005,-208.99905)">
	<path
   stroke-miterlimit="3.8637"
   d="m 149.097,396.938 c 0,-102.639 69.816,-185.842 155.94,-185.842 86.124,0 155.94,83.203 155.94,185.842 0,102.639 -69.816,185.841 -155.94,185.841 -86.124,0 -155.94,-83.202 -155.94,-185.841 l 0,0 z"
   id="path5"
   style="fill:#ffffff;stroke:#000000;stroke-width:4.19390011;stroke-miterlimit:3.86369991" />
	<polygon
   stroke-miterlimit="3.8637"
   points="371.193,396.413 366.468,391.688 366.468,391.688 252.533,505.083 257.258,510.332 "
   id="polygon7"
   style="fill:#fff200;stroke:#000000;stroke-width:1.62810004;stroke-miterlimit:3.86369991" />
	<polygon
   stroke-miterlimit="3.8637"
   points="259.883,400.351 286.661,399.563 286.661,399.563 373.557,486.708 359.643,500.357 "
   id="polygon9"
   style="fill:#fff200;stroke:#000000;stroke-width:1.62810004;stroke-miterlimit:3.86369991" />
	<polygon
   stroke-miterlimit="3.8637"
   points="235.731,393.263 240.457,388.538 240.457,388.538 355.705,503.508 350.717,508.232 "
   id="polygon11"
   style="fill:#fff200;stroke:#000000;stroke-width:1.62810004;stroke-miterlimit:3.86369991" />
	<path
   stroke-miterlimit="3.8637"
   d="m 348.616,338.403 c 7.876,12.336 19.952,24.936 19.952,24.936 -7.613,8.138 -14.177,-0.787 -18.377,2.625 L 238.356,477.259 c 0,0 -4.2,4.2 -9.976,3.675 -0.788,-6.037 3.676,-11.024 3.676,-11.024 L 342.841,359.666 c 4.725,-4.464 -4.2,-17.326 5.775,-21.263 l 0,0 z"
   id="path13"
   style="fill:#fff200;stroke:#000000;stroke-width:1.62810004;stroke-miterlimit:3.86369991" />
	<path
   stroke-miterlimit="3.8637"
   d="m 356.229,348.902 c 0,0 3.938,-8.925 10.764,-12.074 9.188,-20.212 14.701,-11.55 14.701,-11.55 0,0 7.351,5.775 -8.4,16.275 -2.626,5.774 -11.289,12.599 -14.176,11.024 l -2.889,-3.675 0,0 z"
   id="path15"
   style="fill:#fff200;stroke:#000000;stroke-width:1.62810004;stroke-miterlimit:3.86369991" />
	<polygon
   stroke-miterlimit="3.8637"
   points="212.629,423.187 212.629,414.262 212.629,414.262 237.568,438.936 237.568,447.86 "
   id="polygon17"
   style="fill:#fff200;stroke:#000000;stroke-width:1.62810004;stroke-linejoin:round;stroke-miterlimit:3.86369991" />
	<polygon
   stroke-miterlimit="3.8637"
   points="237.306,448.124 237.306,439.198 237.306,439.198 254.108,422.137 254.108,431.062 "
   id="polygon19"
   style="fill:#fff200;stroke:#000000;stroke-width:1.62810004;stroke-linejoin:round;stroke-miterlimit:3.86369991" />
	<polygon
   stroke-miterlimit="3.8637"
   points="211.648,415.435 228.416,398.67 228.416,398.67 253.044,423.418 236.276,440.182 "
   id="polygon21"
   style="fill:#fff200;stroke:#000000;stroke-width:1.62810004;stroke-linejoin:round;stroke-miterlimit:3.86369991" />
	<polygon
   stroke-miterlimit="3.8637"
   points="397.446,423.449 397.446,414.525 397.446,414.525 372.506,439.198 372.506,448.124 "
   id="polygon23"
   style="fill:#fff200;stroke:#000000;stroke-width:1.62810004;stroke-linejoin:round;stroke-miterlimit:3.86369991" />
	<polygon
   stroke-miterlimit="3.8637"
   points="372.769,448.386 372.769,439.461 372.769,439.461 355.967,422.399 355.967,431.324 "
   id="polygon25"
   style="fill:#fff200;stroke:#000000;stroke-width:1.62810004;stroke-linejoin:round;stroke-miterlimit:3.86369991" />
	<polygon
   stroke-miterlimit="3.8637"
   points="396.041,415.695 379.191,398.932 379.191,398.932 354.442,423.679 371.293,440.443 "
   id="polygon27"
   style="fill:#fff200;stroke:#000000;stroke-width:1.62810004;stroke-linejoin:round;stroke-miterlimit:3.86369991" />
	<polygon
   stroke-miterlimit="3.8637"
   points="348.092,402.188 319.738,402.713 319.738,402.713 235.206,487.233 248.857,500.883 "
   id="polygon29"
   style="fill:#fff200;stroke:#000000;stroke-width:1.62810004;stroke-linejoin:round;stroke-miterlimit:3.86369991" />
	<path
   stroke-miterlimit="3.8637"
   d="m 234.943,327.641 c -3.675,1.05 -8.663,-7.611 -11.026,-4.725 -3.15,2.362 5.775,6.825 4.2,11.55 l 135.988,135.969 c 0,0 9.713,11.286 18.902,4.987 l -148.064,-147.781 0,0 z"
   id="path31"
   style="fill:#fff200;stroke:#000000;stroke-width:1.62810004;stroke-miterlimit:3.86369991" />
	<path
   stroke-miterlimit="3.8637"
   d="m 273.009,385.389 c -4.726,-2.1 -7.351,1.574 -7.351,1.574 l -6.038,8.4 c -2.888,3.938 0.788,5.512 0.788,5.512 45.154,22.312 87.684,1.313 87.684,1.313 0,0 3.413,-2.1 0.262,-5.774 l -6.301,-7.875 c -1.837,-3.412 -6.563,-3.149 -6.563,-3.149 0,0 -29.928,14.173 -62.481,-10e-4 l 0,0 z"
   id="path33"
   style="fill:#fff200;stroke:#000000;stroke-width:1.62810004;stroke-miterlimit:3.86369991" />
	<path
   stroke-miterlimit="3.8637"
   d="m 240.194,284.331 c 0,-1.16 0.94,-2.101 2.1,-2.101 1.16,0 2.1,0.94 2.1,2.101 0,1.161 -0.94,2.1 -2.1,2.1 -1.16,0 -2.1,-0.94 -2.1,-2.1 l 0,0 z"
   id="path35"
   style="fill:#fff200;stroke:#000000;stroke-width:1.3398;stroke-linejoin:round;stroke-miterlimit:3.86369991" />
	<path
   stroke-miterlimit="3.8637"
   d="m 234.681,288.793 c 0,-1.159 0.94,-2.1 2.1,-2.1 1.16,0 2.1,0.94 2.1,2.1 0,1.16 -0.94,2.1 -2.1,2.1 -1.16,0 -2.1,-0.94 -2.1,-2.1 l 0,0 z"
   id="path37"
   style="fill:#fff200;stroke:#000000;stroke-width:1.3398;stroke-linejoin:round;stroke-miterlimit:3.86369991" />
	<path
   stroke-miterlimit="3.8637"
   d="m 229.693,294.043 c 0,-1.16 0.94,-2.1 2.1,-2.1 1.16,0 2.1,0.939 2.1,2.1 0,1.159 -0.94,2.1 -2.1,2.1 -1.16,0 -2.1,-0.941 -2.1,-2.1 l 0,0 z"
   id="path39"
   style="fill:#fff200;stroke:#000000;stroke-width:1.3398;stroke-linejoin:round;stroke-miterlimit:3.86369991" />
	<path
   stroke-miterlimit="3.8637"
   d="m 225.099,299.555 c 0,-1.159 0.94,-2.1 2.1,-2.1 1.16,0 2.1,0.94 2.1,2.1 0,1.16 -0.94,2.101 -2.1,2.101 -1.16,0 -2.1,-0.941 -2.1,-2.101 l 0,0 z"
   id="path41"
   style="fill:#fff200;stroke:#000000;stroke-width:1.3398;stroke-linejoin:round;stroke-miterlimit:3.86369991" />
	<path
   stroke-miterlimit="3.8637"
   d="m 220.898,305.33 c 0,-1.16 0.94,-2.101 2.1,-2.101 1.16,0 2.101,0.94 2.101,2.101 0,1.159 -0.94,2.1 -2.101,2.1 -1.16,0 -2.1,-0.941 -2.1,-2.1 l 0,0 z"
   id="path43"
   style="fill:#fff200;stroke:#000000;stroke-width:1.3398;stroke-linejoin:round;stroke-miterlimit:3.86369991" />
	<path
   stroke-miterlimit="3.8637"
   d="m 299.524,301.523 c 0,-1.16 0.94,-2.101 2.1,-2.101 1.16,0 2.101,0.94 2.101,2.101 0,1.159 -0.94,2.1 -2.101,2.1 -1.159,0 -2.1,-0.94 -2.1,-2.1 l 0,0 z"
   id="path45"
   style="fill:#fff200;stroke:#000000;stroke-width:1.3398;stroke-linejoin:round;stroke-miterlimit:3.86369991" />
	<path
   stroke-miterlimit="3.8637"
   d="m 255.945,466.759 13.652,13.65 m -11.289,-16.275 13.651,13.65 m -22.577,-4.462 13.651,13.648 m -11.288,-16.274 13.651,13.65"
   id="path47"
   style="fill:none;stroke:#000000;stroke-width:2.23650002;stroke-linejoin:round;stroke-miterlimit:3.86369991" />
	<path
   stroke-miterlimit="3.8637"
   d="m 251.22,475.422 -13.914,14.175 m 16.014,-11.55 -13.914,14.174 m 16.802,-12.337 -13.914,14.175 m 16.014,-11.55 -13.914,14.174 m 16.277,-11.812 -13.915,14.175"
   id="path49"
   style="fill:none;stroke:#000000;stroke-width:1.62810004;stroke-linejoin:round;stroke-miterlimit:3.86369991" />
	<path
   stroke-miterlimit="3.8637"
   d="m 352.554,465.71 -13.651,13.649 m 11.288,-16.274 -13.651,13.649 m 22.578,-4.463 -13.651,13.649 m 11.288,-16.274 -13.652,13.649"
   id="path51"
   style="fill:none;stroke:#000000;stroke-width:2.23650002;stroke-linejoin:round;stroke-miterlimit:3.86369991" />
	<path
   stroke-miterlimit="3.8637"
   d="m 357.279,474.372 13.914,14.174 m -16.013,-11.55 13.914,14.175 m -16.802,-12.337 13.914,14.175 m -16.015,-11.55 13.914,14.175 m -16.276,-11.813 13.913,14.175"
   id="path53"
   style="fill:none;stroke:#000000;stroke-width:1.62810004;stroke-linejoin:round;stroke-miterlimit:3.86369991" />
	<path
   stroke-miterlimit="3.8637"
   d="m 233.106,325.016 c 1.74,0 3.15,3.819 3.15,8.531 l 0,0 c 0,4.712 -1.411,8.531 -3.15,8.531 -1.74,0 -3.15,-3.819 -3.15,-8.531 l 0,0 c 0,-4.712 1.41,-8.531 3.15,-8.531 l 0,0 z"
   id="path55"
   style="fill:#fff200;stroke:#000000;stroke-width:1.3398;stroke-miterlimit:3.86369991" />
	<path
   stroke-miterlimit="3.8637"
   d="m 237.831,328.954 c 1.74,0 3.15,3.819 3.15,8.53 l 0,0 c 0,4.712 -1.411,8.53 -3.15,8.53 -1.739,0 -3.15,-3.818 -3.15,-8.53 l 0,0 c 0,-4.711 1.41,-8.53 3.15,-8.53 l 0,0 z"
   id="path57"
   style="fill:#fff200;stroke:#000000;stroke-width:1.62810004;stroke-miterlimit:3.86369991" />
	<path
   stroke-miterlimit="3.8637"
   d="m 242.032,333.153 0,0 c 1.74,0 3.15,3.819 3.15,8.53 0,4.712 -1.411,8.531 -3.15,8.531 l 0,0 c -1.74,0 -3.151,-3.819 -3.151,-8.531 0,-4.71 1.411,-8.53 3.151,-8.53 l 0,0 z"
   id="path59"
   style="fill:#fff200;stroke:#000000;stroke-width:1.62810004;stroke-miterlimit:3.86369991" />
	<path
   stroke-miterlimit="3.8637"
   d="m 246.757,337.091 c 1.74,0 3.151,3.819 3.151,8.53 0,4.712 -1.411,8.531 -3.151,8.531 -1.74,0 -3.15,-3.819 -3.15,-8.531 -0.001,-4.711 1.41,-8.53 3.15,-8.53 l 0,0 z"
   id="path61"
   style="fill:#fff200;stroke:#000000;stroke-width:1.62810004;stroke-miterlimit:3.86369991" />
	<path
   stroke-miterlimit="3.8637"
   d="m 250.958,342.078 0,0 c 1.74,0 3.15,3.819 3.15,8.53 l 0,0 c 0,4.712 -1.411,8.53 -3.15,8.53 l 0,0 c -1.74,0 -3.15,-3.818 -3.15,-8.53 l 0,0 c -0.001,-4.711 1.409,-8.53 3.15,-8.53 l 0,0 z"
   id="path63"
   style="fill:#fff200;stroke:#000000;stroke-width:1.62810004;stroke-miterlimit:3.86369991" />
	<path
   stroke-miterlimit="3.8637"
   d="m 253.583,346.803 c -2.101,0.525 -6.867,8.376 -4.463,8.662 11.026,1.313 7.351,-4.987 7.613,-6.037 0.262,-1.05 -0.788,-3.413 -3.15,-2.625 l 0,0 z"
   id="path65"
   style="fill:#fff200;stroke:#000000;stroke-width:1.62810004;stroke-miterlimit:3.86369991" />
	<path
   stroke-miterlimit="3.8637"
   d="m 229.956,322.916 c -8.663,8.138 -18.64,43.311 11.289,46.461 8.926,1.312 19.952,-13.125 19.952,-13.125 6.826,-3.149 13.389,-9.449 -1.05,-9.449 -2.364,0 -3.413,2.625 -3.413,2.625 0,0 2.888,7.087 -7.613,6.037 -12.863,19.161 -30.453,-8.925 -16.539,-30.974 2.099,-3.15 -1.052,-4.462 -2.626,-1.575 l 0,0 z"
   id="path67"
   style="fill:#fff200;stroke:#000000;stroke-width:1.62810004;stroke-miterlimit:3.86369991" />
	<path
   stroke-miterlimit="3.8637"
   d="m 280.098,262.545 c 0,-13.628 11.048,-24.675 24.677,-24.675 13.628,0 24.677,11.047 24.677,24.675 0,13.627 -11.049,24.674 -24.677,24.674 -13.629,0 -24.677,-11.047 -24.677,-24.674 l 0,0 z"
   id="path69"
   style="fill:#fff200;stroke:#000000;stroke-width:1.62810004;stroke-linejoin:round;stroke-miterlimit:3.86369991" />
	<path
   stroke-miterlimit="3.8637"
   d="m 284.298,256.245 c 0,-11.309 9.168,-20.475 20.477,-20.475 11.309,0 20.477,9.166 20.477,20.475 0,11.308 -9.168,20.474 -20.477,20.474 -11.309,0 -20.477,-9.166 -20.477,-20.474 l 0,0 z"
   id="path71"
   style="fill:#ffffff;stroke:#000000;stroke-width:1.62810004;stroke-linejoin:round;stroke-miterlimit:3.86369991" />
	<path
   d="m 286.267,251.389 c 0,-10.221 8.286,-18.505 18.508,-18.505 10.221,0 18.507,8.284 18.507,18.505 0,10.22 -8.286,18.505 -18.507,18.505 -10.222,0 -18.508,-8.286 -18.508,-18.505 l 0,0 z"
   id="path73"
   style="fill:#ffffff" />
	<polygon
   stroke-miterlimit="3.8637"
   points="318.426,259.132 305.3,250.47 292.699,258.082 297.424,244.433 287.449,234.983 300.837,234.458 306.35,221.597 311.075,234.458 311.075,234.458 324.201,234.983 314.226,244.433 "
   id="polygon75"
   style="fill:#fff200;stroke:#000000;stroke-width:1.62810004;stroke-linejoin:round;stroke-miterlimit:3.86369991" />
	<path
   clip-rule="evenodd"
   stroke-miterlimit="3.8637"
   d="m 363.056,548.393 c 1.838,4.726 -9.451,11.55 -12.602,7.612 1.575,7.612 18.64,-1.312 12.602,-7.612 l 0,0 z"
   id="path77"
   style="fill-rule:evenodd;stroke:#000000;stroke-width:0.40540001;stroke-miterlimit:3.86369991" />
	<polygon
   stroke-miterlimit="3.8637"
   points="353.079,547.343 353.079,544.981 353.079,544.981 355.18,544.981 355.18,547.343 "
   id="polygon79"
   style="stroke:#000000;stroke-width:0.40540001;stroke-miterlimit:3.86369991" />
	<polygon
   stroke-miterlimit="3.8637"
   points="355.705,545.769 355.705,543.405 355.705,543.405 357.805,543.405 357.805,545.769 "
   id="polygon81"
   style="stroke:#000000;stroke-width:0.40540001;stroke-miterlimit:3.86369991" />
	<path
   stroke-miterlimit="3.8637"
   d="m 343.891,554.43 -1.575,0.264 c 3.151,6.036 -6.563,6.824 -10.5,9.975 -10e-4,-10e-4 13.651,0.261 12.075,-10.239 l 0,0 z"
   id="path83"
   style="stroke:#000000;stroke-width:0.40540001;stroke-miterlimit:3.86369991" />
	<path
   stroke-miterlimit="3.8637"
   d="m 322.626,553.118 c -5.25,0 -5.775,4.725 -2.1,6.299 0,0 -3.15,2.888 -2.362,7.087 0.677,3.835 5.513,5.645 11.419,3.02 -9.319,2.494 -13.126,-9.188 -2.887,-11.419 l -0.132,-1.05 c 0,0 -4.463,1.838 -5.251,0.263 -1.575,-2.362 1.313,-4.2 1.313,-4.2 l 0,0 z"
   id="path85"
   style="stroke:#000000;stroke-width:0.40540001;stroke-miterlimit:3.86369991" />
	<polygon
   stroke-miterlimit="3.8637"
   points="319.87,551.28 319.87,548.918 319.87,548.918 321.971,548.918 321.971,551.28 "
   id="polygon87"
   style="stroke:#000000;stroke-width:0.40540001;stroke-miterlimit:3.86369991" />
	<polygon
   stroke-miterlimit="3.8637"
   points="296.243,551.937 296.243,549.574 296.243,549.574 298.344,549.574 298.344,551.937 "
   id="polygon89"
   style="stroke:#000000;stroke-width:0.40540001;stroke-miterlimit:3.86369991" />
	<polygon
   stroke-miterlimit="3.8637"
   points="323.414,549.705 323.414,547.343 323.414,547.343 325.514,547.343 325.514,549.705 "
   id="polygon91"
   style="stroke:#000000;stroke-width:0.40540001;stroke-miterlimit:3.86369991" />
	<polygon
   stroke-miterlimit="3.8637"
   points="320.264,547.999 320.264,545.638 320.264,545.638 322.364,545.638 322.364,547.999 "
   id="polygon93"
   style="stroke:#000000;stroke-width:0.40540001;stroke-miterlimit:3.86369991" />
	<path
   stroke-miterlimit="3.8637"
   d="m 313.307,547.999 c 0,0 -7.219,-0.263 -11.025,4.331 l -1.575,3.281 c -0.131,2.231 6.431,6.824 5.644,8.006 0.393,1.313 -6.038,4.594 -13.914,-0.525 0,0 -0.131,5.119 10.501,4.595 3.255,-0.177 5.563,-2.829 4.594,-7.088 -0.656,-2.23 -4.2,-3.937 -4.068,-6.693 4.068,-4.331 10.106,-5.119 10.106,-5.119 l -0.263,-0.788 0,0 z"
   id="path95"
   style="stroke:#000000;stroke-width:0.40540001;stroke-miterlimit:3.86369991" />
	<path
   stroke-miterlimit="3.8637"
   d="m 284.692,548.524 c 0.656,3.938 -0.394,10.63 0.919,12.6 1.181,-1.444 2.1,-9.318 1.05,-13.388 l -1.969,0.788 0,0 z"
   id="path97"
   style="stroke:#000000;stroke-width:0.40540001;stroke-miterlimit:3.86369991" />
	<polygon
   stroke-miterlimit="3.8637"
   points="269.859,547.474 269.859,545.112 269.859,545.112 271.959,545.112 271.959,547.474 "
   id="polygon99"
   style="stroke:#000000;stroke-width:0.40540001;stroke-miterlimit:3.86369991" />
	<path
   stroke-miterlimit="3.8637"
   d="m 274.322,552.593 c 0.919,4.987 -6.038,5.381 -6.038,5.381 0,0 -6.694,0.919 -7.612,-3.806 -2.758,7.219 7.481,6.3 7.481,6.3 2.363,-0.132 10.369,-1.575 6.169,-7.875 l 0,0 z"
   id="path101"
   style="stroke:#000000;stroke-width:0.40540001;stroke-miterlimit:3.86369991" />
	<path
   stroke-miterlimit="3.8637"
   d="m 257.389,546.425 c -3.806,-5.513 -9.057,2.493 -3.15,3.543 2.756,3.938 -7.22,3.675 -11.945,0.919 1.313,6.037 10.764,3.543 12.733,2.231 -10e-4,0 4.331,-1.838 2.362,-6.693 l 0,0 z"
   id="path103"
   style="stroke:#000000;stroke-width:0.40540001;stroke-miterlimit:3.86369991" />
	<path
   stroke-miterlimit="3.8637"
   d="m 252.866,548.888 c -0.768,-0.575 -1.171,-1.334 -0.9,-1.693 0.271,-0.359 1.112,-0.184 1.88,0.392 0.768,0.576 1.171,1.334 0.9,1.693 -0.271,0.359 -1.113,0.184 -1.88,-0.392 l 0,0 z"
   id="path105"
   style="fill:#ffffff;stroke:#000000;stroke-width:0.40540001;stroke-miterlimit:3.86369991" />
	<path
   stroke-miterlimit="3.8637"
   d="m 305.562,330.267 c -26.777,-10.237 -45.679,6.037 -23.626,25.724 h 46.991 c 20.739,-20.213 4.2,-35.962 -23.365,-25.724 l 0,0 z"
   id="path107"
   style="fill:#fff200;stroke:#000000;stroke-width:1.62810004;stroke-linejoin:round;stroke-miterlimit:3.86369991" />
	<path
   stroke-miterlimit="3.8637"
   d="m 300.837,328.954 c -19.427,-2.363 -29.928,16.799 -12.602,26.772 m 21.528,-26.772 c 19.427,-2.363 29.928,16.799 12.602,26.772"
   id="path109"
   style="fill:none;stroke:#000000;stroke-width:2.23650002;stroke-linejoin:round;stroke-miterlimit:3.86369991" />
	<path
   stroke-miterlimit="3.8637"
   d="m 281.936,355.99 c 23.626,-4.2 46.991,0 46.991,0 v 10.762 c 0,4.462 -23.102,5.512 -23.102,5.512 0,0 -24.153,-1.05 -23.89,-4.987 V 355.99 l 10e-4,0 z"
   id="path111"
   style="fill:#fff200;stroke:#000000;stroke-width:1.62810004;stroke-linejoin:round;stroke-miterlimit:3.86369991" />
	<path
   stroke-miterlimit="3.8637"
   d="m 303.987,339.453 c 0,-1.015 0.823,-1.837 1.838,-1.837 1.014,0 1.837,0.822 1.837,1.837 0,1.015 -0.823,1.837 -1.837,1.837 -1.015,0 -1.838,-0.822 -1.838,-1.837 l 0,0 z"
   id="path113"
   style="stroke:#000000;stroke-width:0.64789999;stroke-linejoin:round;stroke-miterlimit:3.86369991" />
	<path
   stroke-miterlimit="3.8637"
   d="m 303.987,345.753 c 0,-1.015 0.823,-1.838 1.838,-1.838 1.014,0 1.837,0.823 1.837,1.838 0,1.015 -0.823,1.837 -1.837,1.837 -1.015,0 -1.838,-0.822 -1.838,-1.837 l 0,0 z"
   id="path115"
   style="stroke:#000000;stroke-width:0.64789999;stroke-linejoin:round;stroke-miterlimit:3.86369991" />
	<path
   stroke-miterlimit="3.8637"
   d="m 296.637,363.077 c 0,-0.87 0.705,-1.575 1.575,-1.575 0.87,0 1.575,0.705 1.575,1.575 0,0.869 -0.706,1.574 -1.575,1.574 -0.87,0 -1.575,-0.705 -1.575,-1.574 l 0,0 z"
   id="path117"
   style="stroke:#000000;stroke-width:0.64789999;stroke-linejoin:round;stroke-miterlimit:3.86369991" />
	<path
   stroke-miterlimit="3.8637"
   d="m 283.51,368.589 c 22.315,-4.725 43.58,0 43.58,0 m -45.154,-6.563 c 24.152,-5.512 46.991,0 46.991,0"
   id="path119"
   style="fill:none;stroke:#000000;stroke-width:1.62810004;stroke-linejoin:round;stroke-miterlimit:3.86369991" />
	<path
   stroke-miterlimit="3.8637"
   d="m 284.035,365.177 c 0,-0.87 0.706,-1.575 1.576,-1.575 0.87,0 1.575,0.705 1.575,1.575 0,0.87 -0.706,1.575 -1.575,1.575 -0.87,0 -1.576,-0.705 -1.576,-1.575 l 0,0 z"
   id="path121"
   style="stroke:#000000;stroke-width:0.64789999;stroke-linejoin:round;stroke-miterlimit:3.86369991" />
	<path
   stroke-miterlimit="3.8637"
   d="m 288.499,364.39 c 0,-0.87 0.705,-1.575 1.575,-1.575 0.87,0 1.575,0.705 1.575,1.575 0,0.87 -0.705,1.574 -1.575,1.574 -0.87,0 -1.575,-0.704 -1.575,-1.574 l 0,0 z"
   id="path123"
   style="stroke:#000000;stroke-width:0.64789999;stroke-linejoin:round;stroke-miterlimit:3.86369991" />
	<path
   stroke-miterlimit="3.8637"
   d="m 308.188,363.339 c 0,-0.869 0.705,-1.574 1.575,-1.574 0.87,0 1.575,0.705 1.575,1.574 0,0.87 -0.705,1.575 -1.575,1.575 -0.87,0 -1.575,-0.705 -1.575,-1.575 l 0,0 z"
   id="path125"
   style="stroke:#000000;stroke-width:0.64789999;stroke-linejoin:round;stroke-miterlimit:3.86369991" />
	<path
   stroke-miterlimit="3.8637"
   d="m 294.012,359.927 c 0,0 -0.525,3.675 0.262,6.563"
   id="path127"
   style="fill:none;stroke:#000000;stroke-width:3.22140002;stroke-linejoin:round;stroke-miterlimit:3.86369991" />
	
		<line
   stroke-miterlimit="3.8637"
   x1="303.987"
   y1="359.66501"
   x2="303.987"
   y2="366.22699"
   id="line129"
   style="fill:none;stroke:#000000;stroke-width:4.19390011;stroke-linejoin:round;stroke-miterlimit:3.86369991" />
	<path
   stroke-miterlimit="3.8637"
   d="m 315.014,359.927 c 0,0 0.524,3.675 -0.264,6.563"
   id="path131"
   style="fill:none;stroke:#000000;stroke-width:3.22140002;stroke-linejoin:round;stroke-miterlimit:3.86369991" />
	<path
   stroke-miterlimit="3.8637"
   d="m 318.688,364.39 c 0,-0.87 0.706,-1.575 1.576,-1.575 0.87,0 1.575,0.705 1.575,1.575 0,0.87 -0.705,1.574 -1.575,1.574 -0.87,0 -1.576,-0.704 -1.576,-1.574 l 0,0 z"
   id="path133"
   style="stroke:#000000;stroke-width:0.64789999;stroke-linejoin:round;stroke-miterlimit:3.86369991" />
	<path
   stroke-miterlimit="3.8637"
   d="m 323.414,364.914 c 0,-0.869 0.705,-1.575 1.575,-1.575 0.87,0 1.575,0.706 1.575,1.575 0,0.87 -0.705,1.575 -1.575,1.575 -0.87,0 -1.575,-0.705 -1.575,-1.575 l 0,0 z"
   id="path135"
   style="stroke:#000000;stroke-width:0.64789999;stroke-linejoin:round;stroke-miterlimit:3.86369991" />
	<path
   stroke-miterlimit="3.8637"
   d="m 297.687,321.998 c 0,-4.422 3.585,-8.007 8.007,-8.007 4.421,0 8.006,3.585 8.006,8.007 0,4.421 -3.585,8.006 -8.006,8.006 -4.422,0 -8.007,-3.585 -8.007,-8.006 l 0,0 z"
   id="path137"
   style="fill:#fff200;stroke:#000000;stroke-width:1.3398;stroke-linejoin:round;stroke-miterlimit:3.86369991" />
	<path
   stroke-miterlimit="3.8637"
   d="m 299,320.029 c 0,-3.696 2.998,-6.693 6.695,-6.693 3.696,0 6.693,2.997 6.693,6.693 0,3.696 -2.997,6.693 -6.693,6.693 -3.698,0.001 -6.695,-2.996 -6.695,-6.693 l 0,0 z"
   id="path139"
   style="fill:#ffffff;stroke:#000000;stroke-width:1.3398;stroke-linejoin:round;stroke-miterlimit:3.86369991" />
	<path
   d="m 299.393,318.585 c 0,-3.479 2.821,-6.299 6.301,-6.299 3.479,0 6.3,2.82 6.3,6.299 0,3.479 -2.821,6.3 -6.3,6.3 -3.48,0 -6.301,-2.821 -6.301,-6.3 l 0,0 z"
   id="path141"
   style="fill:#ffffff" />
	<polygon
   stroke-miterlimit="3.8637"
   points="302.544,317.798 301.625,321.604 305.432,319.373 309.106,321.473 307.925,317.535 311.075,315.436 306.875,314.779 305.562,311.761 305.562,311.761 303.725,314.91 300.049,315.305 "
   id="polygon143"
   style="fill:#fff200;stroke:#000000;stroke-width:1.3398;stroke-miterlimit:3.86369991" />
	<path
   stroke-miterlimit="3.8637"
   d="m 287.186,355.99 0.263,4.987 m 6.563,-6.299 0.262,4.987 m 29.927,-3.938 0.263,4.988 m -4.726,-5.25 0.263,4.986"
   id="path145"
   style="fill:none;stroke:#000000;stroke-width:4.19390011;stroke-linejoin:round;stroke-miterlimit:3.86369991" />
	<path
   stroke-miterlimit="3.8637"
   d="m 311.862,354.415 c 0,0 2.363,2.624 3.151,5.512 m -7.35,-5.249 c 0,0 0,2.887 -3.676,4.987 m -3.675,-5.513 c 0,0 0,2.887 3.675,4.986"
   id="path147"
   style="fill:none;stroke:#000000;stroke-width:3.22140002;stroke-linejoin:round;stroke-miterlimit:3.86369991" />
	<path
   stroke-miterlimit="3.8637"
   d="m 295.324,327.641 c 0,0 -3.624,1.781 -4.2,-0.524 0,0 -3.394,2.438 -3.938,0.263 0,0 -3.151,2.625 -4.201,0.525 0,0 -0.668,3.077 -3.675,1.574 0,0 -0.262,3.413 -3.938,2.888 0,0 0.525,3.149 -2.625,3.938 0,0 2.363,4.461 -0.526,4.461 0,0 3.676,2.101 1.313,4.463 0,0 3.938,1.05 2.1,3.675 0,0 4.726,0.263 3.414,3.938 0,0 4.2,-0.525 2.888,3.15 m 33.078,-28.351 c 0,0 3.623,1.781 4.2,-0.524 0,0 3.393,2.438 3.938,0.263 0,0 3.15,2.625 4.2,0.525 0,0 0.669,3.077 3.676,1.574 0,0 1.051,2.888 3.938,2.888 0,0 0.264,2.887 2.625,3.938 0,0 -2.361,4.461 0.525,4.461 0,0 -3.675,2.101 -1.312,4.463 0,0 -3.938,1.05 -2.101,3.675 0,0 -3.938,0.525 -3.413,3.938 0,0 -2.889,0.263 -2.889,3.15 m -27.564,-27.038 c -16.276,1.574 -17.327,19.948 -8.401,25.198 m 8.401,-25.198 c 0,0 -1.575,3.149 -4.726,1.313 0,0 -0.788,3.412 -4.2,2.362 0,0 0.263,3.411 -3.412,3.675 0,0 2.099,3.937 -1.576,4.986 0,0 3.413,2.888 0.263,4.725 0,0 3.675,1.575 1.837,4.463 0,0 4.201,0.262 3.413,3.675 m 18.377,-25.199 c 16.277,1.574 17.327,19.948 8.401,25.198 m -8.401,-25.198 c 0,0 1.575,3.149 4.726,1.313 0,0 0.788,3.412 4.2,2.362 0,0 -0.262,3.411 3.413,3.675 0,0 -2.1,3.937 1.575,4.986 0,0 -3.413,2.888 -0.263,4.725 0,0 -3.675,1.575 -1.838,4.463 0,0 -4.2,0.262 -3.412,3.675"
   id="path149"
   style="fill:none;stroke:#000000;stroke-width:1.62810004;stroke-linejoin:round;stroke-miterlimit:3.86369991" />
	<path
   stroke-miterlimit="3.8637"
   d="m 303.987,330.004 c -9.976,5.249 -12.338,14.699 -6.3,23.886 m 9.713,-23.886 c 9.976,5.249 12.338,14.699 6.3,23.886"
   id="path151"
   style="fill:none;stroke:#000000;stroke-width:2.23650002;stroke-linejoin:round;stroke-miterlimit:3.86369991" />
	<path
   stroke-miterlimit="3.8637"
   d="m 305.562,330.267 c -6.038,6.824 -8.138,16.011 -1.575,23.36 m 1.575,-23.36 c 0,0 0.788,3.675 -2.625,3.412 0,0 1.05,2.887 -1.838,3.674 0,0 1.838,3.676 -1.05,4.463 0,0 2.888,2.888 0.263,4.462 0,0 3.675,1.313 1.05,3.676 0,0 3.938,1.313 2.625,3.674 m 2.363,-23.1 c 0,0 -0.788,3.676 2.625,3.413 0,0 -1.05,2.887 1.838,3.675 0,0 -1.838,3.674 1.05,4.462 0,0 -2.888,2.888 -0.263,4.462 0,0 -3.675,1.313 -1.049,3.675 0,0 -3.938,1.312 -2.626,3.675 m -1.575,-23.362 c 6.038,6.824 8.138,16.012 1.575,23.361"
   id="path153"
   style="fill:none;stroke:#000000;stroke-width:1.62810004;stroke-linejoin:round;stroke-miterlimit:3.86369991" />
	<path
   stroke-miterlimit="3.8637"
   d="m 216.304,362.814 c -1.969,0 -2.101,-1.313 -4.201,-1.313 -1.969,0 -3.15,2.231 -3.15,4.2 0,6.168 3.085,6.579 6.563,9.187 l 12.601,12.862 c 1.313,5.774 7.614,5.512 7.614,5.512 l 4.726,-4.725 c 0,-4.593 -2.626,-6.432 -6.301,-7.612 L 222.08,368.851 c 0,0 -0.263,-5.513 -2.888,-6.037 -0.515,-0.102 -2.363,0 -2.888,0 l 0,0 z"
   id="path155"
   style="stroke:#000000;stroke-width:1.3398;stroke-linejoin:round;stroke-miterlimit:3.86369991" />
	<path
   stroke-miterlimit="3.8637"
   d="m 218.404,365.439 1.575,2.1 c -0.787,2.362 -1.707,4.725 -4.463,4.725 -0.787,0 -1.575,-1.837 -1.838,-2.887 0.918,0 1.707,0 2.626,0 l -2.626,-4.726 c 1.445,0.525 2.363,1.838 3.938,1.838 0.394,0 0.656,-0.787 0.788,-1.05 l 0,0 z"
   id="path157"
   style="fill:#fff200;stroke:#fff200;stroke-width:1.3398;stroke-linejoin:round;stroke-miterlimit:3.86369991" />
	<path
   stroke-miterlimit="3.8637"
   d="m 221.817,371.477 c 2.625,3.544 13.651,11.813 14.176,13.912 0.127,0.509 -1.576,1.313 -1.576,1.837 -3.412,2.625 -4.199,-1.05 -4.199,-1.05 3.15,-0.787 1.837,-1.05 1.837,-2.625 0,-2.493 -4.07,-2.625 -6.038,-2.362 l 1.051,-2.1 -1.051,-1.575 -3.413,-0.525 c 0.262,-1.574 0.525,-1.837 0,-2.887 -1.575,-0.395 -2.362,0 -3.675,0 l 2.888,-2.625 0,0 z"
   id="path159"
   style="fill:#fff200;stroke:#fff200;stroke-width:1.3398;stroke-linejoin:round;stroke-miterlimit:3.86369991" />
	<path
   stroke-miterlimit="3.8637"
   d="m 399.021,362.552 c -3.938,-3.938 -9.188,-0.131 -10.238,1.575 -2.101,3.412 -7.351,10.499 -7.351,10.499 -6.564,1.313 -6.564,7.612 -8.401,8.399 -2.915,1.25 -6.563,4.2 -6.563,8.663 l 4.726,4.725 c 1.838,0 5.12,-2.625 5.775,-3.413 4.332,-4.987 7.745,-6.692 11.814,-11.55 1.574,-1.837 2.756,-3.28 4.463,-4.725 2.756,-2.361 8.4,-4.33 8.4,-9.187 0,-1.705 -1.975,-4.337 -2.625,-4.986 l 0,0 z"
   id="path161"
   style="stroke:#000000;stroke-width:1.3398;stroke-linejoin:round;stroke-miterlimit:3.86369991" />
	<path
   stroke-miterlimit="3.8637"
   d="m 391.671,364.651 c -2.362,0.525 -2.626,1.444 -2.626,4.2 0,1.837 3.676,3.675 5.513,3.675 2.232,0 4.464,-3.281 4.464,-5.512 0,-1.313 -3.413,1.05 -3.413,1.05 -0.656,0 -0.788,-0.919 -1.051,-1.575 -0.524,0.394 -1.442,0.787 -2.1,1.05 -0.131,-0.263 -0.787,-0.656 -0.787,-1.05 0,-0.394 0,-1.444 0,-1.838 l 0,0 z"
   id="path163"
   style="fill:#fff200;stroke:#fff200;stroke-width:1.3398;stroke-linejoin:round;stroke-miterlimit:3.86369991" />
	<path
   stroke-miterlimit="3.8637"
   d="m 389.833,375.151 c 0,0 -2.494,-2.1 -3.413,-2.1 -3.675,0 -3.15,3.674 -4.464,4.987 -2.755,2.756 -6.037,0.131 -6.037,6.299 -3.019,0 -5.775,2.494 -5.775,5.513 0,1.97 1.838,2.362 3.413,2.625 l 2.101,-1.838 c -1.575,-0.263 -1.575,0.131 -1.575,-1.837 0,-2.1 5.775,-1.969 6.563,-3.149 -0.919,-0.92 -2.625,-1.313 -2.625,-2.626 0,-0.655 0,-1.181 0,-1.837 2.625,-0.131 4.594,0 6.563,0 0.657,0 1.05,-0.918 1.05,-1.575 0,-0.787 -1.312,-1.05 -1.312,-1.837 0,-1.444 1.443,-1.969 2.362,-2.362 l 3.15,1.05 c -10e-4,-0.394 -0.395,-1.313 -10e-4,-1.313 l 0,0 z"
   id="path165"
   style="fill:#fff200;stroke:#fff200;stroke-width:1.3398;stroke-linejoin:round;stroke-miterlimit:3.86369991" />
	<path
   stroke-miterlimit="3.8637"
   d="m 264.872,296.143 c 0,-1.159 0.94,-2.1 2.1,-2.1 1.16,0 2.101,0.94 2.101,2.1 0,1.16 -0.941,2.1 -2.101,2.1 -1.16,0 -2.1,-0.94 -2.1,-2.1 l 0,0 z"
   id="path167"
   style="fill:#fff200;stroke:#000000;stroke-width:1.3398;stroke-linejoin:round;stroke-miterlimit:3.86369991" />
	<path
   stroke-miterlimit="3.8637"
   d="m 278.392,299.555 c 0,-1.159 0.94,-2.1 2.1,-2.1 1.16,0 2.101,0.94 2.101,2.1 0,1.16 -0.94,2.101 -2.101,2.101 -1.16,-0.001 -2.1,-0.941 -2.1,-2.101 l 0,0 z"
   id="path169"
   style="fill:#fff200;stroke:#000000;stroke-width:1.3398;stroke-linejoin:round;stroke-miterlimit:3.86369991" />
	<path
   stroke-miterlimit="3.8637"
   d="m 252.007,291.024 c 0,-1.16 0.94,-2.1 2.101,-2.1 1.16,0 2.1,0.939 2.1,2.1 0,1.159 -0.94,2.1 -2.1,2.1 -1.161,0 -2.101,-0.94 -2.101,-2.1 l 0,0 z"
   id="path171"
   style="fill:#fff200;stroke:#000000;stroke-width:1.3398;stroke-linejoin:round;stroke-miterlimit:3.86369991" />
	<path
   stroke-miterlimit="3.8637"
   d="m 292.305,301.262 c 0,-1.16 0.94,-2.101 2.1,-2.101 1.16,0 2.101,0.94 2.101,2.101 0,1.159 -0.94,2.1 -2.101,2.1 -1.159,-0.001 -2.1,-0.941 -2.1,-2.1 l 0,0 z"
   id="path173"
   style="fill:#fff200;stroke:#000000;stroke-width:1.3398;stroke-linejoin:round;stroke-miterlimit:3.86369991" />
	<path
   stroke-miterlimit="3.8637"
   d="m 245.969,288.006 c 0,-1.16 0.94,-2.1 2.101,-2.1 1.161,0 2.101,0.939 2.101,2.1 0,1.159 -0.94,2.1 -2.101,2.1 -1.161,0 -2.101,-0.941 -2.101,-2.1 l 0,0 z"
   id="path175"
   style="fill:#fff200;stroke:#000000;stroke-width:1.3398;stroke-linejoin:round;stroke-miterlimit:3.86369991" />
	<path
   stroke-miterlimit="3.8637"
   d="m 258.439,293.912 c 0,-1.16 0.94,-2.1 2.1,-2.1 1.16,0 2.1,0.939 2.1,2.1 0,1.159 -0.94,2.099 -2.1,2.099 -1.16,0 -2.1,-0.94 -2.1,-2.099 l 0,0 z"
   id="path177"
   style="fill:#fff200;stroke:#000000;stroke-width:1.3398;stroke-linejoin:round;stroke-miterlimit:3.86369991" />
	<path
   stroke-miterlimit="3.8637"
   d="m 271.566,297.98 c 0,-1.16 0.94,-2.101 2.1,-2.101 1.16,0 2.101,0.94 2.101,2.101 0,1.159 -0.94,2.1 -2.101,2.1 -1.16,0 -2.1,-0.94 -2.1,-2.1 l 0,0 z"
   id="path179"
   style="fill:#fff200;stroke:#000000;stroke-width:1.3398;stroke-linejoin:round;stroke-miterlimit:3.86369991" />
	<path
   stroke-miterlimit="3.8637"
   d="m 285.348,300.475 c 0,-1.16 0.94,-2.101 2.1,-2.101 1.16,0 2.1,0.94 2.1,2.101 0,1.159 -0.94,2.1 -2.1,2.1 -1.159,-10e-4 -2.1,-0.941 -2.1,-2.1 l 0,0 z"
   id="path181"
   style="fill:#fff200;stroke:#000000;stroke-width:1.3398;stroke-linejoin:round;stroke-miterlimit:3.86369991" />
	<path
   stroke-miterlimit="3.8637"
   d="m 306.481,301.655 c 0,-1.16 0.94,-2.101 2.1,-2.101 1.16,0 2.101,0.94 2.101,2.101 0,1.159 -0.94,2.1 -2.101,2.1 -1.161,0 -2.1,-0.941 -2.1,-2.1 l 0,0 z"
   id="path183"
   style="fill:#fff200;stroke:#000000;stroke-width:1.3398;stroke-linejoin:round;stroke-miterlimit:3.86369991" />
	<path
   stroke-miterlimit="3.8637"
   d="m 340.741,296.143 c 0,-1.159 0.939,-2.1 2.1,-2.1 1.159,0 2.1,0.94 2.1,2.1 0,1.16 -0.94,2.1 -2.1,2.1 -1.16,-10e-4 -2.1,-0.94 -2.1,-2.1 l 0,0 z"
   id="path185"
   style="fill:#fff200;stroke:#000000;stroke-width:1.3398;stroke-linejoin:round;stroke-miterlimit:3.86369991" />
	<path
   stroke-miterlimit="3.8637"
   d="m 327.221,299.555 c 0,-1.159 0.94,-2.1 2.101,-2.1 1.159,0 2.1,0.94 2.1,2.1 0,1.16 -0.94,2.101 -2.1,2.101 -1.161,-0.001 -2.101,-0.941 -2.101,-2.101 l 0,0 z"
   id="path187"
   style="fill:#fff200;stroke:#000000;stroke-width:1.3398;stroke-linejoin:round;stroke-miterlimit:3.86369991" />
	<path
   stroke-miterlimit="3.8637"
   d="m 353.474,291.549 c 0,-1.159 0.939,-2.1 2.1,-2.1 1.161,0 2.101,0.94 2.101,2.1 0,1.16 -0.94,2.1 -2.101,2.1 -1.161,0 -2.1,-0.94 -2.1,-2.1 l 0,0 z"
   id="path189"
   style="fill:#fff200;stroke:#000000;stroke-width:1.3398;stroke-linejoin:round;stroke-miterlimit:3.86369991" />
	<path
   stroke-miterlimit="3.8637"
   d="m 313.307,301.262 c 0,-1.16 0.94,-2.101 2.101,-2.101 1.159,0 2.1,0.94 2.1,2.101 0,1.159 -0.94,2.1 -2.1,2.1 -1.161,-0.001 -2.101,-0.941 -2.101,-2.1 l 0,0 z"
   id="path191"
   style="fill:#fff200;stroke:#000000;stroke-width:1.3398;stroke-linejoin:round;stroke-miterlimit:3.86369991" />
	<path
   stroke-miterlimit="3.8637"
   d="m 359.512,288.53 c 0,-1.159 0.94,-2.1 2.101,-2.1 1.159,0 2.1,0.94 2.1,2.1 0,1.16 -0.94,2.1 -2.1,2.1 -1.161,0 -2.101,-0.94 -2.101,-2.1 l 0,0 z"
   id="path193"
   style="fill:#fff200;stroke:#000000;stroke-width:1.3398;stroke-linejoin:round;stroke-miterlimit:3.86369991" />
	<path
   stroke-miterlimit="3.8637"
   d="m 347.173,293.912 c 0,-1.16 0.94,-2.1 2.101,-2.1 1.159,0 2.1,0.939 2.1,2.1 0,1.159 -0.94,2.099 -2.1,2.099 -1.161,0 -2.101,-0.94 -2.101,-2.099 l 0,0 z"
   id="path195"
   style="fill:#fff200;stroke:#000000;stroke-width:1.3398;stroke-linejoin:round;stroke-miterlimit:3.86369991" />
	<path
   stroke-miterlimit="3.8637"
   d="m 334.046,297.98 c 0,-1.16 0.94,-2.101 2.101,-2.101 1.161,0 2.1,0.94 2.1,2.101 0,1.159 -0.939,2.1 -2.1,2.1 -1.161,0 -2.101,-0.94 -2.101,-2.1 l 0,0 z"
   id="path197"
   style="fill:#fff200;stroke:#000000;stroke-width:1.3398;stroke-linejoin:round;stroke-miterlimit:3.86369991" />
	<path
   stroke-miterlimit="3.8637"
   d="m 320.264,300.475 c 0,-1.16 0.94,-2.101 2.101,-2.101 1.159,0 2.1,0.94 2.1,2.101 0,1.159 -0.94,2.1 -2.1,2.1 -1.161,-10e-4 -2.101,-0.941 -2.101,-2.1 l 0,0 z"
   id="path199"
   style="fill:#fff200;stroke:#000000;stroke-width:1.3398;stroke-linejoin:round;stroke-miterlimit:3.86369991" />
	<path
   stroke-miterlimit="3.8637"
   d="m 365.55,284.462 c 0,-1.16 0.939,-2.1 2.1,-2.1 1.161,0 2.101,0.939 2.101,2.1 0,1.159 -0.94,2.1 -2.101,2.1 -1.161,0 -2.1,-0.941 -2.1,-2.1 l 0,0 z"
   id="path201"
   style="fill:#fff200;stroke:#000000;stroke-width:1.3398;stroke-linejoin:round;stroke-miterlimit:3.86369991" />
	<path
   stroke-miterlimit="3.8637"
   d="m 216.96,311.236 c 0,-1.16 0.94,-2.101 2.1,-2.101 1.16,0 2.1,0.94 2.1,2.101 0,1.159 -0.94,2.1 -2.1,2.1 -1.159,0 -2.1,-0.94 -2.1,-2.1 l 0,0 z"
   id="path203"
   style="fill:#fff200;stroke:#000000;stroke-width:1.3398;stroke-linejoin:round;stroke-miterlimit:3.86369991" />
	<path
   stroke-miterlimit="3.8637"
   d="m 213.416,317.272 c 0,-1.159 0.94,-2.1 2.1,-2.1 1.16,0 2.1,0.94 2.1,2.1 0,1.16 -0.94,2.101 -2.1,2.101 -1.16,0 -2.1,-0.94 -2.1,-2.101 l 0,0 z"
   id="path205"
   style="fill:#fff200;stroke:#000000;stroke-width:1.3398;stroke-linejoin:round;stroke-miterlimit:3.86369991" />
	<path
   stroke-miterlimit="3.8637"
   d="m 210.135,323.31 c 0,-1.159 0.94,-2.1 2.1,-2.1 1.16,0 2.1,0.94 2.1,2.1 0,1.16 -0.94,2.1 -2.1,2.1 -1.16,-0.001 -2.1,-0.94 -2.1,-2.1 l 0,0 z"
   id="path207"
   style="fill:#fff200;stroke:#000000;stroke-width:1.3398;stroke-linejoin:round;stroke-miterlimit:3.86369991" />
	<path
   stroke-miterlimit="3.8637"
   d="m 207.116,329.609 c 0,-1.159 0.94,-2.1 2.1,-2.1 1.16,0 2.1,0.94 2.1,2.1 0,1.16 -0.94,2.101 -2.1,2.101 -1.16,0 -2.1,-0.94 -2.1,-2.101 l 0,0 z"
   id="path209"
   style="fill:#fff200;stroke:#000000;stroke-width:1.3398;stroke-linejoin:round;stroke-miterlimit:3.86369991" />
	<path
   stroke-miterlimit="3.8637"
   d="m 204.49,336.041 c 0,-1.16 0.94,-2.1 2.101,-2.1 1.16,0 2.1,0.939 2.1,2.1 0,1.159 -0.94,2.1 -2.1,2.1 -1.161,0 -2.101,-0.941 -2.101,-2.1 l 0,0 z"
   id="path211"
   style="fill:#fff200;stroke:#000000;stroke-width:1.3398;stroke-linejoin:round;stroke-miterlimit:3.86369991" />
	<path
   stroke-miterlimit="3.8637"
   d="m 202.128,342.472 c 0,-1.16 0.94,-2.101 2.1,-2.101 1.16,0 2.1,0.94 2.1,2.101 0,1.159 -0.94,2.1 -2.1,2.1 -1.16,-10e-4 -2.1,-0.941 -2.1,-2.1 l 0,0 z"
   id="path213"
   style="fill:#fff200;stroke:#000000;stroke-width:1.3398;stroke-linejoin:round;stroke-miterlimit:3.86369991" />
	<path
   stroke-miterlimit="3.8637"
   d="m 200.027,349.165 c 0,-1.159 0.94,-2.1 2.1,-2.1 1.16,0 2.1,0.94 2.1,2.1 0,1.16 -0.94,2.101 -2.1,2.101 -1.159,0 -2.1,-0.941 -2.1,-2.101 l 0,0 z"
   id="path215"
   style="fill:#fff200;stroke:#000000;stroke-width:1.3398;stroke-linejoin:round;stroke-miterlimit:3.86369991" />
	<path
   stroke-miterlimit="3.8637"
   d="m 198.189,355.99 c 0,-1.16 0.94,-2.101 2.101,-2.101 1.161,0 2.1,0.94 2.1,2.101 0,1.161 -0.94,2.1 -2.1,2.1 -1.16,0 -2.101,-0.94 -2.101,-2.1 l 0,0 z"
   id="path217"
   style="fill:#fff200;stroke:#000000;stroke-width:1.3398;stroke-linejoin:round;stroke-miterlimit:3.86369991" />
	<path
   stroke-miterlimit="3.8637"
   d="m 196.614,362.946 c 0,-1.16 0.94,-2.1 2.101,-2.1 1.16,0 2.1,0.939 2.1,2.1 0,1.159 -0.94,2.099 -2.1,2.099 -1.16,0 -2.101,-0.94 -2.101,-2.099 l 0,0 z"
   id="path219"
   style="fill:#fff200;stroke:#000000;stroke-width:1.3398;stroke-linejoin:round;stroke-miterlimit:3.86369991" />
	<path
   stroke-miterlimit="3.8637"
   d="m 195.302,369.901 c 0,-1.16 0.94,-2.101 2.1,-2.101 1.16,0 2.101,0.94 2.101,2.101 0,1.161 -0.94,2.1 -2.101,2.1 -1.16,0 -2.1,-0.939 -2.1,-2.1 l 0,0 z"
   id="path221"
   style="fill:#fff200;stroke:#000000;stroke-width:1.3398;stroke-linejoin:round;stroke-miterlimit:3.86369991" />
	<path
   stroke-miterlimit="3.8637"
   d="m 194.383,376.857 c 0,-1.16 0.94,-2.1 2.1,-2.1 1.16,0 2.1,0.939 2.1,2.1 0,1.159 -0.94,2.1 -2.1,2.1 -1.16,0 -2.1,-0.94 -2.1,-2.1 l 0,0 z"
   id="path223"
   style="fill:#fff200;stroke:#000000;stroke-width:1.3398;stroke-linejoin:round;stroke-miterlimit:3.86369991" />
	<path
   stroke-miterlimit="3.8637"
   d="m 193.727,383.683 c 0,-1.16 0.94,-2.101 2.1,-2.101 1.16,0 2.1,0.94 2.1,2.101 0,1.159 -0.94,2.1 -2.1,2.1 -1.16,-0.001 -2.1,-0.941 -2.1,-2.1 l 0,0 z"
   id="path225"
   style="fill:#fff200;stroke:#000000;stroke-width:1.3398;stroke-linejoin:round;stroke-miterlimit:3.86369991" />
	<path
   stroke-miterlimit="3.8637"
   d="m 193.333,390.638 c 0,-1.159 0.94,-2.1 2.1,-2.1 1.16,0 2.1,0.94 2.1,2.1 0,1.16 -0.94,2.101 -2.1,2.101 -1.16,-10e-4 -2.1,-0.941 -2.1,-2.101 l 0,0 z"
   id="path227"
   style="fill:#fff200;stroke:#000000;stroke-width:1.3398;stroke-linejoin:round;stroke-miterlimit:3.86369991" />
	<path
   stroke-miterlimit="3.8637"
   d="m 193.201,397.269 c 0,-1.16 0.94,-2.101 2.101,-2.101 1.161,0 2.101,0.94 2.101,2.101 0,1.159 -0.94,2.1 -2.101,2.1 -1.161,0 -2.101,-0.941 -2.101,-2.1 l 0,0 z"
   id="path229"
   style="fill:#fff200;stroke:#000000;stroke-width:1.3398;stroke-linejoin:round;stroke-miterlimit:3.86369991" />
	<path
   stroke-miterlimit="3.8637"
   d="m 193.333,404.025 c 0,-1.16 0.94,-2.101 2.1,-2.101 1.16,0 2.1,0.94 2.1,2.101 0,1.159 -0.94,2.1 -2.1,2.1 -1.16,0 -2.1,-0.94 -2.1,-2.1 l 0,0 z"
   id="path231"
   style="fill:#fff200;stroke:#000000;stroke-width:1.3398;stroke-linejoin:round;stroke-miterlimit:3.86369991" />
	<path
   stroke-miterlimit="3.8637"
   d="m 193.727,410.719 c 0,-1.16 0.94,-2.101 2.1,-2.101 1.16,0 2.1,0.94 2.1,2.101 0,1.159 -0.94,2.1 -2.1,2.1 -1.16,-0.001 -2.1,-0.941 -2.1,-2.1 l 0,0 z"
   id="path233"
   style="fill:#fff200;stroke:#000000;stroke-width:1.3398;stroke-linejoin:round;stroke-miterlimit:3.86369991" />
	<path
   stroke-miterlimit="3.8637"
   d="m 194.383,417.543 c 0,-1.159 0.94,-2.1 2.1,-2.1 1.16,0 2.1,0.94 2.1,2.1 0,1.16 -0.94,2.101 -2.1,2.101 -1.16,0 -2.1,-0.941 -2.1,-2.101 l 0,0 z"
   id="path235"
   style="fill:#fff200;stroke:#000000;stroke-width:1.3398;stroke-linejoin:round;stroke-miterlimit:3.86369991" />
	<path
   stroke-miterlimit="3.8637"
   d="m 195.302,424.237 c 0,-1.16 0.94,-2.101 2.1,-2.101 1.16,0 2.101,0.94 2.101,2.101 0,1.159 -0.94,2.1 -2.101,2.1 -1.16,0 -2.1,-0.941 -2.1,-2.1 l 0,0 z"
   id="path237"
   style="fill:#fff200;stroke:#000000;stroke-width:1.3398;stroke-linejoin:round;stroke-miterlimit:3.86369991" />
	<path
   stroke-miterlimit="3.8637"
   d="m 196.483,430.93 c 0,-1.159 0.94,-2.1 2.1,-2.1 1.16,0 2.1,0.94 2.1,2.1 0,1.16 -0.94,2.101 -2.1,2.101 -1.16,-0.001 -2.1,-0.941 -2.1,-2.101 l 0,0 z"
   id="path239"
   style="fill:#fff200;stroke:#000000;stroke-width:1.3398;stroke-linejoin:round;stroke-miterlimit:3.86369991" />
	<path
   stroke-miterlimit="3.8637"
   d="m 197.927,437.623 c 0,-1.159 0.94,-2.1 2.101,-2.1 1.161,0 2.1,0.94 2.1,2.1 0,1.16 -0.94,2.101 -2.1,2.101 -1.16,0 -2.101,-0.941 -2.101,-2.101 l 0,0 z"
   id="path241"
   style="fill:#fff200;stroke:#000000;stroke-width:1.3398;stroke-linejoin:round;stroke-miterlimit:3.86369991" />
	<path
   stroke-miterlimit="3.8637"
   d="m 199.765,444.317 c 0,-1.16 0.94,-2.101 2.1,-2.101 1.16,0 2.1,0.94 2.1,2.101 0,1.159 -0.94,2.1 -2.1,2.1 -1.16,0 -2.1,-0.94 -2.1,-2.1 l 0,0 z"
   id="path243"
   style="fill:#fff200;stroke:#000000;stroke-width:1.3398;stroke-linejoin:round;stroke-miterlimit:3.86369991" />
	<path
   stroke-miterlimit="3.8637"
   d="m 201.734,450.748 c 0,-1.159 0.94,-2.1 2.1,-2.1 1.16,0 2.101,0.94 2.101,2.1 0,1.16 -0.94,2.1 -2.101,2.1 -1.16,0 -2.1,-0.94 -2.1,-2.1 l 0,0 z"
   id="path245"
   style="fill:#fff200;stroke:#000000;stroke-width:1.3398;stroke-linejoin:round;stroke-miterlimit:3.86369991" />
	<path
   stroke-miterlimit="3.8637"
   d="m 203.965,457.31 c 0,-1.159 0.94,-2.1 2.101,-2.1 1.161,0 2.101,0.94 2.101,2.1 0,1.16 -0.94,2.101 -2.101,2.101 -1.161,0 -2.101,-0.941 -2.101,-2.101 l 0,0 z"
   id="path247"
   style="fill:#fff200;stroke:#000000;stroke-width:1.3398;stroke-linejoin:round;stroke-miterlimit:3.86369991" />
	<path
   stroke-miterlimit="3.8637"
   d="m 206.591,463.741 c 0,-1.16 0.94,-2.1 2.1,-2.1 1.16,0 2.1,0.939 2.1,2.1 0,1.159 -0.94,2.1 -2.1,2.1 -1.16,0 -2.1,-0.941 -2.1,-2.1 l 0,0 z"
   id="path249"
   style="fill:#fff200;stroke:#000000;stroke-width:1.3398;stroke-linejoin:round;stroke-miterlimit:3.86369991" />
	<path
   stroke-miterlimit="3.8637"
   d="m 209.478,470.041 c 0,-1.16 0.94,-2.101 2.1,-2.101 1.16,0 2.1,0.94 2.1,2.101 0,1.159 -0.94,2.1 -2.1,2.1 -1.16,0 -2.1,-0.941 -2.1,-2.1 l 0,0 z"
   id="path251"
   style="fill:#fff200;stroke:#000000;stroke-width:1.3398;stroke-linejoin:round;stroke-miterlimit:3.86369991" />
	<path
   stroke-miterlimit="3.8637"
   d="m 212.629,476.078 c 0,-1.16 0.94,-2.101 2.1,-2.101 1.16,0 2.1,0.94 2.1,2.101 0,1.159 -0.94,2.1 -2.1,2.1 -1.16,0 -2.1,-0.941 -2.1,-2.1 l 0,0 z"
   id="path253"
   style="fill:#fff200;stroke:#000000;stroke-width:1.3398;stroke-linejoin:round;stroke-miterlimit:3.86369991" />
	<path
   stroke-miterlimit="3.8637"
   d="m 216.042,481.984 c 0,-1.16 0.94,-2.101 2.1,-2.101 1.16,0 2.101,0.94 2.101,2.101 0,1.161 -0.94,2.101 -2.101,2.101 -1.16,0 -2.1,-0.94 -2.1,-2.101 l 0,0 z"
   id="path255"
   style="fill:#fff200;stroke:#000000;stroke-width:1.3398;stroke-linejoin:round;stroke-miterlimit:3.86369991" />
	<path
   stroke-miterlimit="3.8637"
   d="m 219.717,487.627 c 0,-1.16 0.94,-2.101 2.1,-2.101 1.16,0 2.101,0.94 2.101,2.101 0,1.161 -0.94,2.101 -2.101,2.101 -1.16,0 -2.1,-0.941 -2.1,-2.101 l 0,0 z"
   id="path257"
   style="fill:#fff200;stroke:#000000;stroke-width:1.3398;stroke-linejoin:round;stroke-miterlimit:3.86369991" />
	<path
   stroke-miterlimit="3.8637"
   d="m 223.786,493.14 c 0,-1.16 0.94,-2.101 2.1,-2.101 1.16,0 2.1,0.94 2.1,2.101 0,1.159 -0.94,2.1 -2.1,2.1 -1.16,-0.001 -2.1,-0.941 -2.1,-2.1 l 0,0 z"
   id="path259"
   style="fill:#fff200;stroke:#000000;stroke-width:1.3398;stroke-linejoin:round;stroke-miterlimit:3.86369991" />
	<path
   stroke-miterlimit="3.8637"
   d="m 227.986,498.521 c 0,-1.159 0.94,-2.1 2.101,-2.1 1.161,0 2.1,0.94 2.1,2.1 0,1.16 -0.94,2.1 -2.1,2.1 -1.16,0 -2.101,-0.941 -2.101,-2.1 l 0,0 z"
   id="path261"
   style="fill:#fff200;stroke:#000000;stroke-width:1.3398;stroke-linejoin:round;stroke-miterlimit:3.86369991" />
	<path
   stroke-miterlimit="3.8637"
   d="m 232.711,503.771 c 0,-1.16 0.94,-2.1 2.101,-2.1 1.16,0 2.1,0.939 2.1,2.1 0,1.159 -0.94,2.1 -2.1,2.1 -1.16,-10e-4 -2.101,-0.941 -2.101,-2.1 l 0,0 z"
   id="path263"
   style="fill:#fff200;stroke:#000000;stroke-width:1.3398;stroke-linejoin:round;stroke-miterlimit:3.86369991" />
	<path
   stroke-miterlimit="3.8637"
   d="m 237.568,508.495 c 0,-1.159 0.94,-2.1 2.101,-2.1 1.16,0 2.1,0.94 2.1,2.1 0,1.16 -0.94,2.1 -2.1,2.1 -1.16,0 -2.101,-0.94 -2.101,-2.1 l 0,0 z"
   id="path265"
   style="fill:#fff200;stroke:#000000;stroke-width:1.3398;stroke-linejoin:round;stroke-miterlimit:3.86369991" />
	<path
   stroke-miterlimit="3.8637"
   d="m 242.688,512.958 c 0,-1.16 0.94,-2.101 2.101,-2.101 1.16,0 2.1,0.94 2.1,2.101 0,1.159 -0.94,2.1 -2.1,2.1 -1.161,0 -2.101,-0.941 -2.101,-2.1 l 0,0 z"
   id="path267"
   style="fill:#fff200;stroke:#000000;stroke-width:1.3398;stroke-linejoin:round;stroke-miterlimit:3.86369991" />
	<path
   stroke-miterlimit="3.8637"
   d="m 247.807,517.026 c 0,-1.16 0.94,-2.101 2.1,-2.101 1.16,0 2.1,0.94 2.1,2.101 0,1.159 -0.94,2.1 -2.1,2.1 -1.16,0 -2.1,-0.94 -2.1,-2.1 l 0,0 z"
   id="path269"
   style="fill:#fff200;stroke:#000000;stroke-width:1.3398;stroke-linejoin:round;stroke-miterlimit:3.86369991" />
	<path
   stroke-miterlimit="3.8637"
   d="m 253.452,520.832 c 0,-1.16 0.94,-2.101 2.1,-2.101 1.16,0 2.101,0.94 2.101,2.101 0,1.161 -0.94,2.1 -2.101,2.1 -1.16,0 -2.1,-0.94 -2.1,-2.1 l 0,0 z"
   id="path271"
   style="fill:#fff200;stroke:#000000;stroke-width:1.3398;stroke-linejoin:round;stroke-miterlimit:3.86369991" />
	<path
   stroke-miterlimit="3.8637"
   d="m 302.938,535.531 c 0,-1.159 0.94,-2.1 2.1,-2.1 1.16,0 2.099,0.94 2.099,2.1 0,1.16 -0.939,2.1 -2.099,2.1 -1.16,0 -2.1,-0.94 -2.1,-2.1 l 0,0 z"
   id="path273"
   style="fill:#fff200;stroke:#000000;stroke-width:1.3398;stroke-linejoin:round;stroke-miterlimit:3.86369991" />
	<path
   stroke-miterlimit="3.8637"
   d="m 271.303,529.757 c 0,-1.16 0.94,-2.1 2.101,-2.1 1.16,0 2.1,0.939 2.1,2.1 0,1.159 -0.94,2.1 -2.1,2.1 -1.161,-10e-4 -2.101,-0.941 -2.101,-2.1 l 0,0 z"
   id="path275"
   style="fill:#fff200;stroke:#000000;stroke-width:1.3398;stroke-linejoin:round;stroke-miterlimit:3.86369991" />
	<path
   stroke-miterlimit="3.8637"
   d="m 277.341,531.856 c 0,-1.16 0.94,-2.1 2.1,-2.1 1.16,0 2.101,0.939 2.101,2.1 0,1.159 -0.94,2.1 -2.101,2.1 -1.16,0 -2.1,-0.94 -2.1,-2.1 l 0,0 z"
   id="path277"
   style="fill:#fff200;stroke:#000000;stroke-width:1.3398;stroke-linejoin:round;stroke-miterlimit:3.86369991" />
	<path
   stroke-miterlimit="3.8637"
   d="m 265.265,527.263 c 0,-1.16 0.94,-2.1 2.1,-2.1 1.16,0 2.101,0.939 2.101,2.1 0,1.161 -0.94,2.1 -2.101,2.1 -1.159,-0.001 -2.1,-0.94 -2.1,-2.1 l 0,0 z"
   id="path279"
   style="fill:#fff200;stroke:#000000;stroke-width:1.3398;stroke-linejoin:round;stroke-miterlimit:3.86369991" />
	<path
   stroke-miterlimit="3.8637"
   d="m 259.358,524.244 c 0,-1.159 0.94,-2.1 2.101,-2.1 1.16,0 2.1,0.94 2.1,2.1 0,1.16 -0.94,2.1 -2.1,2.1 -1.161,0 -2.101,-0.94 -2.101,-2.1 l 0,0 z"
   id="path281"
   style="fill:#fff200;stroke:#000000;stroke-width:1.3398;stroke-linejoin:round;stroke-miterlimit:3.86369991" />
	<path
   stroke-miterlimit="3.8637"
   d="m 283.642,533.431 c 0,-1.159 0.94,-2.1 2.1,-2.1 1.16,0 2.1,0.94 2.1,2.1 0,1.16 -0.94,2.101 -2.1,2.101 -1.16,-0.001 -2.1,-0.941 -2.1,-2.101 l 0,0 z"
   id="path283"
   style="fill:#fff200;stroke:#000000;stroke-width:1.3398;stroke-linejoin:round;stroke-miterlimit:3.86369991" />
	<path
   stroke-miterlimit="3.8637"
   d="m 296.375,535.269 c 0,-1.159 0.94,-2.1 2.1,-2.1 1.16,0 2.1,0.94 2.1,2.1 0,1.16 -0.94,2.1 -2.1,2.1 -1.161,-10e-4 -2.1,-0.94 -2.1,-2.1 l 0,0 z"
   id="path285"
   style="fill:#fff200;stroke:#000000;stroke-width:1.3398;stroke-linejoin:round;stroke-miterlimit:3.86369991" />
	<path
   stroke-miterlimit="3.8637"
   d="m 290.074,534.612 c 0,-1.159 0.94,-2.1 2.1,-2.1 1.16,0 2.1,0.94 2.1,2.1 0,1.16 -0.94,2.101 -2.1,2.101 -1.16,0 -2.1,-0.941 -2.1,-2.101 l 0,0 z"
   id="path287"
   style="fill:#fff200;stroke:#000000;stroke-width:1.3398;stroke-linejoin:round;stroke-miterlimit:3.86369991" />
	<path
   stroke-miterlimit="3.8637"
   d="m 370.931,288.662 c 0,-1.16 0.941,-2.101 2.101,-2.101 1.16,0 2.101,0.94 2.101,2.101 0,1.159 -0.94,2.1 -2.101,2.1 -1.16,0 -2.101,-0.941 -2.101,-2.1 l 0,0 z"
   id="path289"
   style="fill:#fff200;stroke:#000000;stroke-width:1.3398;stroke-linejoin:round;stroke-miterlimit:3.86369991" />
	<path
   stroke-miterlimit="3.8637"
   d="m 375.919,293.912 c 0,-1.16 0.94,-2.1 2.101,-2.1 1.159,0 2.1,0.939 2.1,2.1 0,1.159 -0.94,2.099 -2.1,2.099 -1.161,0 -2.101,-0.94 -2.101,-2.099 l 0,0 z"
   id="path291"
   style="fill:#fff200;stroke:#000000;stroke-width:1.3398;stroke-linejoin:round;stroke-miterlimit:3.86369991" />
	<path
   stroke-miterlimit="3.8637"
   d="m 380.514,299.424 c 0,-1.159 0.94,-2.1 2.1,-2.1 1.16,0 2.101,0.94 2.101,2.1 0,1.16 -0.94,2.1 -2.101,2.1 -1.16,-10e-4 -2.1,-0.941 -2.1,-2.1 l 0,0 z"
   id="path293"
   style="fill:#fff200;stroke:#000000;stroke-width:1.3398;stroke-linejoin:round;stroke-miterlimit:3.86369991" />
	<path
   stroke-miterlimit="3.8637"
   d="m 384.714,305.198 c 0,-1.159 0.94,-2.1 2.101,-2.1 1.161,0 2.1,0.94 2.1,2.1 0,1.16 -0.939,2.101 -2.1,2.101 -1.161,0 -2.101,-0.941 -2.101,-2.101 l 0,0 z"
   id="path295"
   style="fill:#fff200;stroke:#000000;stroke-width:1.3398;stroke-linejoin:round;stroke-miterlimit:3.86369991" />
	<path
   stroke-miterlimit="3.8637"
   d="m 388.651,311.104 c 0,-1.159 0.94,-2.1 2.101,-2.1 1.159,0 2.1,0.94 2.1,2.1 0,1.16 -0.94,2.1 -2.1,2.1 -1.16,0 -2.101,-0.939 -2.101,-2.1 l 0,0 z"
   id="path297"
   style="fill:#fff200;stroke:#000000;stroke-width:1.3398;stroke-linejoin:round;stroke-miterlimit:3.86369991" />
	<path
   stroke-miterlimit="3.8637"
   d="m 392.196,317.142 c 0,-1.159 0.939,-2.1 2.1,-2.1 1.161,0 2.101,0.94 2.101,2.1 0,1.16 -0.94,2.1 -2.101,2.1 -1.161,0 -2.1,-0.94 -2.1,-2.1 l 0,0 z"
   id="path299"
   style="fill:#fff200;stroke:#000000;stroke-width:1.3398;stroke-linejoin:round;stroke-miterlimit:3.86369991" />
	<path
   stroke-miterlimit="3.8637"
   d="m 395.478,323.179 c 0,-1.16 0.939,-2.1 2.1,-2.1 1.161,0 2.1,0.939 2.1,2.1 0,1.161 -0.939,2.1 -2.1,2.1 -1.161,0 -2.1,-0.94 -2.1,-2.1 l 0,0 z"
   id="path301"
   style="fill:#fff200;stroke:#000000;stroke-width:1.3398;stroke-linejoin:round;stroke-miterlimit:3.86369991" />
	<path
   stroke-miterlimit="3.8637"
   d="m 398.497,329.479 c 0,-1.16 0.939,-2.1 2.1,-2.1 1.159,0 2.1,0.939 2.1,2.1 0,1.161 -0.94,2.1 -2.1,2.1 -1.16,-0.001 -2.1,-0.94 -2.1,-2.1 l 0,0 z"
   id="path303"
   style="fill:#fff200;stroke:#000000;stroke-width:1.3398;stroke-linejoin:round;stroke-miterlimit:3.86369991" />
	<path
   stroke-miterlimit="3.8637"
   d="m 401.121,335.91 c 0,-1.16 0.94,-2.101 2.101,-2.101 1.161,0 2.101,0.94 2.101,2.101 0,1.159 -0.94,2.1 -2.101,2.1 -1.161,0 -2.101,-0.941 -2.101,-2.1 l 0,0 z"
   id="path305"
   style="fill:#fff200;stroke:#000000;stroke-width:1.3398;stroke-linejoin:round;stroke-miterlimit:3.86369991" />
	<path
   stroke-miterlimit="3.8637"
   d="m 403.484,342.34 c 0,-1.159 0.94,-2.1 2.101,-2.1 1.159,0 2.1,0.94 2.1,2.1 0,1.16 -0.94,2.101 -2.1,2.101 -1.16,-10e-4 -2.101,-0.941 -2.101,-2.101 l 0,0 z"
   id="path307"
   style="fill:#fff200;stroke:#000000;stroke-width:1.3398;stroke-linejoin:round;stroke-miterlimit:3.86369991" />
	<path
   stroke-miterlimit="3.8637"
   d="m 405.585,349.034 c 0,-1.16 0.939,-2.101 2.1,-2.101 1.161,0 2.101,0.94 2.101,2.101 0,1.159 -0.94,2.1 -2.101,2.1 -1.161,0 -2.1,-0.941 -2.1,-2.1 l 0,0 z"
   id="path309"
   style="fill:#fff200;stroke:#000000;stroke-width:1.3398;stroke-linejoin:round;stroke-miterlimit:3.86369991" />
	<path
   stroke-miterlimit="3.8637"
   d="m 407.422,355.858 c 0,-1.159 0.94,-2.1 2.101,-2.1 1.161,0 2.1,0.94 2.1,2.1 0,1.16 -0.939,2.1 -2.1,2.1 -1.161,0 -2.101,-0.939 -2.101,-2.1 l 0,0 z"
   id="path311"
   style="fill:#fff200;stroke:#000000;stroke-width:1.3398;stroke-linejoin:round;stroke-miterlimit:3.86369991" />
	<path
   stroke-miterlimit="3.8637"
   d="m 408.997,362.814 c 0,-1.16 0.94,-2.1 2.101,-2.1 1.161,0 2.101,0.939 2.101,2.1 0,1.161 -0.94,2.1 -2.101,2.1 -1.161,0 -2.101,-0.939 -2.101,-2.1 l 0,0 z"
   id="path313"
   style="fill:#fff200;stroke:#000000;stroke-width:1.3398;stroke-linejoin:round;stroke-miterlimit:3.86369991" />
	<path
   stroke-miterlimit="3.8637"
   d="m 410.31,369.771 c 0,-1.16 0.94,-2.101 2.101,-2.101 1.161,0 2.101,0.94 2.101,2.101 0,1.159 -0.94,2.1 -2.101,2.1 -1.161,0 -2.101,-0.941 -2.101,-2.1 l 0,0 z"
   id="path315"
   style="fill:#fff200;stroke:#000000;stroke-width:1.3398;stroke-linejoin:round;stroke-miterlimit:3.86369991" />
	<path
   stroke-miterlimit="3.8637"
   d="m 411.229,376.727 c 0,-1.16 0.939,-2.101 2.1,-2.101 1.161,0 2.101,0.94 2.101,2.101 0,1.159 -0.94,2.1 -2.101,2.1 -1.161,0 -2.1,-0.941 -2.1,-2.1 l 0,0 z"
   id="path317"
   style="fill:#fff200;stroke:#000000;stroke-width:1.3398;stroke-linejoin:round;stroke-miterlimit:3.86369991" />
	<path
   stroke-miterlimit="3.8637"
   d="m 411.885,383.551 c 0,-1.16 0.94,-2.101 2.101,-2.101 1.159,0 2.1,0.94 2.1,2.101 0,1.161 -0.94,2.101 -2.1,2.101 -1.161,-10e-4 -2.101,-0.941 -2.101,-2.101 l 0,0 z"
   id="path319"
   style="fill:#fff200;stroke:#000000;stroke-width:1.3398;stroke-linejoin:round;stroke-miterlimit:3.86369991" />
	<path
   stroke-miterlimit="3.8637"
   d="m 412.279,390.507 c 0,-1.159 0.94,-2.1 2.1,-2.1 1.16,0 2.101,0.94 2.101,2.1 0,1.16 -0.94,2.1 -2.101,2.1 -1.159,-0.001 -2.1,-0.94 -2.1,-2.1 l 0,0 z"
   id="path321"
   style="fill:#fff200;stroke:#000000;stroke-width:1.3398;stroke-linejoin:round;stroke-miterlimit:3.86369991" />
	<path
   stroke-miterlimit="3.8637"
   d="m 412.41,397.137 c 0,-1.16 0.94,-2.1 2.101,-2.1 1.161,0 2.1,0.939 2.1,2.1 0,1.161 -0.939,2.101 -2.1,2.101 -1.161,0 -2.101,-0.941 -2.101,-2.101 l 0,0 z"
   id="path323"
   style="fill:#fff200;stroke:#000000;stroke-width:1.3398;stroke-linejoin:round;stroke-miterlimit:3.86369991" />
	<path
   stroke-miterlimit="3.8637"
   d="m 412.279,403.894 c 0,-1.159 0.94,-2.1 2.1,-2.1 1.16,0 2.101,0.94 2.101,2.1 0,1.16 -0.94,2.101 -2.101,2.101 -1.159,-10e-4 -2.1,-0.941 -2.1,-2.101 l 0,0 z"
   id="path325"
   style="fill:#fff200;stroke:#000000;stroke-width:1.3398;stroke-linejoin:round;stroke-miterlimit:3.86369991" />
	<path
   stroke-miterlimit="3.8637"
   d="m 411.885,410.588 c 0,-1.16 0.94,-2.101 2.101,-2.101 1.159,0 2.1,0.94 2.1,2.101 0,1.159 -0.94,2.1 -2.1,2.1 -1.161,0 -2.101,-0.941 -2.101,-2.1 l 0,0 z"
   id="path327"
   style="fill:#fff200;stroke:#000000;stroke-width:1.3398;stroke-linejoin:round;stroke-miterlimit:3.86369991" />
	<path
   stroke-miterlimit="3.8637"
   d="m 411.229,417.412 c 0,-1.159 0.939,-2.1 2.1,-2.1 1.161,0 2.101,0.94 2.101,2.1 0,1.16 -0.94,2.1 -2.101,2.1 -1.161,0 -2.1,-0.94 -2.1,-2.1 l 0,0 z"
   id="path329"
   style="fill:#fff200;stroke:#000000;stroke-width:1.3398;stroke-linejoin:round;stroke-miterlimit:3.86369991" />
	<path
   stroke-miterlimit="3.8637"
   d="m 410.31,424.105 c 0,-1.16 0.94,-2.101 2.101,-2.101 1.161,0 2.101,0.94 2.101,2.101 0,1.161 -0.94,2.101 -2.101,2.101 -1.161,0 -2.101,-0.94 -2.101,-2.101 l 0,0 z"
   id="path331"
   style="fill:#fff200;stroke:#000000;stroke-width:1.3398;stroke-linejoin:round;stroke-miterlimit:3.86369991" />
	<path
   stroke-miterlimit="3.8637"
   d="m 409.129,430.799 c 0,-1.16 0.94,-2.1 2.101,-2.1 1.161,0 2.1,0.939 2.1,2.1 0,1.159 -0.939,2.1 -2.1,2.1 -1.161,0 -2.101,-0.941 -2.101,-2.1 l 0,0 z"
   id="path333"
   style="fill:#fff200;stroke:#000000;stroke-width:1.3398;stroke-linejoin:round;stroke-miterlimit:3.86369991" />
	<path
   stroke-miterlimit="3.8637"
   d="m 407.685,437.492 c 0,-1.16 0.94,-2.1 2.101,-2.1 1.159,0 2.1,0.939 2.1,2.1 0,1.161 -0.94,2.101 -2.1,2.101 -1.161,0 -2.101,-0.941 -2.101,-2.101 l 0,0 z"
   id="path335"
   style="fill:#fff200;stroke:#000000;stroke-width:1.3398;stroke-linejoin:round;stroke-miterlimit:3.86369991" />
	<path
   stroke-miterlimit="3.8637"
   d="m 405.847,444.186 c 0,-1.159 0.94,-2.1 2.101,-2.1 1.159,0 2.101,0.94 2.101,2.1 0,1.16 -0.941,2.1 -2.101,2.1 -1.161,-10e-4 -2.101,-0.941 -2.101,-2.1 l 0,0 z"
   id="path337"
   style="fill:#fff200;stroke:#000000;stroke-width:1.3398;stroke-linejoin:round;stroke-miterlimit:3.86369991" />
	<path
   stroke-miterlimit="3.8637"
   d="m 403.878,450.616 c 0,-1.159 0.94,-2.1 2.101,-2.1 1.161,0 2.101,0.94 2.101,2.1 0,1.16 -0.94,2.101 -2.101,2.101 -1.161,0 -2.101,-0.941 -2.101,-2.101 l 0,0 z"
   id="path339"
   style="fill:#fff200;stroke:#000000;stroke-width:1.3398;stroke-linejoin:round;stroke-miterlimit:3.86369991" />
	<path
   stroke-miterlimit="3.8637"
   d="m 401.646,457.179 c 0,-1.159 0.94,-2.1 2.101,-2.1 1.159,0 2.1,0.94 2.1,2.1 0,1.16 -0.94,2.1 -2.1,2.1 -1.16,-10e-4 -2.101,-0.94 -2.101,-2.1 l 0,0 z"
   id="path341"
   style="fill:#fff200;stroke:#000000;stroke-width:1.3398;stroke-linejoin:round;stroke-miterlimit:3.86369991" />
	<path
   stroke-miterlimit="3.8637"
   d="m 399.021,463.61 c 0,-1.16 0.94,-2.101 2.101,-2.101 1.161,0 2.1,0.94 2.1,2.101 0,1.159 -0.939,2.1 -2.1,2.1 -1.161,0 -2.101,-0.94 -2.101,-2.1 l 0,0 z"
   id="path343"
   style="fill:#fff200;stroke:#000000;stroke-width:1.3398;stroke-linejoin:round;stroke-miterlimit:3.86369991" />
	<path
   stroke-miterlimit="3.8637"
   d="m 396.134,469.909 c 0,-1.159 0.94,-2.1 2.101,-2.1 1.159,0 2.1,0.94 2.1,2.1 0,1.16 -0.94,2.1 -2.1,2.1 -1.161,0 -2.101,-0.94 -2.101,-2.1 l 0,0 z"
   id="path345"
   style="fill:#fff200;stroke:#000000;stroke-width:1.3398;stroke-linejoin:round;stroke-miterlimit:3.86369991" />
	<path
   stroke-miterlimit="3.8637"
   d="m 392.983,475.946 c 0,-1.159 0.94,-2.1 2.1,-2.1 1.16,0 2.101,0.94 2.101,2.1 0,1.16 -0.94,2.101 -2.101,2.101 -1.159,0 -2.1,-0.941 -2.1,-2.101 l 0,0 z"
   id="path347"
   style="fill:#fff200;stroke:#000000;stroke-width:1.3398;stroke-linejoin:round;stroke-miterlimit:3.86369991" />
	<path
   stroke-miterlimit="3.8637"
   d="m 389.57,481.853 c 0,-1.16 0.94,-2.1 2.101,-2.1 1.161,0 2.1,0.939 2.1,2.1 0,1.161 -0.939,2.1 -2.1,2.1 -1.161,0 -2.101,-0.94 -2.101,-2.1 l 0,0 z"
   id="path349"
   style="fill:#fff200;stroke:#000000;stroke-width:1.3398;stroke-linejoin:round;stroke-miterlimit:3.86369991" />
	<path
   stroke-miterlimit="3.8637"
   d="m 385.896,487.496 c 0,-1.16 0.94,-2.101 2.1,-2.101 1.16,0 2.101,0.94 2.101,2.101 0,1.161 -0.94,2.101 -2.101,2.101 -1.16,0 -2.1,-0.941 -2.1,-2.101 l 0,0 z"
   id="path351"
   style="fill:#fff200;stroke:#000000;stroke-width:1.3398;stroke-linejoin:round;stroke-miterlimit:3.86369991" />
	<path
   stroke-miterlimit="3.8637"
   d="m 381.826,493.009 c 0,-1.16 0.94,-2.1 2.1,-2.1 1.16,0 2.101,0.939 2.101,2.1 0,1.159 -0.94,2.1 -2.101,2.1 -1.159,-10e-4 -2.1,-0.941 -2.1,-2.1 l 0,0 z"
   id="path353"
   style="fill:#fff200;stroke:#000000;stroke-width:1.3398;stroke-linejoin:round;stroke-miterlimit:3.86369991" />
	<path
   stroke-miterlimit="3.8637"
   d="m 377.626,498.389 c 0,-1.159 0.94,-2.1 2.1,-2.1 1.16,0 2.101,0.94 2.101,2.1 0,1.16 -0.94,2.101 -2.101,2.101 -1.16,-0.001 -2.1,-0.941 -2.1,-2.101 l 0,0 z"
   id="path355"
   style="fill:#fff200;stroke:#000000;stroke-width:1.3398;stroke-linejoin:round;stroke-miterlimit:3.86369991" />
	<path
   stroke-miterlimit="3.8637"
   d="m 372.9,503.639 c 0,-1.16 0.94,-2.1 2.1,-2.1 1.16,0 2.101,0.939 2.101,2.1 0,1.159 -0.94,2.1 -2.101,2.1 -1.159,-10e-4 -2.1,-0.941 -2.1,-2.1 l 0,0 z"
   id="path357"
   style="fill:#fff200;stroke:#000000;stroke-width:1.3398;stroke-linejoin:round;stroke-miterlimit:3.86369991" />
	<path
   stroke-miterlimit="3.8637"
   d="m 368.043,508.364 c 0,-1.16 0.94,-2.101 2.101,-2.101 1.161,0 2.101,0.94 2.101,2.101 0,1.159 -0.94,2.1 -2.101,2.1 -1.161,0 -2.101,-0.941 -2.101,-2.1 l 0,0 z"
   id="path359"
   style="fill:#fff200;stroke:#000000;stroke-width:1.3398;stroke-linejoin:round;stroke-miterlimit:3.86369991" />
	<path
   stroke-miterlimit="3.8637"
   d="m 362.925,512.826 c 0,-1.16 0.939,-2.1 2.1,-2.1 1.159,0 2.1,0.939 2.1,2.1 0,1.159 -0.94,2.1 -2.1,2.1 -1.161,0 -2.1,-0.941 -2.1,-2.1 l 0,0 z"
   id="path361"
   style="fill:#fff200;stroke:#000000;stroke-width:1.3398;stroke-linejoin:round;stroke-miterlimit:3.86369991" />
	<path
   stroke-miterlimit="3.8637"
   d="m 357.805,516.895 c 0,-1.159 0.94,-2.1 2.101,-2.1 1.161,0 2.1,0.94 2.1,2.1 0,1.16 -0.939,2.1 -2.1,2.1 -1.161,0 -2.101,-0.94 -2.101,-2.1 l 0,0 z"
   id="path363"
   style="fill:#fff200;stroke:#000000;stroke-width:1.3398;stroke-linejoin:round;stroke-miterlimit:3.86369991" />
	<path
   stroke-miterlimit="3.8637"
   d="m 352.16,520.7 c 0,-1.159 0.94,-2.1 2.101,-2.1 1.159,0 2.1,0.94 2.1,2.1 0,1.16 -0.94,2.101 -2.1,2.101 -1.16,0 -2.101,-0.941 -2.101,-2.101 l 0,0 z"
   id="path365"
   style="fill:#fff200;stroke:#000000;stroke-width:1.3398;stroke-linejoin:round;stroke-miterlimit:3.86369991" />
	<path
   stroke-miterlimit="3.8637"
   d="m 334.309,529.625 c 0,-1.16 0.94,-2.1 2.101,-2.1 1.161,0 2.1,0.939 2.1,2.1 0,1.161 -0.939,2.101 -2.1,2.101 -1.161,0 -2.101,-0.941 -2.101,-2.101 l 0,0 z"
   id="path367"
   style="fill:#fff200;stroke:#000000;stroke-width:1.3398;stroke-linejoin:round;stroke-miterlimit:3.86369991" />
	<path
   stroke-miterlimit="3.8637"
   d="m 328.271,531.725 c 0,-1.159 0.94,-2.1 2.101,-2.1 1.161,0 2.1,0.94 2.1,2.1 0,1.16 -0.939,2.101 -2.1,2.101 -1.161,0 -2.101,-0.941 -2.101,-2.101 l 0,0 z"
   id="path369"
   style="fill:#fff200;stroke:#000000;stroke-width:1.3398;stroke-linejoin:round;stroke-miterlimit:3.86369991" />
	<path
   stroke-miterlimit="3.8637"
   d="m 340.347,527.132 c 0,-1.16 0.94,-2.1 2.101,-2.1 1.159,0 2.1,0.939 2.1,2.1 0,1.159 -0.94,2.1 -2.1,2.1 -1.161,-10e-4 -2.101,-0.941 -2.101,-2.1 l 0,0 z"
   id="path371"
   style="fill:#fff200;stroke:#000000;stroke-width:1.3398;stroke-linejoin:round;stroke-miterlimit:3.86369991" />
	<path
   stroke-miterlimit="3.8637"
   d="m 346.254,524.113 c 0,-1.16 0.94,-2.1 2.1,-2.1 1.16,0 2.101,0.939 2.101,2.1 0,1.159 -0.94,2.1 -2.101,2.1 -1.16,0 -2.1,-0.941 -2.1,-2.1 l 0,0 z"
   id="path373"
   style="fill:#fff200;stroke:#000000;stroke-width:1.3398;stroke-linejoin:round;stroke-miterlimit:3.86369991" />
	<path
   stroke-miterlimit="3.8637"
   d="m 321.971,533.3 c 0,-1.159 0.94,-2.1 2.1,-2.1 1.16,0 2.101,0.94 2.101,2.1 0,1.16 -0.94,2.1 -2.101,2.1 -1.16,-10e-4 -2.1,-0.94 -2.1,-2.1 l 0,0 z"
   id="path375"
   style="fill:#fff200;stroke:#000000;stroke-width:1.3398;stroke-linejoin:round;stroke-miterlimit:3.86369991" />
	<path
   stroke-miterlimit="3.8637"
   d="m 309.237,535.138 c 0,-1.16 0.94,-2.101 2.101,-2.101 1.161,0 2.1,0.94 2.1,2.101 0,1.159 -0.939,2.1 -2.1,2.1 -1.161,0 -2.101,-0.941 -2.101,-2.1 l 0,0 z"
   id="path377"
   style="fill:#fff200;stroke:#000000;stroke-width:1.3398;stroke-linejoin:round;stroke-miterlimit:3.86369991" />
	<path
   stroke-miterlimit="3.8637"
   d="m 315.538,534.481 c 0,-1.16 0.939,-2.101 2.1,-2.101 1.161,0 2.101,0.94 2.101,2.101 0,1.161 -0.94,2.101 -2.101,2.101 -1.161,0 -2.1,-0.94 -2.1,-2.101 l 0,0 z"
   id="path379"
   style="fill:#fff200;stroke:#000000;stroke-width:1.3398;stroke-linejoin:round;stroke-miterlimit:3.86369991" />
</g>
</svg>